<?xml version="1.0" encoding="utf-8"?>
<!-- Generator: Adobe Illustrator 22.0.1, SVG Export Plug-In . SVG Version: 6.00 Build 0)  -->
<svg version="1.1" id="图层_1" xmlns="http://www.w3.org/2000/svg" xmlns:xlink="http://www.w3.org/1999/xlink" x="0px" y="0px"
	 viewBox="0 0 180 142" style="enable-background:new 0 0 180 142;" xml:space="preserve">
<style type="text/css">
	.st0{fill:#B2B2B2;}
</style>
<g>
	<path class="st0" d="M90,46.8c-18.1,0-32.7,14.6-32.7,32.7s14.6,32.7,32.7,32.7s32.7-14.6,32.7-32.7C122.7,61.4,108.1,46.8,90,46.8
		z"/>
	<path class="st0" d="M168.4,22.2h-34.2c-1.8-5.5-8-22.2-17.1-22.2H62.9c-8.4,0-15.2,16.7-17.2,22.2h-34c-6.4,0-11.6,5.5-11.6,12.3
		v95.2c0,6.8,5.2,12.3,11.6,12.3h156.7c6.4,0,11.6-5.5,11.6-12.3V34.5C180,27.7,174.8,22.2,168.4,22.2L168.4,22.2z M90,120.3
		c-22.6,0-40.9-18.3-40.9-40.8c0-22.6,18.3-40.9,40.9-40.9s40.9,18.3,40.9,40.9C130.9,102,112.6,120.3,90,120.3z M148.6,46.8
		c-3.8,0-6.8-3.1-6.8-6.8c0-3.8,3-6.8,6.8-6.8s6.8,3.1,6.8,6.8S152.3,46.8,148.6,46.8L148.6,46.8z"/>
	<path class="st0" d="M40,11.6c0,2.4-2,4.4-4.4,4.4H15c-2.4,0-4.4-2-4.4-4.4s2-4.4,4.4-4.4h20.5C38,7.2,40,9.2,40,11.6z"/>
</g>
</svg>
