<?xml version="1.0" encoding="utf-8"?>
<!-- Generator: Adobe Illustrator 21.0.0, SVG Export Plug-In . SVG Version: 6.00 Build 0)  -->
<svg version="1.1" id="图层_1" xmlns="http://www.w3.org/2000/svg" xmlns:xlink="http://www.w3.org/1999/xlink" x="0px" y="0px"
	 viewBox="0 0 149.6 149.6" style="enable-background:new 0 0 149.6 149.6;" xml:space="preserve">
<style type="text/css">
	.st0{fill:#FFFFFF;}
</style>
<path class="st0" d="M147.3,136.1L85.9,74.8l61.3-61.3c3.1-3.1,3.1-8.1,0-11.1c-3.1-3.1-8.1-3.1-11.1,0L74.8,63.7L13.4,2.3
	c-3.1-3.1-8.1-3.1-11.1,0c-3.1,3.1-3.1,8.1,0,11.1l61.3,61.3L2.3,136.1c-3.1,3.1-3.1,8.1,0,11.1c3.1,3.1,8.1,3.1,11.1,0l61.4-61.4
	l61.4,61.4c3.1,3.1,8.1,3.1,11.1,0C150.3,144.2,150.3,139.2,147.3,136.1z"/>
</svg>
