<?xml version="1.0" standalone="no"?><!DOCTYPE svg PUBLIC "-//W3C//DTD SVG 1.1//EN" "http://www.w3.org/Graphics/SVG/1.1/DTD/svg11.dtd"><svg t="1503555726291" class="icon" style="" viewBox="0 0 1024 1024" version="1.1" xmlns="http://www.w3.org/2000/svg" p-id="9350" xmlns:xlink="http://www.w3.org/1999/xlink" width="200" height="200"><defs><style type="text/css"></style></defs><path d="M37.944889 1021.895111c-9.500444 0-18.944-3.584-26.112-10.808889-14.449778-14.449778-14.449778-37.888 0-52.337778L956.416 14.165333c14.449778-14.449778 37.888-14.449778 52.337778 0s14.449778 37.831111 0 52.280889L64.056889 1011.029333C56.888889 1018.254222 47.388444 1021.895111 37.944889 1021.895111z" p-id="9351"></path><path d="M982.528 1021.895111c-9.443556 0-18.944-3.584-26.168889-10.808889L11.832889 66.446222c-14.449778-14.449778-14.449778-37.831111 0-52.280889s37.831111-14.449778 52.280889 0l944.64 944.583111c14.449778 14.449778 14.449778 37.888 0 52.337778C1001.472 1018.254222 992.028444 1021.895111 982.528 1021.895111z" p-id="9352"></path></svg>