<?xml version="1.0" encoding="utf-8"?>
<!-- Generator: Adobe Illustrator 21.0.0, SVG Export Plug-In . SVG Version: 6.00 Build 0)  -->
<svg version="1.1" id="图层_1" xmlns="http://www.w3.org/2000/svg" xmlns:xlink="http://www.w3.org/1999/xlink" x="0px" y="0px"
	 viewBox="0 0 200 200" style="enable-background:new 0 0 200 200;" xml:space="preserve">
<style type="text/css">
	.st0{fill:#CCCCCC;}
</style>
<path class="st0" d="M100,0C44.8,0,0,39,0,87.1s44.8,87.1,100,87.1V200c0,0,60.9-42.6,71.5-52c17.6-15.7,28.5-37.2,28.5-60.9
	C200,39,155.2,0,100,0z M44.1,108.2c-10.7,0-19.3-8.7-19.3-19.3s8.7-19.3,19.3-19.3s19.3,8.7,19.3,19.3S54.8,108.2,44.1,108.2z
	 M100,108.2c-10.7,0-19.3-8.7-19.3-19.3s8.7-19.3,19.3-19.3s19.3,8.7,19.3,19.3S110.7,108.2,100,108.2z M155.9,108.2
	c-10.7,0-19.3-8.7-19.3-19.3s8.7-19.3,19.3-19.3c10.7,0,19.3,8.7,19.3,19.3S166.5,108.2,155.9,108.2z"/>
</svg>
