<?xml version="1.0" encoding="utf-8"?>
<!-- Generator: Adobe Illustrator 21.0.0, SVG Export Plug-In . SVG Version: 6.00 Build 0)  -->
<svg version="1.1" id="图层_1" xmlns="http://www.w3.org/2000/svg" xmlns:xlink="http://www.w3.org/1999/xlink" x="0px" y="0px"
	 viewBox="0 0 175 175" style="enable-background:new 0 0 175 175;" xml:space="preserve">
<style type="text/css">
	.st0{fill:#7D8087;}
</style>
<g>
	<path class="st0" d="M87.5,0C39.2,0,0,39.2,0,87.5S39.2,175,87.5,175c47.9,0,87.5-39.2,87.5-87.5S135.8,0,87.5,0z M87.5,167.4
		c-44.1,0-79.9-35.8-79.9-79.9S43.4,7.6,87.5,7.6c43.8,0,79.9,35.8,79.9,79.9S131.6,167.4,87.5,167.4z"/>
	<path class="st0" d="M87.5,144.2c27.4,0,49.5-22.1,49.5-49.5H38.1C38.1,122.1,60.1,144.2,87.5,144.2z M115.3,69.6
		c5.5,0,9.9-4.4,9.9-9.9c0-5.5-4.4-9.9-9.9-9.9c-5.4,0-9.9,4.4-9.9,9.9S109.8,69.6,115.3,69.6z M59.4,69.6c5.5,0,9.9-4.4,9.9-9.9
		c0-5.5-4.4-9.9-9.9-9.9c-5.5,0-9.9,4.4-9.9,9.9S53.9,69.6,59.4,69.6z"/>
</g>
</svg>
