<?xml version="1.0" encoding="utf-8"?>
<!-- Generator: Adobe Illustrator 19.0.0, SVG Export Plug-In . SVG Version: 6.00 Build 0)  -->
<svg version="1.1" id="图层_1" xmlns="http://www.w3.org/2000/svg" xmlns:xlink="http://www.w3.org/1999/xlink" x="0px" y="0px"
	 viewBox="-379 181 200.2 200" style="enable-background:new -379 181 200.2 200;" xml:space="preserve">
<style type="text/css">
	.st0{fill:#FFFFFF;}
</style>
<path d="M-279,381c-55.2,0-100-44.8-100-100c0-55.2,44.8-100,100-100c55.2,0,100,44.8,100,100C-179,336.2-223.8,381-279,381z
	 M-237.8,251.5c3.3-3.3,3.3-8.5,0-11.8c-3.3-3.3-8.5-3.3-11.8,0l-29.5,29.5l-29.5-29.5c-3.3-3.3-8.5-3.3-11.8,0
	c-3.3,3.3-3.3,8.5,0,11.8l29.5,29.5l-29.5,29.5c-3.3,3.3-3.3,8.5,0,11.8c3.3,3.3,8.5,3.3,11.8,0l29.5-29.5l29.5,29.5
	c3.3,3.3,8.5,3.3,11.8,0c3.3-3.3,3.3-8.5,0-11.8l-29.5-29.5L-237.8,251.5z"/>
<path class="st0" d="M-237.8,239.8c-3.3-3.3-8.5-3.3-11.8,0l-29.5,29.5l-29.5-29.5c-3.3-3.3-8.5-3.3-11.8,0c-3.3,3.3-3.3,8.5,0,11.8
	l29.5,29.5l-29.5,29.5c-3.3,3.3-3.3,8.5,0,11.8c3.3,3.3,8.5,3.3,11.8,0l29.5-29.5l29.5,29.5c3.3,3.3,8.5,3.3,11.8,0
	c3.3-3.3,3.3-8.5,0-11.8l-29.5-29.5l29.5-29.5C-234.5,248.3-234.5,243-237.8,239.8z"/>
</svg>
