<?xml version="1.0" encoding="utf-8"?>
<!-- Generator: Adobe Illustrator 22.0.1, SVG Export Plug-In . SVG Version: 6.00 Build 0)  -->
<svg version="1.1" id="图层_1" xmlns="http://www.w3.org/2000/svg" xmlns:xlink="http://www.w3.org/1999/xlink" x="0px" y="0px"
	 viewBox="0 0 172.7 157.6" style="enable-background:new 0 0 172.7 157.6;" xml:space="preserve">
<style type="text/css">
	.st0{fill:#C0BFBF;}
	.st1{fill:#4D4D4D;}
</style>
<g>
	<rect x="25.9" y="26.6" class="st0" width="121.9" height="111.2"/>
	<g>
		<path class="st1" d="M153.6,0H86.5l0,0l0,0h-0.1l0,0c-0.1,0-0.2,0-0.3,0c0.1,0,0.2,0,0.3,0H19.2C8.6,0,0,7.9,0,17.5v122.6
			c0,9.6,8.6,17.5,19.2,17.5h134.3c10.6,0,19.2-7.9,19.2-17.5V17.5C172.8,7.9,164.2,0,153.6,0z M38.5,35h95.9v17.5H38.5V35z
			 M105.6,122.6H38.5v-17.5h67.2L105.6,122.6L105.6,122.6z M38.5,87.5V70h95.9v17.5H38.5z"/>
	</g>
</g>
</svg>
