<?xml version="1.0" encoding="utf-8"?>
<!-- Generator: Adobe Illustrator 19.0.0, SVG Export Plug-In . SVG Version: 6.00 Build 0)  -->
<svg version="1.1" id="图层_1" xmlns="http://www.w3.org/2000/svg" xmlns:xlink="http://www.w3.org/1999/xlink" x="0px" y="0px"
	 viewBox="-379 181 200 200" style="enable-background:new -379 181 200 200;" xml:space="preserve">
<style type="text/css">
	.st0{fill:#FFFFFF;}
	.st1{fill:#F19EC2;}
</style>
<path class="st0" d="M-232.6,234.2c-19.5-19.5-51.4-19.5-70.9,0c-18.2,18.6-19.1,47.7-3.2,67.3l-7.3,7.3l-17.7-17.7
	c-2.3-1.8-5.5-1.8-7.3,0c-1.8,2.3-1.8,5.5,0,7.3l17.7,17.7l-10.5,10.5c-1.8,2.3-1.8,5.5,0,7.3c2.3,1.8,5.5,1.8,7.3,0l10-10.9
	l17.7,17.7c2.3,1.8,5.5,2.3,7.3,0c1.8-2.3,1.8-5.5,0-7.3l-17.7-17.7l7.3-7.3c20,16.4,49.1,15,67.3-3.2
	C-213.1,285.5-213.1,254.2-232.6,234.2z M-239.5,298.3c-15.9,15.5-41.4,15.5-56.8,0c-15.5-15.9-15.5-41.4,0-56.8
	c15.9-15.5,40.9-15.5,56.8,0C-224,257.4-224,282.8-239.5,298.3z"/>
<path class="st1" d="M-239.5,241.5c-15.9-15.5-40.9-15.5-56.8,0c-15.5,15.5-15.5,40.9,0,56.8c15.5,15.5,40.9,15.5,56.8,0
	C-224,282.8-224,257.4-239.5,241.5z"/>
<path class="st1" d="M-279,181c-55.5,0-100,44.5-100,100s44.5,100,100,100s100-44.5,100-100S-223.5,181-279,181z M-232.6,305.1
	c-18.2,18.2-47.3,19.5-67.3,3.2l-7.3,7.3l17.7,17.7c1.8,1.8,1.8,5,0,7.3c-1.8,2.3-5,1.8-7.3,0l-17.7-17.7l-10,10.9
	c-1.8,1.8-5,1.8-7.3,0c-1.8-1.8-1.8-5,0-7.3l10.5-10.5l-17.7-17.7c-1.8-1.8-1.8-5,0-7.3c1.8-1.8,5-1.8,7.3,0l17.7,17.7l7.3-7.3
	c-15.9-19.5-15-48.6,3.2-67.3c19.5-19.5,51.4-19.5,70.9,0C-213.1,254.2-213.1,285.5-232.6,305.1L-232.6,305.1z"/>
</svg>
