<?xml version="1.0" encoding="utf-8"?>
<!-- Generator: Adobe Illustrator 21.0.0, SVG Export Plug-In . SVG Version: 6.00 Build 0)  -->
<svg version="1.1" id="图层_1" xmlns="http://www.w3.org/2000/svg" xmlns:xlink="http://www.w3.org/1999/xlink" x="0px" y="0px"
	 viewBox="0 0 200 200" style="enable-background:new 0 0 200 200;" xml:space="preserve">
<style type="text/css">
	.st0{fill:#999999;}
</style>
<path class="st0" d="M183.8,29.2c-10.6-10.6-19.9-16.7-41.8-16.7c-26.9,0-41.9,15.3-41.9,15.3S86.6,12.6,58,12.6
	c-18.4,0-30.7,6.1-41.3,16.7C6.1,39.9,0,53.8,0,68.8c0,15,5.1,25.5,17.8,41.9c13.3,17.1,70.1,70.8,73.6,73.3s5.5,3.7,8.9,3.7
	c3.3,0,4.5-1,8.9-3.7c4.4-2.7,61-55.7,74.7-75.3C194.1,93.9,200,84.3,200,69.3C200,54.2,194.4,39.9,183.8,29.2z M171.4,106.1
	c-10.2,14.4-63.5,64.2-63.5,64.2c-2.8,2.5-4.9,4.1-7.8,4.1c-2.9,0-5.7-2.1-7.8-4.1c0,0-50.5-48.8-62.9-64
	C19.8,94.6,12.5,82,12.5,69.1c0-11.6,3.4-22.2,12.5-31.7C34.3,28.3,44.3,25,57.4,25c27.1,0,42.7,20.4,42.7,20.4s16-20.7,42.8-20.7
	c13.2,0,22.8,3.6,32.1,12.7c9.3,9.1,12.5,20.3,12.5,33.2C187.5,83.6,183.2,90.8,171.4,106.1L171.4,106.1z"/>
</svg>
