<?xml version="1.0" encoding="utf-8"?>
<!-- Generator: Adobe Illustrator 19.0.0, SVG Export Plug-In . SVG Version: 6.00 Build 0)  -->
<svg version="1.1" id="图层_1" xmlns="http://www.w3.org/2000/svg" xmlns:xlink="http://www.w3.org/1999/xlink" x="0px" y="0px"
	 viewBox="-379 181 200 200" style="enable-background:new -379 181 200 200;" xml:space="preserve">
<style type="text/css">
	.st0{fill:#FF6064;}
</style>
<path class="st0" d="M-279,376.3c-1.1,0-2.1-0.2-3-0.7c-13.1-6.5-36.8-24.2-58-47.9c-11.1-12.4-20-24.6-26.3-36.4
	c-7.4-13.7-11.1-26.5-11.1-38c0-23.7,11.1-37.4,20.3-44.6c10.3-8.1,24.4-12.9,37.7-12.9c8.3,0,16.8,2.5,25.4,7.5
	c6.3,3.7,11.4,8,15,11.3c3.5-3.3,8.7-7.7,15-11.3c8.6-5,17.1-7.5,25.4-7.5c13.3,0,27.4,4.8,37.7,12.9c9.3,7.3,20.3,21,20.3,44.6
	c0,11.5-3.7,24.3-11.1,38c-6.3,11.8-15.2,24-26.3,36.4c-21.2,23.6-44.9,41.4-58,47.9C-276.9,376-277.9,376.3-279,376.3L-279,376.3z"
	/>
</svg>
