<?xml version="1.0" encoding="utf-8"?>
<!-- Generator: Adobe Illustrator 21.0.0, SVG Export Plug-In . SVG Version: 6.00 Build 0)  -->
<svg version="1.1" id="图层_1" xmlns="http://www.w3.org/2000/svg" xmlns:xlink="http://www.w3.org/1999/xlink" x="0px" y="0px"
	 viewBox="0 0 157.7 167.5" style="enable-background:new 0 0 157.7 167.5;" xml:space="preserve">
<style type="text/css">
	.st0{opacity:0.84;}
	.st1{fill:#FFFFFF;}
</style>
<g class="st0">
	<path class="st1" d="M78.9,11.2c0.4,0,1.2,0.1,1.8,0.7l64.6,62.5H141h-11.2v11.2v68.6c0,1.1-0.8,2.1-1.8,2.1H30.8
		c-0.9,0-1.8-1-1.8-2.1V85.6V74.4H17.8l-5.3,0l64.6-62.5C77.7,11.3,78.4,11.2,78.9,11.2 M78.9,0c-3.5,0-6.9,1.3-9.6,3.8L3.9,67
		c-5.3,5.1-5.3,13.4,0,18.5h13.9v68.6c0,7.3,5.8,13.3,13,13.3H128c7.1,0,13-6,13-13.3V85.6h12.8c5.3-5.1,5.3-13.4,0-18.5L88.4,3.8
		C85.8,1.3,82.3,0,78.9,0L78.9,0z"/>
	<path class="st1" d="M71.3,141v-31.6h17.8V141c0,3.6,2.9,6.5,6.5,6.5l0,0c3.6,0,6.5-2.9,6.5-6.5v-31.6c0-7.1-5.8-13-13-13l-17.8,0
		c-7.1,0-13,5.8-13,13V141c0,3.6,2.9,6.5,6.5,6.5l0,0C68.4,147.4,71.3,144.5,71.3,141z"/>
</g>
</svg>
