<?xml version="1.0" encoding="utf-8"?>
<!-- Generator: Adobe Illustrator 21.0.0, SVG Export Plug-In . SVG Version: 6.00 Build 0)  -->
<svg version="1.1" id="图层_1" xmlns="http://www.w3.org/2000/svg" xmlns:xlink="http://www.w3.org/1999/xlink" x="0px" y="0px"
	 viewBox="0 0 174.6 174.6" style="enable-background:new 0 0 174.6 174.6;" xml:space="preserve">
<style type="text/css">
	.st0{fill:#7D8087;}
</style>
<g>
	<path class="st0" d="M87.3,174.6C39,174.6-0.1,135.4,0,87.2C0.1,39,39.1,0,87.3,0c48.2,0,87.4,39.2,87.3,87.4
		C174.6,135.6,135.5,174.6,87.3,174.6L87.3,174.6z M87.3,166.3c43.6,0,79-35.3,79-78.8c0-43.8-35.3-79.2-79-79.2
		c-43.6,0-79,35.4-79,78.9C8.3,130.9,43.6,166.3,87.3,166.3z"/>
	<path class="st0" d="M97.4,91.6c1.9-2.1,3.7-4.1,5.6-6c1.4-1.4,2.9-2.7,4.5-3.8c3.3-2.3,5.4-2.2,8.2,0.6c2.9,2.8,5.5,5.9,8,9.1
		c3.6,4.7,6.9,9.6,10.3,14.5c0.3,0.5,0.5,1.3,0.3,1.7c-0.3,0.5-1.1,0.8-1.7,0.8c-3.5,0.1-7.1,0-10.6,0H36.8c-0.9,0-2,0.3-2.6-0.8
		c-0.5-1,0.3-1.7,0.8-2.5c7.5-10.7,15-21.4,23.5-31.3c2.2-2.5,4.5-5,6.9-7.2c3.5-3.2,5.4-3.4,8.9-0.2C78.3,70.1,82,74,85.6,78
		c3.8,4.1,7.4,8.5,11,12.7C96.9,91,97.1,91.3,97.4,91.6L97.4,91.6z M116,63.3c-5.8-0.1-10.4-4.9-10.3-10.6
		c0.1-5.8,4.9-10.4,10.8-10.3c5.7,0.1,10.2,4.9,10.1,10.7C126.5,58.8,121.7,63.4,116,63.3L116,63.3z"/>
</g>
</svg>
