<?xml version="1.0" encoding="utf-8"?>
<!-- Generator: Adobe Illustrator 21.0.0, SVG Export Plug-In . SVG Version: 6.00 Build 0)  -->
<svg version="1.1" id="图层_1" xmlns="http://www.w3.org/2000/svg" xmlns:xlink="http://www.w3.org/1999/xlink" x="0px" y="0px"
	 viewBox="0 0 150.2 200" style="enable-background:new 0 0 150.2 200;" xml:space="preserve">
<style type="text/css">
	.st0{fill:#666666;}
</style>
<path class="st0" d="M137.5,93.8h-26.3V36.3C111.3,16.3,95,0,75,0S38.8,16.3,38.8,36.3v57.5H12.5C5,93.8,0,100,0,106.3v81.3
	c0,7.5,6.3,12.5,12.5,12.5h125c7.5,0,12.5-6.3,12.5-12.5v-81.3C151.3,98.8,145,93.8,137.5,93.8z M48.8,36.3C48.8,22.5,60,10,75,10
	c13.8,0,26.3,11.3,26.3,26.2v57.5H48.8V36.3z M140,187.5c0,1.3-1.3,2.5-2.5,2.5h-125c-1.3,0-2.5-1.3-2.5-2.5v-81.3
	c0-1.3,1.3-2.5,2.5-2.5h125c1.3,0,2.5,1.3,2.5,2.5V187.5z"/>
<path class="st0" d="M63.3,129.3c0,6,4.9,10.9,10.8,10.9c6,0,10.9-4.9,10.9-10.8c0,0,0,0,0,0c0-6-4.9-10.9-10.8-10.9
	C68.2,118.5,63.3,123.3,63.3,129.3C63.3,129.3,63.3,129.3,63.3,129.3z"/>
</svg>
