<?xml version="1.0" encoding="utf-8"?>
<!-- Generator: Adobe Illustrator 19.0.0, SVG Export Plug-In . SVG Version: 6.00 Build 0)  -->
<svg version="1.1" id="图层_1" xmlns="http://www.w3.org/2000/svg" xmlns:xlink="http://www.w3.org/1999/xlink" x="0px" y="0px"
	 viewBox="-379 181 200 200" style="enable-background:new -379 181 200 200;" xml:space="preserve">
<style type="text/css">
	.st0{fill:#4BB7EA;}
	.st1{fill:#FFFFFF;}
</style>
<path class="st0" d="M-291.3,256.9h-0.9c-20.9,0.5-37.3,17.7-36.8,38.2c0,10,4.1,19.5,11.4,26.4c7.3,6.8,16.4,10.5,25.9,10.5h0.9
	c10,0,19.5-4.1,26.4-11.4c6.8-7.3,10.9-16.8,10.5-26.8c0-10-4.1-19.5-11.4-26.4S-281.7,256.9-291.3,256.9z"/>
<path class="st0" d="M-279,180.9c-55.5,0-100,44.5-100,100s44.5,100,100,100s100-44.5,100-100S-223.5,180.9-279,180.9z
	 M-220.4,262.3c-0.9,0.9-2.3,1.4-3.6,1.4c-2.7,0-5-2.3-5-5l-0.5-21.4l-25.5,26.4c6.8,8.2,10.9,18.6,10.9,29.5
	c0.5,26.4-20.5,48.2-46.8,48.6h-0.9c-25.9,0-47.3-20.9-47.7-46.8c-0.5-26.4,20.5-48.2,46.8-48.6h0.9c10.5,0,20.9,3.6,29.5,10
	l25.5-26.4l-21.8,0.5c-2.7,0-5-2.3-5-5c0-1.4,0.5-2.7,1.4-3.6c0.9-0.9,2.3-1.4,3.6-1.4l34.1-0.9c1.4,0,2.7,0.5,3.6,1.4
	c0.9,0.9,1.4,2.3,1.4,3.6l0.5,34.1C-218.5,260-219,261.4-220.4,262.3L-220.4,262.3z"/>
<path id="XMLID_8_" class="st1" d="M-218.9,258.7l-0.6-34.1c0-1.4-0.5-2.7-1.4-3.6c-0.9-0.9-2.3-1.4-3.7-1.4l-34.1,0.9
	c-1.4,0-2.7,0.5-3.6,1.4c-0.9,0.9-1.4,2.3-1.4,3.6c0,2.7,2.3,5,5,5l21.8-0.5l-25.5,26.1c-8.6-6.4-19.1-10.2-29.5-10.2h-0.9
	c-26.4,1-47.3,22.5-46.8,48.9c0.5,25.9,21.8,47.1,47.7,47.1h0.9c26.4-1,47.3-22.3,46.8-48.7c0-10.9-4.1-21.4-10.9-29.6l25.5-26.4
	l0.5,21.4c0,2.7,2.5,5,5.2,5c1.4,0,2.9-0.5,3.9-1.4v0C-219,261.4-218.4,260.1-218.9,258.7z M-254.1,293.7c0.5,10-3.6,19.6-10.5,26.9
	c-6.8,7.3-16.4,11.4-26.4,11.4h-0.9c-9.5,0-18.6-3.7-25.9-10.5c-7.3-6.8-11.4-16.3-11.4-26.3c-0.5-20.5,15.9-38.2,36.8-38.2h0.9
	c9.5,0,18.6,3.6,25.9,10.4C-258.2,274.2-254.1,283.7-254.1,293.7z"/>
</svg>
