<?xml version="1.0" encoding="utf-8"?>
<!-- Generator: Adobe Illustrator 19.0.0, SVG Export Plug-In . SVG Version: 6.00 Build 0)  -->
<svg version="1.1" id="图层_1" xmlns="http://www.w3.org/2000/svg" xmlns:xlink="http://www.w3.org/1999/xlink" x="0px" y="0px"
	 viewBox="-379 181 200 200" style="enable-background:new -379 181 200 200;" xml:space="preserve">
<style type="text/css">
	.st0{fill:#FFFFFF;}
</style>
<path class="st0" d="M-279,193.5c-48.8,0-87.5,38.8-87.5,87.5s38.8,87.5,87.5,87.5s87.5-38.8,87.5-87.5S-230.3,193.5-279,193.5z
	 M-242.8,279.8c0,1.3,0,2.5,0,5s0,3.8,0,5h-28.8v13.8h28.8c0,1.3,0,2.5,0,5s0,3.8,0,5h-28.8v23.8c-1.3,0-2.5,0-3.8,0s-2.5,0-3.8,0
	s-2.5,0-3.8,0s-2.5,0-3.8,0v-23.8H-314c0-1.3,0-2.5,0-5c0-1.3,0-1.3,0-2.5s0-1.3,0-2.5h27.5v-13.8H-314c0-1.3,0-2.5,0-5
	c0-1.3,0-1.3,0-2.5s0-1.3,0-2.5h21.2l-27.5-48.8c1.2,0,2.5,0,3.8,0c1.3,0,2.5,0,5,0c1.3,0,2.5,0,3.8,0s2.5,0,3.8,0l25,45l23.8-45
	c1.3,0,2.5,0,3.8,0s2.5,0,3.8,0s2.5,0,3.8,0s2.5,0,3.8,0l-27.5,48.8H-242.8L-242.8,279.8z"/>
</svg>
