<?xml version="1.0" encoding="utf-8"?>
<!-- Generator: Adobe Illustrator 22.0.1, SVG Export Plug-In . SVG Version: 6.00 Build 0)  -->
<svg version="1.1" id="图层_1" xmlns="http://www.w3.org/2000/svg" xmlns:xlink="http://www.w3.org/1999/xlink" x="0px" y="0px"
	 viewBox="0 0 158.8 185.1" style="enable-background:new 0 0 158.8 185.1;" xml:space="preserve">
<style type="text/css">
	.st0{fill:#FFFFFF;}
</style>
<g>
	<path class="st0" d="M148.8,110.8V69.5C148.8,31.1,117.7,0,79.4,0C41,0,9.9,31.1,9.9,69.5v41.4C4,113.7,0,119.7,0,126.6
		c0,9.6,7.8,17.4,17.4,17.4h124c9.6,0,17.4-7.8,17.4-17.4C158.8,119.6,154.7,113.6,148.8,110.8z"/>
	<path class="st0" d="M104.5,150.4l-50.3,0.1c-4.5-0.1-4.6,5-4.6,5c0,16.4,13.3,29.8,29.8,29.8s29.8-13.3,29.8-29.8
		C109.1,155.4,109.1,150.4,104.5,150.4z"/>
</g>
</svg>
