<?xml version="1.0" standalone="no"?><!DOCTYPE svg PUBLIC "-//W3C//DTD SVG 1.1//EN" "http://www.w3.org/Graphics/SVG/1.1/DTD/svg11.dtd"><svg t="1503112370418" class="icon" style="" viewBox="0 0 1024 1024" version="1.1" xmlns="http://www.w3.org/2000/svg" p-id="3284" xmlns:xlink="http://www.w3.org/1999/xlink" width="200" height="200"><defs><style type="text/css"></style></defs><path d="M341.84064 663.4496c-127.65056 0-212.66048-11.45984-212.66048-67.33056 0-45.57056 66.43968-94.09024 151.2704-110.46016 2.58048-1.62944 6.62016-11.85024 7.10016-18.42048-3.93984-2.12992-6.99008-5.68064-8.50048-9.96992-6.41024-12.96-12.20992-23.17952-17.23008-31.97952-13.5104-23.70944-23.24992-40.8896-23.24992-73.12 0-66.86976 42.4704-113.57952 103.2704-113.57952 59.87968 0 103.33952 48.56064 103.33952 115.4304 0 43.50976-17.39008 87.31008-45.41952 114.28992-4.46976 4.72064-4.01024 9.64992-3.28064 12.13952 1.07008 3.61984 3.81952 6.35008 7.17056 7.17056 84.2304 16.11008 150.85056 64.17024 150.85056 109.2096C554.49984 652.0896 469.48992 663.4496 341.84064 663.4496zM309.42976 436.50944c7.10016 4.08064 12.84992 11.77984 14.21952 23.60064 2.41024 20.98048-10.24 55.26016-35.60064 61.1904-73.85984 14.26944-122.42048 54.44992-122.42048 74.81984 0 7.23968 12.7104 30.84032 176.20992 30.84032 159.02976 0 176.20992-21.08032 176.20992-30.12992 0-19.97952-48.67968-59.52-122.06976-73.57952-16.82048-4.03968-29.72032-16.40064-34.46016-32.50944-4.97024-16.82048-0.32-34.78016 12.41984-48.13056 21.3504-20.59008 34.7904-55.16032 34.7904-88.59008 0-47.23968-26.89024-79.01056-66.89024-79.01056-40.59008 0-66.81984 30.3104-66.81984 77.15968 0 22.58048 5.80992 32.8 18.4896 55.08992C298.21952 415.53024 303.55968 424.93056 309.42976 436.50944z" p-id="3285"></path><path d="M852.24064 323.64032 609.18016 323.64032c-10.05952 0-18.22976-8.17024-18.22976-18.21056 0-10.05056 8.17024-18.21056 18.22976-18.21056l243.06048 0c10.05952 0 18.22976 8.16 18.22976 18.21056C870.4704 315.47008 862.30016 323.64032 852.24064 323.64032z" p-id="3286"></path><path d="M852.24064 420.8896 609.18016 420.8896c-10.05952 0-18.22976-8.17024-18.22976-18.25024s8.17024-18.24 18.22976-18.24l243.06048 0c10.05952 0 18.22976 8.16 18.22976 18.24S862.30016 420.8896 852.24064 420.8896z" p-id="3287"></path><path d="M657.79968 858.3104l-291.6096 0c-10.05952 0-18.22976-8.16-18.22976-18.21056 0-10.04032 8.17024-18.20032 18.22976-18.20032l291.6096 0c10.06976 0 18.22976 8.16 18.22976 18.20032C676.02944 850.1504 667.86944 858.3104 657.79968 858.3104z" p-id="3288"></path><path d="M730.70976 931.22048c-10.05952 0-18.22976-8.17024-18.22976-18.21056L712.48 767.2c0-10.04032 8.17024-18.21056 18.22976-18.21056s18.21952 8.17024 18.21952 18.21056l0 145.80992C748.93056 923.05024 740.77056 931.22048 730.70976 931.22048z" p-id="3289"></path><path d="M293.28 931.22048c-10.05952 0-18.21952-8.17024-18.21952-18.21056L275.06048 767.2c0-10.04032 8.16-18.21056 18.21952-18.21056 10.06976 0 18.22976 8.17024 18.22976 18.21056l0 145.80992C311.50976 923.05024 303.34976 931.22048 293.28 931.22048z" p-id="3290"></path><path d="M951.9104 858.3104 803.6096 858.3104c-10.05952 0-18.21952-8.16-18.21952-18.21056 0-10.04032 8.16-18.20032 18.21952-18.20032L951.9104 821.89952c3.37024 0 3.63008-4.68992 3.63008-6.10944L955.54048 135.31008c0-1.41952-0.25984-6.10944-3.63008-6.10944L76.91008 129.20064c-4.27008 0-8.45952 3.86944-8.45952 6.10944l0 680.48c0 2.24 4.18944 6.10944 8.45952 6.10944l143.39968 0c10.05952 0 18.21952 8.16 18.21952 18.20032 0 10.05056-8.16 18.21056-18.21952 18.21056L76.91008 858.3104C52.98944 858.3104 32 838.43968 32 815.79008L32 135.31008c0-22.6496 20.98944-42.53056 44.91008-42.53056L951.9104 92.77952c22.85056 0 40.0896 18.25024 40.0896 42.53056l0 680.48C992 840.0704 974.75968 858.3104 951.9104 858.3104z" p-id="3291"></path></svg>