<?xml version="1.0" encoding="utf-8"?>
<!-- Generator: Adobe Illustrator 22.0.1, SVG Export Plug-In . SVG Version: 6.00 Build 0)  -->
<svg version="1.1" id="图层_1" xmlns="http://www.w3.org/2000/svg" xmlns:xlink="http://www.w3.org/1999/xlink" x="0px" y="0px"
	 viewBox="0 0 159 159" style="enable-background:new 0 0 159 159;" xml:space="preserve">
<style type="text/css">
	.st0{fill:#999999;}
</style>
<path class="st0" d="M139,149.1c5.5,0,10-4.4,10-10v-34.5c0-2.7,2.3-4.9,5-4.9c2.7,0,5,2.3,5,5.1V139c0,11-8.8,19.9-19.8,19.9H19.8
	C8.8,158.9,0,150,0,139.1l0,0v-34.4c0-2.8,2.2-5,5-5.1c2.7,0,5,2.1,5,4.9V139c0,5.5,4.5,10,10,10H139z M89.4,67.7
	c-70.8,2-79.5,25.4-79.5,25.4c0-35.8,29.4-71.3,89.4-70.2v-9.7l0.2-0.2h-0.2v-2.3c0-10.9,6.8-14,15.2-6.9l41.2,34.9
	c4.2,3.6,4.2,9.3,0,12.9l-41.2,35c-8.3,7.1-15.1,4-15.1-6.9V67.6c-3.4,0-6.7,0-9.8,0.1l-0.1-0.1C89.4,67.6,89.4,67.7,89.4,67.7z
	 M99.3,57.7c5.5,0,9.9,4.4,9.9,9.9v10.3L148,45.2l-38.7-32.9v10.6c0,5.5-4.5,9.9-9.9,9.9c-0.1,0-0.1,0-0.2,0
	c-37.3-0.7-63.4,14.2-74,36.4C39.5,62.4,62.9,57.7,99.3,57.7L99.3,57.7L99.3,57.7z"/>
</svg>
