<?xml version="1.0" encoding="utf-8"?>
<!-- Generator: Adobe Illustrator 22.0.1, SVG Export Plug-In . SVG Version: 6.00 Build 0)  -->
<svg version="1.1" id="图层_1" xmlns="http://www.w3.org/2000/svg" xmlns:xlink="http://www.w3.org/1999/xlink" x="0px" y="0px"
	 viewBox="0 0 232.2 200" style="enable-background:new 0 0 232.2 200;" xml:space="preserve">
<style type="text/css">
	.st0{fill:#666666;}
</style>
<path class="st0" d="M196.4,148.4H88c-15,0-21.7-11.9-23.3-18.7L33.8,26.6c-0.1-0.3-0.1-0.1-0.1-0.3c-0.7-2-2.6-5.1-8.3-5.1H10.6
	C4.7,21.2,0,16.4,0,10.6S4.7,0,10.6,0h14.8c18.3,0,26.8,13.4,28.7,20.6L85.1,124c0.1,0.4,0.1,0.4,0.2,0.8c0.7,2.4,2.1,2.4,2.7,2.4
	h107.8c0.3-0.6,0.6-1.4,0.6-1.5c0,0,0-0.1,0-0.1l13.9-78.3H94c-5.8,0-10.6-4.7-10.6-10.6S88.2,26,94,26h121.6c5.1,0,9.6,2,12.6,5.7
	c4.9,6.1,3.9,13.9,3.5,16.4l-14.4,81C215.8,138.4,208.6,148.4,196.4,148.4z"/>
<path class="st0" d="M93.1,184.7c0,8.5,6.9,15.3,15.3,15.3c8.5,0,15.3-6.9,15.3-15.3c0-8.5-6.9-15.3-15.3-15.3
	C100,169.4,93.1,176.2,93.1,184.7C93.1,184.7,93.1,184.7,93.1,184.7z"/>
<path class="st0" d="M156.7,184.7c0,8.5,6.9,15.3,15.3,15.3c8.5,0,15.3-6.9,15.3-15.3c0-8.5-6.9-15.3-15.3-15.3
	C163.5,169.4,156.7,176.2,156.7,184.7L156.7,184.7z"/>
</svg>
