<?xml version="1.0" encoding="utf-8"?>
<!-- Generator: Adobe Illustrator 22.0.1, SVG Export Plug-In . SVG Version: 6.00 Build 0)  -->
<svg version="1.1" id="图层_1" xmlns="http://www.w3.org/2000/svg" xmlns:xlink="http://www.w3.org/1999/xlink" x="0px" y="0px"
	 viewBox="0 0 189 188.9" style="enable-background:new 0 0 189 188.9;" xml:space="preserve">
<style type="text/css">
	.st0{fill:#DDDDDD;}
</style>
<path class="st0" d="M148.5,189.1c-1.1,0-2.3-0.3-3.3-0.9L94.3,160l-51,28.1c-3.3,1.8-7.4,0.6-9.2-2.7c-0.7-1.3-1-2.9-0.7-4.3
	l9.9-60.1L1.9,78.3c-2.6-2.7-2.5-7,0.1-9.6c1-0.9,2.2-1.6,3.6-1.8l32.7-5.6c3.7-0.6,7.1,1.9,7.7,5.6c0.6,3.6-1.8,7-5.4,7.7
	l-20.1,3.4L55.4,114c1.5,1.5,2.2,3.7,1.8,5.8L49,169.6l42.1-23.2c2-1.1,4.5-1.1,6.5,0l42,23.3l-8-49.8c-0.3-2.1,0.3-4.3,1.8-5.8
	l34.7-35.5l-47.6-7.3c-2.2-0.3-4.1-1.8-5.1-3.8L94.6,22.6L73.5,67.4c-1.6,3.4-5.6,4.9-9,3.3c-3.4-1.6-4.9-5.6-3.3-9
	c0,0,0-0.1,0.1-0.1L88.5,3.9C89.6,1.5,92,0,94.6,0h0c2.6,0,5,1.5,6.1,3.9l25.5,54.6l57,8.8c3.7,0.6,6.2,4,5.6,7.7
	c-0.2,1.4-0.9,2.7-1.8,3.7l-41.5,42.5l9.7,60.1c0.4,2.6-0.7,5.1-2.8,6.6C151.3,188.7,149.9,189.1,148.5,189.1L148.5,189.1z"/>
</svg>
