<?xml version="1.0" encoding="utf-8"?>
<!-- Generator: Adobe Illustrator 21.0.0, SVG Export Plug-In . SVG Version: 6.00 Build 0)  -->
<svg version="1.1" id="图层_1" xmlns="http://www.w3.org/2000/svg" xmlns:xlink="http://www.w3.org/1999/xlink" x="0px" y="0px"
	 viewBox="0 0 199 199.1" style="enable-background:new 0 0 199 199.1;" xml:space="preserve">
<style type="text/css">
	.st0{fill:#FF0000;}
</style>
<path class="st0" d="M196.7,88.2c-14.1,17.2-39.1,45.6-39.1,45.6s4.1,31.2,6.4,52.4c1,10.8-6.8,15.5-15.7,11.3
	c-16.8-8.5-42.5-21.6-48.2-24.5c-5.9,2.9-31.8,15.8-48.8,24.3c-9,4.2-16.9-0.5-15.9-11.3c2.3-21.3,6.4-52.4,6.4-52.4
	S16.6,105.3,2.3,88.1c-5-6.2-1.8-15.1,8.1-16.7c20.3-3.8,51.7-10,51.7-10s17.2-31.7,28.1-51.1c6-11.8,10.1-10.5,10.8-10.1
	c1.8,0.6,4.8,2.9,8.6,10.1c10.8,19.4,27.8,51.2,27.8,51.2s31.1,6.1,51.1,10C198.5,73.1,201.7,82,196.7,88.2L196.7,88.2z"/>
</svg>
