<?xml version="1.0" encoding="utf-8"?>
<!-- Generator: Adobe Illustrator 22.0.1, SVG Export Plug-In . SVG Version: 6.00 Build 0)  -->
<svg version="1.1" id="图层_1" xmlns="http://www.w3.org/2000/svg" xmlns:xlink="http://www.w3.org/1999/xlink" x="0px" y="0px"
	 viewBox="0 0 200 200" style="enable-background:new 0 0 200 200;" xml:space="preserve">
<style type="text/css">
	.st0{fill:#E4040E;}
</style>
<path class="st0" d="M72,54.4L96.3,3.6c2.3-4.8,6-4.8,8.3,0l23.7,51.1c2.7,5.2,7.6,9,13.3,10.3l53.6,8.5c5.1,0.8,6.2,4.5,2.5,8.3
	l-39.1,39.4c-4,4.5-5.9,10.5-5.2,16.5l8.8,56.1c0.8,5.3-2.2,7.6-6.7,5.1l-47.9-26.8c-5.2-2.6-11.3-2.6-16.6-0.1L43,198.2
	c-4.6,2.5-7.6,0.2-6.7-5.1l9.5-56c0.7-6-1.1-12-5-16.5l-38.6-40c-3.7-3.8-2.5-7.5,2.6-8.2l53.8-7.8C64.3,63.3,69.2,59.6,72,54.4z"/>
</svg>
