<?xml version="1.0" encoding="utf-8"?>
<!-- Generator: Adobe Illustrator 22.0.1, SVG Export Plug-In . SVG Version: 6.00 Build 0)  -->
<svg version="1.1" id="图层_1" xmlns="http://www.w3.org/2000/svg" xmlns:xlink="http://www.w3.org/1999/xlink" x="0px" y="0px"
	 viewBox="0 0 200 200" style="enable-background:new 0 0 200 200;" xml:space="preserve">
<style type="text/css">
	.st0{fill:#E4040E;}
</style>
<path class="st0" d="M100,0C44.8,0,0,44.8,0,100s44.8,100,100,100s100-44.8,100-100S155.2,0,100,0z M151.1,78.9l-58.7,58.8
	c-0.2,0.2-0.3,0.4-0.5,0.6c-3,3.2-8,3.3-11.1,0.4c-0.4-0.4-0.8-0.8-1.1-1.3l-30.2-30.2c-3.1-3.1-3.1-8.2,0-11.3
	c3.1-3.1,8.2-3.1,11.3,0l25.4,25.4l53.7-53.6c3.1-3.1,8.2-3.1,11.3,0C154.2,70.8,154.2,75.8,151.1,78.9L151.1,78.9L151.1,78.9z"/>
</svg>
