<?xml version="1.0" encoding="utf-8"?>
<!-- Generator: Adobe Illustrator 19.0.0, SVG Export Plug-In . SVG Version: 6.00 Build 0)  -->
<svg version="1.1" id="图层_1" xmlns="http://www.w3.org/2000/svg" xmlns:xlink="http://www.w3.org/1999/xlink" x="0px" y="0px"
	 viewBox="-379 181 200 200" style="enable-background:new -379 181 200 200;" xml:space="preserve">
<style type="text/css">
	.st0{fill:#0EE0E6;}
	.st1{fill:#FFFFFF;}
</style>
<path class="st0" d="M-280.6,193.7c-48.2,0-87.3,39.2-87.3,87.3c0,48.2,39.2,87.3,87.3,87.3c48.2,0,87.3-39.2,87.3-87.3
	C-193.2,232.9-232.4,193.7-280.6,193.7z M-226.3,256.7l-65.2,65.2c-1.6,1.6-4.1,1.6-5.7,0l-8.6-8.6l0,0l-28.3-28.3
	c-1.6-1.6-1.6-4.1,0-5.7l8.5-8.6c1.6-1.6,4.1-1.6,5.7,0l25.6,25.6l53.8-53.8c1.6-1.6,4.1-1.6,5.7,0l8.5,8.6
	C-224.8,252.6-224.8,255.1-226.3,256.7z"/>
<path class="st1" d="M-226.3,251.1l-8.5-8.6c-1.6-1.6-4.1-1.6-5.7,0l-53.8,53.8l-25.6-25.6c-1.6-1.6-4.1-1.6-5.7,0l-8.5,8.6
	c-1.6,1.6-1.6,4.1,0,5.7l28.3,28.3l8.6,8.6c1.6,1.6,4.1,1.6,5.7,0l65.2-65.2C-224.8,255.1-224.8,252.6-226.3,251.1z"/>
</svg>
