<?xml version="1.0" encoding="utf-8"?>
<!-- Generator: Adobe Illustrator 22.0.1, SVG Export Plug-In . SVG Version: 6.00 Build 0)  -->
<svg version="1.1" id="图层_1" xmlns="http://www.w3.org/2000/svg" xmlns:xlink="http://www.w3.org/1999/xlink" x="0px" y="0px"
	 viewBox="0 0 199.2 199.2" style="enable-background:new 0 0 199.2 199.2;" xml:space="preserve">
<style type="text/css">
	.st0{fill:#41B035;}
</style>
<path class="st0" d="M75.9,125.5c-11.9,7.2-13.7-4-13.7-4L47.3,83.6c-5.8-18,5-8.1,5-8.1s9.2,7.5,16.2,12.1c7,4.6,14.9,1.4,14.9,1.4
	l97.7-48.8C163.1,15.9,133.3,0,99.6,0C44.6,0,0,42.3,0,94.4c0,30,14.8,56.7,37.8,74l-4.1,25.8c0,0-2,7.5,5,4
	c4.8-2.4,16.9-10.9,24.2-16.1c11.8,4.4,24.2,6.7,36.8,6.7c55,0,99.6-42.3,99.6-94.4c0-15.1-3.8-29.4-10.4-42
	C157.7,72.7,85.3,119.8,75.9,125.5L75.9,125.5z"/>
</svg>
