<?xml version="1.0" encoding="utf-8"?>
<!-- Generator: Adobe Illustrator 21.0.0, SVG Export Plug-In . SVG Version: 6.00 Build 0)  -->
<svg version="1.1" id="图层_1" xmlns="http://www.w3.org/2000/svg" xmlns:xlink="http://www.w3.org/1999/xlink" x="0px" y="0px"
	 viewBox="0 0 200 200" style="enable-background:new 0 0 200 200;" xml:space="preserve">
<style type="text/css">
	.st0{fill:#999999;}
</style>
<path class="st0" d="M159.3,39.2c3.1-6.3,2.6-13-1.1-14.9l-47-23.8c-3.7-1.9-9.2,1.7-12.4,8.1L44.8,114l60.2,31.1L159.3,39.2z
	 M98.3,158.1L38.1,127l-0.2,0.5l10.3,55.3L98.3,158.1L98.3,158.1z M173.2,187.2H64.3c-1.8,0-3.2,1.4-3.2,3.2v6.4
	c0,1.8,1.4,3.2,3.2,3.2h108.9c1.8,0,3.2-1.4,3.2-3.2v-6.4C176.4,188.6,175,187.2,173.2,187.2z"/>
</svg>
