<?xml version="1.0" standalone="no"?><!DOCTYPE svg PUBLIC "-//W3C//DTD SVG 1.1//EN" "http://www.w3.org/Graphics/SVG/1.1/DTD/svg11.dtd"><svg t="1503037513863" class="icon" style="" viewBox="0 0 1024 1024" version="1.1" xmlns="http://www.w3.org/2000/svg" p-id="4907" xmlns:xlink="http://www.w3.org/1999/xlink" width="200" height="200"><defs><style type="text/css"></style></defs><path d="M512 552.448m-163.84 0a160 160 0 1 0 327.68 0 160 160 0 1 0-327.68 0Z" fill="#bfbfbf" p-id="4908"></path><path d="M358.4 67.3792l-92.16 107.8272L102.4 175.2064c-56.32 0-102.4 40.6528-102.4 96.9728l0 582.0416c0 56.32 46.08 102.4 102.4 102.4l819.2 0c56.32 0 102.4-46.08 102.4-102.4L1024 272.1792c0-56.32-46.08-96.9728-102.4-96.9728L757.76 175.2064 665.6 67.3792 358.4 67.3792zM512 808.448c-143.36 0-256-112.64-256-256s112.64-256 256-256 256 112.64 256 256S655.36 808.448 512 808.448z" fill="#bfbfbf" p-id="4909"></path></svg>