<?xml version="1.0" encoding="utf-8"?>
<!-- Generator: Adobe Illustrator 21.0.0, SVG Export Plug-In . SVG Version: 6.00 Build 0)  -->
<svg version="1.1" id="图层_1" xmlns="http://www.w3.org/2000/svg" xmlns:xlink="http://www.w3.org/1999/xlink" x="0px" y="0px"
	 viewBox="0 0 200 200" style="enable-background:new 0 0 200 200;" xml:space="preserve">
<style type="text/css">
	.st0{fill:#FFFFFF;}
</style>
<path class="st0" d="M100,0.9C45.3,0.9,0.9,45.3,0.9,100c0,54.7,44.5,99.1,99.1,99.1c54.7,0,99.1-44.5,99.1-99.1
	C199.1,45.3,154.7,0.9,100,0.9z M100,191.2c-50.3,0-91.2-40.9-91.2-91.2C8.8,49.7,49.7,8.8,100,8.8c50.3,0,91.2,40.9,91.2,91.2
	C191.2,150.3,150.3,191.2,100,191.2z"/>
<path class="st0" d="M135,139c-1.1,0-2.1-0.4-2.8-1.2L100,105.6l-32.1,32.2c-0.7,0.8-1.8,1.2-2.8,1.2c-1.1,0-2.1-0.4-2.8-1.2
	c-1.6-1.6-1.5-4.1,0-5.6L94.4,100L62.2,67.8C61.4,67.1,61,66.1,61,65c0-1.1,0.4-2.1,1.2-2.8c0.8-0.8,1.8-1.2,2.8-1.2
	c1.1,0,2.1,0.4,2.8,1.2L100,94.4l32.1-32.2c0.7-0.7,1.8-1.2,2.8-1.2c1.1,0,2.1,0.4,2.8,1.2c0.8,0.8,1.2,1.8,1.2,2.8
	c0,1.1-0.4,2.1-1.2,2.8L105.6,100l32.2,32.1c0.8,0.8,1.2,1.8,1.2,2.8s-0.4,2.1-1.2,2.8C137.1,138.6,136.1,139,135,139L135,139z"/>
</svg>
