<?xml version="1.0" encoding="utf-8"?>
<!-- Generator: Adobe Illustrator 21.0.0, SVG Export Plug-In . SVG Version: 6.00 Build 0)  -->
<svg version="1.1" id="图层_1" xmlns="http://www.w3.org/2000/svg" xmlns:xlink="http://www.w3.org/1999/xlink" x="0px" y="0px"
	 viewBox="0 0 200 200" style="enable-background:new 0 0 200 200;" xml:space="preserve">
<style type="text/css">
	.st0{fill:#999999;}
</style>
<path class="st0" d="M99.9,184.8c-2,0-3.9-1-5.1-2.6l-12.7-17.8c-40.6-7.2-69.9-37.8-69.9-73.6c0-41.5,39.4-75.2,87.7-75.2
	s87.7,33.7,87.7,75.2c0,35.8-29.2,66.4-69.9,73.6L105,182.2C103.8,183.8,101.9,184.8,99.9,184.8L99.9,184.8z M99.9,26.2
	c-41.5,0-77.2,30.1-77.2,64.7c0,30.4,27,57.3,62.9,62.6c1.7,0.3,3.2,1.2,4.2,2.6l10.1,13.8l10.1-13.8c1-1.4,2.5-2.3,4.2-2.6
	c35.9-5.4,62.9-32.2,62.9-62.6C177.1,56.3,141.4,26.2,99.9,26.2z M56.1,103.3c-6.9,0-12.5-5.6-12.5-12.5c0-6.9,5.6-12.5,12.5-12.5
	s12.5,5.6,12.5,12.5C68.6,97.7,63,103.3,56.1,103.3z M56.1,90.8C56.1,90.8,56.1,90.8,56.1,90.8v6.3C56.1,97.1,56.1,90.8,56.1,90.8z
	 M143.8,103.3c-6.9,0-12.5-5.6-12.5-12.5c0-6.9,5.6-12.5,12.5-12.5c6.9,0,12.5,5.6,12.5,12.5C156.3,97.7,150.7,103.3,143.8,103.3z
	 M143.8,90.8C143.8,90.8,143.8,90.8,143.8,90.8v6.3C143.8,97.1,143.8,90.8,143.8,90.8z M99.9,103.3c-6.9,0-12.5-5.6-12.5-12.5
	c0-6.9,5.6-12.5,12.5-12.5c6.9,0,12.5,5.6,12.5,12.5C112.4,97.7,106.8,103.3,99.9,103.3z M99.9,90.8v6.3
	C99.9,97.1,99.9,90.8,99.9,90.8z"/>
</svg>
