<?xml version="1.0" standalone="no"?><!DOCTYPE svg PUBLIC "-//W3C//DTD SVG 1.1//EN" "http://www.w3.org/Graphics/SVG/1.1/DTD/svg11.dtd"><svg t="1503451512809" class="icon" style="" viewBox="0 0 1024 1024" version="1.1" xmlns="http://www.w3.org/2000/svg" p-id="2047" xmlns:xlink="http://www.w3.org/1999/xlink" width="200" height="200"><defs><style type="text/css"></style></defs><path d="M923.020144 894.980531 99.201349 894.980531c-9.459442 0-14.233166-4.687766-14.233166-14.234189L84.968184 255.769244c0-9.459442 4.7727-14.233166 14.233166-14.233166l823.900659 0c9.368368 0 14.141068 4.773723 14.141068 14.233166l0 624.976074C937.2441 890.291742 932.4714 894.980531 923.020144 894.980531L923.020144 894.980531 923.020144 894.980531zM113.349581 866.599134l795.433304 0L908.782885 270.00241 113.349581 270.00241 113.349581 866.599134 113.349581 866.599134 113.349581 866.599134zM876.90792 671.25612 677.985382 472.420563c-7.073092-7.075139-14.233166-7.075139-21.308305 0L496.875534 633.92591l-74.575486-76.278267c-7.073092-7.075139-14.232143-7.075139-21.306258 0L145.30948 813.331953c-7.073092 7.073092-7.073092 14.232143 0 21.306258 4.774747 2.38635 8.353248 3.493567 10.654664 3.493567 2.38635 0 5.879917-1.193175 10.653641-3.578502l245.029646-246.820432 159.803589 161.591305c7.075139 7.075139 14.233166 7.075139 21.306258 0 7.075139-7.075139 7.075139-14.233166 0-21.306258l-76.363202-74.489528L667.331741 502.589676l188.183963 189.972703c4.771677 2.38635 8.266267 3.579525 10.653641 3.579525 2.38635 0 5.879917-1.193175 10.653641-3.579525C883.981013 685.489286 883.981013 678.329213 876.90792 671.25612L876.90792 671.25612 876.90792 671.25612zM866.25428 213.155704 155.964144 213.155704c-9.459442 0-14.148231-4.687766-14.148231-14.233166 0-9.461489 4.7727-14.233166 14.233166-14.233166l710.205201 0c9.460466 0 14.233166 4.771677 14.233166 14.233166C880.400464 208.467939 875.714745 213.155704 866.25428 213.155704L866.25428 213.155704 866.25428 213.155704zM809.407574 156.308998 212.81085 156.308998c-9.459442 0-14.233166-4.686742-14.233166-14.233166 0-9.374508 4.7727-14.148231 14.233166-14.148231l596.5957 0c9.459442 0 14.233166 4.7727 14.233166 14.233166C823.64074 151.621233 818.867016 156.308998 809.407574 156.308998L809.407574 156.308998 809.407574 156.308998zM344.233042 500.799914c-16.620539 16.619516-36.733623 24.88783-60.428278 24.88783-23.691585 0-43.805692-8.268314-60.340273-24.88783-16.533558-16.534582-24.885783-36.647665-24.885783-60.340273 0-23.694655 8.268314-43.807738 24.885783-60.34232 16.534582-16.534582 36.733623-24.885783 60.340273-24.885783 23.694655 0 43.807738 8.266267 60.343343 24.885783 16.533558 16.619516 24.88476 36.733623 24.88476 60.34232C369.032868 464.152249 360.7666 484.266355 344.233042 500.799914L344.233042 500.799914 344.233042 500.799914zM324.715523 399.548882c-10.738575-10.653641-24.289196-15.936971-40.910759-15.936971-16.533558 0-30.169113 5.28333-40.822754 15.936971-10.652618 10.654664-15.937994 24.291243-15.937994 40.910759 0 16.618493 5.285377 30.169113 15.937994 40.822754 10.653641 10.654664 24.289196 16.022928 40.822754 16.022928 16.535605 0 30.17116-5.368264 40.825824-16.022928 10.738575-10.653641 16.022928-24.204262 16.022928-40.822754C340.653517 423.840124 335.36814 410.203546 324.715523 399.548882L324.715523 399.548882 324.715523 399.548882z" p-id="2048"></path></svg>