<?xml version="1.0" encoding="utf-8"?>
<!-- Generator: Adobe Illustrator 21.0.0, SVG Export Plug-In . SVG Version: 6.00 Build 0)  -->
<svg version="1.1" id="图层_1" xmlns="http://www.w3.org/2000/svg" xmlns:xlink="http://www.w3.org/1999/xlink" x="0px" y="0px"
	 viewBox="0 0 130.3 195.3" style="enable-background:new 0 0 130.3 195.3;" xml:space="preserve">
<style type="text/css">
	.st0{fill:#666666;}
</style>
<path class="st0" d="M114,0H16.3C7.4,0,0.1,7.3,0.1,16.3V179c0,9,7.3,16.3,16.3,16.3H114c9,0,16.3-7.3,16.3-16.3V16.3
	C130.3,7.3,123,0,114,0z M10.9,16.3c0-3,2.4-5.4,5.4-5.4H114c3,0,5.4,2.4,5.4,5.4v124.8H10.9V16.3z M119.4,179c0,3-2.4,5.4-5.4,5.4
	H16.3c-3,0-5.4-2.4-5.4-5.4v-27.1h108.5V179z"/>
<path class="st0" d="M54.3,168.2c0,6,4.9,10.9,10.8,10.9S76,174.2,76,168.2c0,0,0,0,0,0c0-6-4.9-10.9-10.8-10.9
	C59.2,157.3,54.3,162.2,54.3,168.2C54.3,168.2,54.3,168.2,54.3,168.2z"/>
</svg>
