<?xml version="1.0" standalone="no"?><!DOCTYPE svg PUBLIC "-//W3C//DTD SVG 1.1//EN" "http://www.w3.org/Graphics/SVG/1.1/DTD/svg11.dtd"><svg t="1503288809235" class="icon" style="" viewBox="0 0 1102 1024" version="1.1" xmlns="http://www.w3.org/2000/svg" p-id="2873" xmlns:xlink="http://www.w3.org/1999/xlink" width="215.234375" height="200"><defs><style type="text/css"></style></defs><path d="M1092.859002 941.813449c0-2.221258-17.770065-193.249458-46.646421-388.720174-17.770065-115.505423-35.54013-211.019523-55.531453-284.321041-33.318872-128.832972-64.416486-159.930586-82.186551-173.258134-42.203905-26.655098-128.832972-66.637744-166.59436-84.407809 0-2.221258 0-2.221258 0-2.221258l-4.442516 0c-6.663774-4.442516-13.327549-6.663774-13.327549-6.663774l-6.663774-2.221258L708.581345 2.221258c0 0-108.841649 19.991323-162.151844 19.991323-53.310195 0-162.151844-19.991323-162.151844-19.991323l-6.663774-2.221258-6.663774 2.221258c0 0-6.663774 2.221258-13.327549 6.663774l-4.442516 0c0 0 0 2.221258 0 2.221258C315.418655 28.876356 228.789588 68.859002 186.585683 95.5141 155.488069 117.726681 104.399132 186.585683 48.867679 550.872017c-31.097614 197.691974-46.646421 388.720174-46.646421 388.720174l-2.221258 15.548807 13.327549 6.663774c2.221258 0 48.867679 24.433839 104.399132 24.433839 17.770065 0 35.54013-2.221258 51.088937-6.663774l13.327549-4.442516 2.221258-15.548807C206.577007 804.095445 242.117137 575.305857 270.993492 459.800434c4.442516 42.203905 4.442516 102.177874-2.221258 186.585683-8.885033 117.726681-28.876356 246.559653-48.867679 322.08243l-4.442516 19.991323 19.991323 6.663774c2.221258 2.221258 82.186551 28.876356 315.418655 28.876356 233.232104 0 310.976139-28.876356 315.418655-28.876356l19.991323-6.663774-4.442516-19.991323c-19.991323-75.522777-39.982646-204.355748-48.867679-322.08243-6.663774-84.407809-6.663774-144.381779-2.221258-186.585683 28.876356 115.505423 64.416486 346.516269 86.629067 504.225597l2.221258 15.548807 13.327549 4.442516c15.548807 4.442516 33.318872 6.663774 51.088937 6.663774 55.531453 0 102.177874-24.433839 104.399132-24.433839l13.327549-6.663774L1092.859002 941.813449zM695.253796 51.088937c-2.221258 53.310195-11.106291 146.603037-59.97397 197.691974-22.212581 24.433839-53.310195 37.761388-88.850325 37.761388-37.761388 0-66.637744-11.106291-88.850325-37.761388C408.711497 197.691974 399.826464 104.399132 397.605206 51.088937c35.54013 6.663774 106.62039 17.770065 148.824295 17.770065C590.854664 68.859002 659.713666 57.752711 695.253796 51.088937L695.253796 51.088937zM977.353579 944.034707c-8.885033 0-15.548807 0-24.433839-2.221258-4.442516-37.761388-19.991323-142.160521-37.761388-248.780911-44.425163-277.657267-66.637744-313.197397-75.522777-324.303688l-17.770065-28.876356-19.991323 28.876356c-26.655098 35.54013-33.318872 131.05423-22.212581 282.099783 8.885033 108.841649 26.655098 228.789588 44.425163 306.533623-42.203905 8.885033-133.275488 19.991323-279.878525 19.991323-146.603037 0-237.67462-11.106291-279.878525-19.991323 19.991323-79.965293 37.761388-197.691974 44.425163-306.533623 11.106291-151.045553 4.442516-246.559653-22.212581-282.099783l-19.991323-28.876356-17.770065 28.876356c-6.663774 11.106291-28.876356 46.646421-75.522777 324.303688-17.770065 106.62039-31.097614 211.019523-37.761388 248.780911-6.663774 2.221258-15.548807 2.221258-24.433839 2.221258-28.876356 0-53.310195-8.885033-68.859002-13.327549 4.442516-48.867679 19.991323-208.798265 44.425163-370.950108C146.603037 208.798265 193.249458 144.381779 211.019523 133.275488 244.338395 113.284165 310.976139 82.186551 353.180043 62.195228c2.221258 59.97397 15.548807 157.709328 71.08026 217.683297 31.097614 33.318872 73.301518 51.088937 122.169197 51.088937 48.867679 0 91.071584-17.770065 122.169197-51.088937 55.531453-59.97397 68.859002-157.709328 71.08026-217.683297 42.203905 19.991323 108.841649 51.088937 142.160521 71.08026 17.770065 11.106291 64.416486 75.522777 117.726681 424.260304 24.433839 162.151844 39.982646 319.861171 44.425163 370.950108C1030.663774 935.149675 1004.008677 944.034707 977.353579 944.034707L977.353579 944.034707zM977.353579 944.034707" p-id="2874"></path></svg>