<?xml version="1.0" encoding="utf-8"?>
<!-- Generator: Adobe Illustrator 21.0.0, SVG Export Plug-In . SVG Version: 6.00 Build 0)  -->
<svg version="1.1" id="图层_1" xmlns="http://www.w3.org/2000/svg" xmlns:xlink="http://www.w3.org/1999/xlink" x="0px" y="0px"
	 viewBox="0 0 183.4 103.6" style="enable-background:new 0 0 183.4 103.6;" xml:space="preserve">
<path d="M183.4,94.2c0,2.7-1,4.9-3.1,6.7c-2.1,1.8-5.1,2.7-9.1,2.7H11.8c-3.9,0-6.8-0.9-8.8-2.7s-3-4-3-6.7c0-2.7,1.1-4.9,3.2-6.7
	c2.1-1.8,5.1-2.7,9-2.7h159c4,0,7,0.9,9.1,2.7C182.4,89.3,183.4,91.5,183.4,94.2L183.4,94.2z M91.8,0c2.8,0,5.8,0.1,9,0.2
	c3.2,0.1,6.6,0.7,10.2,1.7c3.6,1,7.4,2.5,11.3,4.6s8,5,12.3,8.9c4.9,4.5,8.5,10.1,10.6,16.7c2.1,6.6,3.5,13,4.2,19.1
	c0.7,7.3,0.6,14.8-0.2,22.4H34.4c-0.8-6.4-0.9-12.9-0.4-19.4c0.4-5.6,1.5-11.6,3.2-18s4.7-12.3,9-17.8c5.2-6.5,11.9-11.3,20.1-14.2
	C74.5,1.3,83-0.1,91.8,0L91.8,0z"/>
</svg>
