<?xml version="1.0" encoding="utf-8"?>
<!-- Generator: Adobe Illustrator 21.0.0, SVG Export Plug-In . SVG Version: 6.00 Build 0)  -->
<svg version="1.1" id="图层_1" xmlns="http://www.w3.org/2000/svg" xmlns:xlink="http://www.w3.org/1999/xlink" x="0px" y="0px"
	 viewBox="0 0 147.6 200" style="enable-background:new 0 0 147.6 200;" xml:space="preserve">
<path d="M142.9,166.7c-2.4,0-19,0-19,0v21.4v2.4v2.4c0,3.8-3.3,7.1-7.1,7.1H31c-3.8,0-7.1-3.3-7.1-7.1v-2.4v-2.4v-21.4
	c0,0-17.6,0-19,0S0,165.2,0,161.9c0-3.3,4.8-115.7,4.8-119s7.6-14.3,14.3-19s19-9.5,19-9.5L57.1,0h33.3l19,14.3c0,0,13.8,5.2,19,9.5
	c5.2,4.3,14.3,19,14.3,19s4.8,115.7,4.8,119S145.2,166.7,142.9,166.7z M38.1,24.8c-2.9,0.5-6.2,1.9-9.5,3.8
	C21.4,32.9,14.3,41,14.3,42.9S9.5,150,9.5,152.4c0,2.4,1.9,4.8,4.8,4.8s9.5,0,9.5,0s0-65.7,0-71.4s9.5-4.8,9.5,0c0,4.8,0,96.7,0,100
	s1.4,4.8,4.8,4.8c1,0,9,0,19,0v-85.7l9.5-19L38.1,57.1l9.5-14.3l-9.5-4.8V24.8z M52.4,14.3L47.6,19l0,0v14.3l9.5,9.5l-9.5,14.3
	l23.8,19l-4.8-19L52.4,14.3z M59,9.5l12.4,33.3h4.8L88.6,9.5H59z M100,17.1c-1.9-1.4-3.8-2.9-5.7-4.3l1,1.4l-19,42.9V81L100,57.1
	l-9.5-14.3l0-4.8l9.5-4.8V17.1z M133.3,42.9c-1.9-10.5-22.4-19-23.8-19v9.5l-9.5,9.5l9.5,9.5v4.8l-42.9,47.6v85.7c19,0,41,0,42.9,0
	c2.9,0,4.8-1,4.8-4.8s0-94.8,0-100s9.5-4.8,9.5,0c0,4.8,0,71.4,0,71.4s8.1,0,9.5,0c1.4,0,4.8,0,4.8-4.8
	C138.1,147.6,135.2,53.3,133.3,42.9z M76.2,171.4c-2.9,0-4.8-1.9-4.8-4.8s1.9-4.8,4.8-4.8c2.9,0,4.8,1.9,4.8,4.8
	C81,169.5,79,171.4,76.2,171.4z M76.2,147.6c-2.9,0-4.8-1.9-4.8-4.8s1.9-4.8,4.8-4.8c2.9,0,4.8,1.9,4.8,4.8
	C81,145.7,79,147.6,76.2,147.6z M76.2,123.8c-2.9,0-4.8-1.9-4.8-4.8c0-2.9,1.9-4.8,4.8-4.8c2.9,0,4.8,1.9,4.8,4.8
	C81,121.9,79,123.8,76.2,123.8z"/>
</svg>
