<?xml version="1.0" encoding="utf-8"?>
<!-- Generator: Adobe Illustrator 21.0.0, SVG Export Plug-In . SVG Version: 6.00 Build 0)  -->
<svg version="1.1" id="图层_1" xmlns="http://www.w3.org/2000/svg" xmlns:xlink="http://www.w3.org/1999/xlink" x="0px" y="0px"
	 viewBox="0 0 174.5 128.2" style="enable-background:new 0 0 174.5 128.2;" xml:space="preserve">
<style type="text/css">
	.st0{fill:#080103;}
</style>
<path class="st0" d="M174.5,122.3c0,0.1,0,0.2,0,0.3c0,0.1,0,0.3,0,0.4c0.1,2.9-1.8,4.7-4.7,5.2c-1.4,0.2-1.4,0.2-4,0.1l-69.6,0.1
	l-0.1-38.2c0-4.2-3.5-4.4-6.3-4.4h-5.1c-2.8,0-6.3,0.3-6.3,4.5v38.1l-72.8-0.1c-0.2,0-0.5,0-0.7,0c-0.2,0-0.3-0.1-0.5-0.1
	c-0.2,0-0.3-0.1-0.5-0.2c-0.4-0.1-0.7-0.3-1-0.4c-0.4-0.2-0.7-0.4-1-0.7c-0.2-0.2-0.4-0.4-0.6-0.6c-0.3-0.3-0.5-0.7-0.7-1
	c-0.1-0.3-0.3-0.5-0.4-0.8c-0.2-0.4-0.3-0.9-0.3-1.4c0-0.1,0-0.3,0-0.4c0-0.1,0-0.2,0-0.3c0-0.3,0-0.5,0.1-0.8L19.1,6.3
	c0-0.2,0.1-0.4,0.1-0.6c0-2.7,1.7-4.8,4.2-5.4c0.2-0.1,0.4-0.1,0.6-0.1c0.3,0,0.5-0.1,0.7-0.1h121.4c0.3,0,0.6,0,0.9,0.1
	c0.1,0,0.4,0,0.6,0.1c2.5,0.6,3.9,2.8,4.1,5.5c0,0.2,0.1,0.3,0.1,0.5L174.5,122C174.5,122.1,174.5,122.2,174.5,122.3z M29,10.1
	l-2.2,12.6h117.9l-2.5-12.6H29z M147,33L25.3,33.5l-14.8,84.2l58,0.4L68.3,83c0-4.2,3.4-7.5,7.6-7.5h22.8c4.2,0,7.6,3.4,7.6,7.5
	l0.1,35.1h57C163.3,118.1,147,33,147,33z"/>
</svg>
