<?xml version="1.0" encoding="utf-8"?>
<!-- Generator: Adobe Illustrator 21.0.0, SVG Export Plug-In . SVG Version: 6.00 Build 0)  -->
<svg version="1.1" id="图层_1" xmlns="http://www.w3.org/2000/svg" xmlns:xlink="http://www.w3.org/1999/xlink" x="0px" y="0px"
	 viewBox="0 0 185.4 153.3" style="enable-background:new 0 0 185.4 153.3;" xml:space="preserve">
<style type="text/css">
	.st0{fill:#FFFFFF;}
</style>
<path class="st0" d="M94.7,0C21.3,0,0,69.3,0,76c0,26.7,38.7,77.3,90.7,77.3c61.3,0,94.7-60,94.7-77.3C186.7,54.7,148,0,94.7,0z
	 M93.3,113.3c-20,0-37.3-16-37.3-36S73.3,40,93.3,40c11.5,0,22,5.3,29,13.8c-2.5-1.9-5.6-3.1-9-3.1c-8.1,0-14.7,6.6-14.7,14.7
	S105.2,80,113.3,80S128,73.4,128,65.3c0-0.9-0.1-1.7-0.2-2.5c1.9,4.4,2.9,9.3,2.9,14.5C130.7,98.7,113.3,113.3,93.3,113.3z"/>
</svg>
