<?xml version="1.0" encoding="utf-8"?>
<!-- Generator: Adobe Illustrator 21.0.0, SVG Export Plug-In . SVG Version: 6.00 Build 0)  -->
<svg version="1.1" id="图层_1" xmlns="http://www.w3.org/2000/svg" xmlns:xlink="http://www.w3.org/1999/xlink" x="0px" y="0px"
	 viewBox="0 0 185.4 153.3" style="enable-background:new 0 0 185.4 153.3;" xml:space="preserve">
<style type="text/css">
	.st0{fill:#666666;}
</style>
<path class="st0" d="M94.6,0C21.3,0,0,69.3,0,76c0,26.7,38.7,77.3,90.7,77.3c61.3,0,94.7-60,94.7-77.3C186.6,54.6,148,0,94.6,0z
	 M93.3,113.3c-20,0-37.3-16-37.3-36S73.3,40,93.3,40c11.4,0,21.9,5.2,28.8,13.6c-2.5-1.9-5.5-3-8.8-3c-8.1,0-14.7,6.6-14.7,14.7
	S105.2,80,113.3,80c8.1,0,14.7-6.6,14.7-14.7c0-0.8-0.1-1.5-0.2-2.3c1.8,4.4,2.8,9.1,2.8,14.3C130.6,98.6,113.3,113.3,93.3,113.3z"
	/>
</svg>
