<?xml version="1.0" encoding="utf-8"?>
<!-- Generator: Adobe Illustrator 21.0.0, SVG Export Plug-In . SVG Version: 6.00 Build 0)  -->
<svg version="1.1" id="图层_1" xmlns="http://www.w3.org/2000/svg" xmlns:xlink="http://www.w3.org/1999/xlink" x="0px" y="0px"
	 viewBox="0 0 211.3 200" style="enable-background:new 0 0 211.3 200;" xml:space="preserve">
<style type="text/css">
	.st0{fill:#666666;}
</style>
<path class="st0" d="M204.7,91.7L118.5,5.5c-7.1-7.1-18.6-7.1-25.7,0L6.6,91.7c-7.1,7.1-9,21.3,0,25.7c5,2.4,10.8,4.6,17.3,6.4v53.9
	c0,11.9,7.7,21.5,17.1,21.5h78.3v-0.2h0v-25.3c0-14.3,7.3-25.9,16.4-25.9c9,0,16.4,11.6,16.4,25.9v25.3h0v0.2h18.2
	c9.5,0,17.1-9.6,17.1-21.5v-54.6c6.4-1.7,12.2-3.6,17.3-5.7C213.9,113.5,211.7,98.8,204.7,91.7L204.7,91.7z"/>
</svg>
