<?xml version="1.0" encoding="utf-8"?>
<!-- Generator: Adobe Illustrator 21.0.0, SVG Export Plug-In . SVG Version: 6.00 Build 0)  -->
<svg version="1.1" id="图层_1" xmlns="http://www.w3.org/2000/svg" xmlns:xlink="http://www.w3.org/1999/xlink" x="0px" y="0px"
	 viewBox="0 0 138.1 186.7" style="enable-background:new 0 0 138.1 186.7;" xml:space="preserve">
<style type="text/css">
	.st0{fill:#FFFFFF;}
</style>
<path class="st0" d="M69,138.1c-38.1,0-69-31-69-69S31,0,69,0s69,31,69,69S107.1,138.1,69,138.1z M96.9,70.1c0-2.4-1.9-4.3-4.3-4.3
	c-2.4,0-4.3,1.9-4.3,4.3c0,6.7-8.8,12.4-19.3,12.4s-19.3-5.7-19.3-12.4c0-2.4-1.9-4.3-4.3-4.3s-4.3,1.9-4.3,4.3
	C41.2,81.8,53.4,91,69,91S96.9,81.8,96.9,70.1L96.9,70.1z"/>
<path class="st0" d="M103.6,138.5c-10.4,5.4-22.1,8.5-34.6,8.5c-13,0-25.2-3.3-35.9-9.2l-20.9,27.5c-5.3,7-4.1,12.2-2.9,14.7
	c1.2,2.5,4.6,6.6,13.4,6.6h92.7c8.9,0,12.2-4.1,13.3-6.6c1.2-2.4,2.3-7.6-3.3-14.5L103.6,138.5z"/>
</svg>
