<?xml version="1.0" encoding="utf-8"?>
<!-- Generator: Adobe Illustrator 21.0.0, SVG Export Plug-In . SVG Version: 6.00 Build 0)  -->
<svg version="1.1" id="图层_1" xmlns="http://www.w3.org/2000/svg" xmlns:xlink="http://www.w3.org/1999/xlink" x="0px" y="0px"
	 viewBox="0 0 63.5 45.3" style="enable-background:new 0 0 63.5 45.3;" xml:space="preserve">
<style type="text/css">
	.st0{fill:#1A1A1A;}
</style>
<path class="st0" d="M62.8,43.4c-0.1,0-12-4.6-20.1-8.4C39.4,33.6,20.5,13.5,8.5,0.3C8.2,0,7.7-0.1,7.3,0.1C7.2,0.2-4,6.4,1.5,16.8
	c1.2,2.3,2.2,4.4,3,6.2c1.3,3.1,2.3,6.3,2.9,9.6c0.8,4.4,2,11,2.4,12.1h0.1c0.2-0.7,0.8-4.1,1.1-5.5c0-0.4,0.1-0.8,0.1-1.3
	c-0.1-2.6-0.6-5.2-1-7.1c-0.2-1.2,0-2.4,0.7-3.3c1.5-2,3.7-4.3,5.8-4.4c1.4-0.1,2.6,0.7,3.8,2.4c5.8,8.2,11.1,19,11.1,19.1
	c0.2,0.3,0.5,0.6,0.9,0.6h30c0.5,0,0.9-0.3,1-0.8S63.3,43.6,62.8,43.4z"/>
</svg>
