<?xml version="1.0" encoding="utf-8"?>
<!-- Generator: Adobe Illustrator 21.0.0, SVG Export Plug-In . SVG Version: 6.00 Build 0)  -->
<svg version="1.1" id="图层_1" xmlns="http://www.w3.org/2000/svg" xmlns:xlink="http://www.w3.org/1999/xlink" x="0px" y="0px"
	 viewBox="0 0 43.5 42.6" style="enable-background:new 0 0 43.5 42.6;" xml:space="preserve">
<g id="XMLID_34_">
	<path d="M25.8,30.2h-6.7c-1.8,0-3.2-1.4-3.2-3.2s1.4-3.2,3.2-3.2h6.7c1.8,0,3.2,1.4,3.2,3.2S27.6,30.2,25.8,30.2z M19.1,25.8
		c-0.7,0-1.2,0.5-1.2,1.2s0.5,1.2,1.2,1.2h6.7c0.7,0,1.2-0.5,1.2-1.2s-0.5-1.2-1.2-1.2H19.1z"/>
</g>
<path d="M42.7,13.2c-0.6-0.6-1.4-1-2.3-1h-5.8C34.3,5.4,28.7,0,21.8,0C14.9,0,9.3,5.4,9,12.3H3c-0.8,0-1.6,0.4-2.2,1
	c-0.6,0.6-0.8,1.4-0.7,2.3l2.4,23.8c0.2,1.9,1.8,3.4,3.7,3.4h31.7c1.9,0,3.4-1.5,3.6-3.3l2-23.7C43.5,14.7,43.3,13.9,42.7,13.2z
	 M21.8,2c5.8,0,10.5,4.5,10.8,10.3H11C11.3,6.5,16,2,21.8,2z M39.5,39.1c-0.1,0.8-0.8,1.5-1.6,1.5H6.1c-0.9,0-1.6-0.7-1.7-1.6
	L2,15.3c0-0.3,0.1-0.5,0.2-0.7c0.2-0.2,0.4-0.3,0.7-0.3H9l0,0l24.5,0h6.8c0.3,0,0.6,0.1,0.8,0.4c0.2,0.2,0.3,0.5,0.3,0.8L39.5,39.1z
	"/>
</svg>
