<?xml version="1.0" encoding="utf-8"?>
<!-- Generator: Adobe Illustrator 21.0.0, SVG Export Plug-In . SVG Version: 6.00 Build 0)  -->
<svg version="1.1" id="图层_1" xmlns="http://www.w3.org/2000/svg" xmlns:xlink="http://www.w3.org/1999/xlink" x="0px" y="0px"
	 viewBox="0 0 62.7 44.8" style="enable-background:new 0 0 62.7 44.8;" xml:space="preserve">
<path d="M62.1,42.9c-0.1,0-11.8-4.5-19.8-8.3c-3.3-1.4-22-21.2-33.8-34.3C8.1,0,7.6-0.1,7.2,0.1C7.1,0.2-4,6.3,1.5,16.6
	c1.8,3.4,3,5.9,3.9,7.9c1,2.2,1.7,4.4,2.1,6.8c0.7,4,1.9,10.5,2.4,12.4c0,0.1,0.2,0.1,0.3,0l0.9-4.3c0.2-1.2,0.3-1.9,0.2-2.7
	c-0.2-2.4-0.6-4.8-1-6.5c-0.3-1.2,0-2.4,0.8-3.4c1.4-1.9,3.4-3.8,5.4-3.9c1.3-0.1,2.6,0.7,3.8,2.4c5.8,8.1,10.9,18.8,11,18.9
	c0.2,0.3,0.5,0.6,0.9,0.6h29.7c0.5,0,0.9-0.3,1-0.8S62.5,43.1,62.1,42.9z"/>
</svg>
