<?xml version="1.0" encoding="utf-8"?>
<!-- Generator: Adobe Illustrator 21.0.0, SVG Export Plug-In . SVG Version: 6.00 Build 0)  -->
<svg version="1.1" id="图层_1" xmlns="http://www.w3.org/2000/svg" xmlns:xlink="http://www.w3.org/1999/xlink" x="0px" y="0px"
	 viewBox="0 0 45.8 32.9" style="enable-background:new 0 0 45.8 32.9;" xml:space="preserve">
<path d="M45.2,31c-0.1,0-8.5-3.3-14.3-6C28.6,24,14.7,9.4,6.6,0.3C6.3,0,5.8-0.1,5.4,0.1C2.5,1.7-2.1,6.3,1.1,12.4
	c2.5,4.7,3.5,7.3,3.9,8.4c0.2,1.3,2,11.1,2.2,11.5l0.9-4.5c-0.1-2.4-0.6-4.9-0.9-6.3c0.8-1.4,2.9-4.3,4.9-4.4
	c0.9-0.1,1.7,0.5,2.5,1.6c4.2,5.9,7.9,13.5,7.9,13.6c0.2,0.3,0.5,0.6,0.9,0.6h21.4c0.5,0,0.9-0.3,1-0.8C45.9,31.6,45.6,31.2,45.2,31
	z M24,30.9c-1-1.9-4.2-8.3-7.8-13.3C15,15.9,13.6,15,12,15.1c-2.3,0.1-4.3,2.3-5.5,3.9c-0.6-1.5-1.7-3.9-3.6-7.6
	C0.3,6.6,4.1,3.4,5.7,2.3c3.9,4.3,21.1,23.2,24.4,24.5c3,1.4,6.6,2.9,9.5,4.1H24z"/>
</svg>
