<?xml version="1.0" encoding="utf-8"?>
<!-- Generator: Adobe Illustrator 21.0.0, SVG Export Plug-In . SVG Version: 6.00 Build 0)  -->
<svg version="1.1" id="图层_1" xmlns="http://www.w3.org/2000/svg" xmlns:xlink="http://www.w3.org/1999/xlink" x="0px" y="0px"
	 viewBox="0 0 74.8 64.8" style="enable-background:new 0 0 74.8 64.8;" xml:space="preserve">
<style type="text/css">
	.st0{fill:#1A1A1A;}
</style>
<path class="st0" d="M72.5,49.6c-3.4-7.8-7-27.3-7-38c0-3.9-1.1-6.9-3.3-8.9c-3-3-7.2-2.7-7.4-2.7c-0.1,0-0.1,0-0.2,0l-0.8,0.1
	c-0.5,0.1-0.9,0.4-1.1,0.9c-2.5,6.3-8.3,10.3-15.1,10.3c-6.9,0-12.9-4.1-15.4-10.3C22,0.5,21.6,0.2,21,0.1L20.2,0h-0.1
	c-0.2,0-4.4-0.3-7.5,2.7c-2.2,2-3.3,5-3.3,8.9c0,10.7-3.6,30.2-7,38c-2.6,6-3,10.9-1.1,13.4c0.9,1.2,2.4,1.8,4,1.6
	C9.5,64,14,60.9,15,58.5c0.5-1.1,0.4-3.5,0-9.4c-0.3-4.5-0.5-9.5-0.2-11.8c0.5-3.4,2.6-10.7,3.7-14.5c2.3,7.2,4.2,13.9,3.8,15.3
	c0,0.1,0,0.3,0,0.4c0,0.8,0.1,2.1,0.2,3.7c0.3,4.1,0.9,14.8-0.2,16.5c-0.5,0.7-0.5,1.5-0.1,2.3c0.5,0.9,1.5,2.7,15.3,2.5
	c13.7,0.2,14.7-1.6,15.1-2.5c0.4-0.7,0.3-1.5-0.2-2.3c-0.4-0.7-1.4-4-1.1-19.8v-0.4c0-0.1,0-0.3,0-0.4c-0.3-1.4,1.1-7.9,3.1-15.1
	c1.4,3.8,4,11,4.5,14.2c0.4,2.3,0.3,7.2,0.2,11.5c-0.1,6.1-0.1,8.7,0.4,9.8c1.1,2.6,6,5.5,10,6.1c0.2,0,0.5,0,0.7,0
	c1.4,0,2.6-0.6,3.4-1.7C75.5,60.5,75.1,55.5,72.5,49.6z"/>
</svg>
