<?xml version="1.0" encoding="utf-8"?>
<!-- Generator: Adobe Illustrator 21.0.0, SVG Export Plug-In . SVG Version: 6.00 Build 0)  -->
<svg version="1.1" id="图层_1" xmlns="http://www.w3.org/2000/svg" xmlns:xlink="http://www.w3.org/1999/xlink" x="0px" y="0px"
	 viewBox="0 0 66.5 41.4" style="enable-background:new 0 0 66.5 41.4;" xml:space="preserve">
<style type="text/css">
	.st0{fill:#1A1A1A;}
</style>
<path class="st0" d="M66,32.4c-3.8-2.3-7.3-10.9-8.3-13.4c-0.1-0.3-0.2-0.6-0.1-0.9L59.1,1c0-0.6-0.4-1-0.9-1.1
	c-0.6-0.1-1,0.4-1.1,0.9l-1.4,15.9c0,0.6-0.4,1-1,1.2C39.8,23.1,37.4,31,37,33.9c0,0.1-0.1,0.2-0.3,0.2h-7.2c-0.1,0-0.2-0.1-0.2-0.2
	C29,31.2,26.7,23.2,11.5,18c-0.4-0.1-0.7-0.5-0.7-0.9L9.4,0.9c0-0.6-0.5-1-1.1-0.9c-0.6,0-1,0.5-0.9,1.1L8.9,18c0,0.4,0,0.8-0.2,1.2
	c-1,2.6-4.5,11-8.2,13.2C0.1,32.6-0.1,33,0,33.5l1.3,6c0.1,0.5,0.5,0.8,1,0.8h0.1l8.8-0.8c0.1,0,0.1,0,0.2-0.1
	c1.4,0.9,3,1.6,4.8,1.9c0.6,0.1,1.2,0.1,1.7,0.1c3.5,0,7.1-1.7,10.5-5.1c0.1-0.1,0.2-0.1,0.3-0.1h8.9c0.1,0,0.2,0,0.3,0.1
	c3.5,3.4,7,5.1,10.6,5.1c0.6,0,1.2,0,1.7-0.1c1.8-0.3,3.4-1,4.8-1.9c0.1,0,0.1,0.1,0.2,0.1l8.8,0.8h0.1c0.5,0,0.9-0.3,1-0.8l1.3-6
	C66.5,33,66.3,32.6,66,32.4z M8.9,37.7l-5.7,0.5c-0.1,0-0.1,0-0.1-0.1l-1-4.3v-0.1c0.7-0.5,1.3-1.1,1.9-1.9c0-0.1,0.1-0.1,0.2,0
	C5.1,33.3,6.7,35.6,8.9,37.7C9,37.6,9,37.7,8.9,37.7z M63.4,38.1C63.4,38.2,63.3,38.2,63.4,38.1l-5.9-0.4c0,0,0,0,0-0.1
	c2.2-2,3.9-4.4,4.8-5.8h0.1c0.6,0.7,1.3,1.4,1.9,1.9l0.1,0.1L63.4,38.1z"/>
</svg>
