<?xml version="1.0" encoding="utf-8"?>
<!-- Generator: Adobe Illustrator 21.0.0, SVG Export Plug-In . SVG Version: 6.00 Build 0)  -->
<svg version="1.1" id="图层_1" xmlns="http://www.w3.org/2000/svg" xmlns:xlink="http://www.w3.org/1999/xlink" x="0px" y="0px"
	 viewBox="0 0 43.5 42.6" style="enable-background:new 0 0 43.5 42.6;" xml:space="preserve">
<style type="text/css">
	.st0{fill:#1A1A1A;}
</style>
<g>
	<path class="st0" d="M42.7,13.2c-0.6-0.6-1.4-1-2.3-1h-5.8C34.3,5.4,28.7,0,21.8,0S9.3,5.4,9,12.3H3c-0.8,0-1.6,0.4-2.2,1
		S0,14.7,0.1,15.6l2.4,23.8c0.2,1.9,1.8,3.4,3.7,3.4h31.7c1.9,0,3.4-1.5,3.6-3.3l2-23.7C43.5,14.7,43.3,13.9,42.7,13.2z M25.8,30.2
		h-6.7c-1.8,0-3.2-1.4-3.2-3.2s1.4-3.2,3.2-3.2h6.7c1.8,0,3.2,1.4,3.2,3.2S27.6,30.2,25.8,30.2z M11,12.3C11.3,6.5,16,2,21.8,2
		s10.5,4.5,10.8,10.3H11z"/>
	<path class="st0" d="M25.8,25.8h-6.7c-0.7,0-1.2,0.5-1.2,1.2s0.5,1.2,1.2,1.2h6.7c0.7,0,1.2-0.5,1.2-1.2S26.4,25.8,25.8,25.8z"/>
</g>
</svg>
