<?xml version="1.0" encoding="utf-8"?>
<!-- Generator: Adobe Illustrator 21.0.0, SVG Export Plug-In . SVG Version: 6.00 Build 0)  -->
<svg version="1.1" id="图层_1" xmlns="http://www.w3.org/2000/svg" xmlns:xlink="http://www.w3.org/1999/xlink" x="0px" y="0px"
	 viewBox="0 0 74.8 64.8" style="enable-background:new 0 0 74.8 64.8;" xml:space="preserve">
<g id="XMLID_4_">
	<path d="M70.2,64.7c-0.2,0-0.5,0-0.7,0c-4-0.5-8.9-3.5-10-6.1c-0.5-1.1-0.5-3.7-0.4-9.8c0.1-4.3,0.1-9.2-0.2-11.5
		C58.3,34,55.8,26.8,54.4,23c-1.9,7.2-3.4,13.7-3.1,15.1c0,0.1,0,0.3,0,0.4l0,0.4C51,54.7,52,58,52.5,58.7c0.5,0.7,0.5,1.6,0.2,2.3
		c-0.5,0.9-1.4,2.7-15.1,2.5c-13.8,0.2-14.8-1.6-15.3-2.5c-0.4-0.7-0.3-1.5,0.1-2.3c1.1-1.7,0.5-12.5,0.2-16.5
		c-0.1-1.6-0.2-2.9-0.2-3.7c0-0.1,0-0.3,0-0.4c0.3-1.3-1.5-8.1-3.8-15.3c-1.1,3.8-3.1,11.1-3.7,14.5c-0.4,2.3-0.1,7.4,0.2,11.8
		c0.3,6,0.4,8.4,0,9.4c-1,2.3-5.5,5.5-9.8,6.1c-1.6,0.2-3.1-0.3-4-1.6c-1.9-2.5-1.5-7.4,1.1-13.4c3.4-7.8,7-27.3,7-38
		c0-3.9,1.1-6.9,3.3-8.9C15.7-0.3,19.9,0,20.1,0c0,0,0.1,0,0.1,0l0.9,0.1c0.5,0.1,1,0.4,1.2,0.9c2.5,6.2,8.5,10.3,15.4,10.3
		c6.8,0,12.6-4,15.1-10.3c0.2-0.5,0.6-0.8,1.1-0.9L54.7,0c0.1,0,0.1,0,0.2,0c0.2,0,4.3-0.3,7.4,2.6c2.2,2,3.3,5,3.3,8.9
		c0,10.7,3.6,30.3,7,38c2.5,5.8,2.9,10.9,1,13.4C72.7,64.1,71.5,64.7,70.2,64.7z M56.3,19.7c0.7,1.9,4.8,12.5,5.5,17.1
		c0.4,2.6,0.3,7.4,0.3,12c-0.1,3.3-0.1,7.8,0.1,8.6c0.5,1.1,4.1,3.8,7.6,4.2c0.7,0.1,1.1-0.2,1.3-0.4c1-1.3,1-5-1.4-10.4l0,0
		c-3.5-8-7.2-28.2-7.2-39.2c0-3-0.8-5.3-2.3-6.7c-1.8-1.7-4.3-1.9-5-1.9c-3.1,7-9.8,11.3-17.6,11.4c-7.8,0-14.7-4.5-17.8-11.4
		c-0.4,0-3.2,0-5.2,1.9c-1.5,1.4-2.3,3.7-2.3,6.7c0,11-3.7,31.1-7.2,39.2C2.7,56.2,2.6,60,3.6,61.2c0.2,0.3,0.5,0.5,1.2,0.4
		c3.5-0.5,6.9-3.1,7.5-4.3c0.2-0.8,0-4.8-0.2-8.1c-0.3-4.8-0.6-9.8-0.1-12.5c0.7-4.5,3.9-15.3,4.4-17V16c0-0.7,0.5-1.4,1.2-1.5
		c0.7-0.1,1.4,0.3,1.7,1c1.6,4.5,6.7,19.3,6.1,23.1c0,0.7,0.1,2,0.2,3.4c0.6,9.2,0.7,15-0.3,17.6c1.4,0.5,5.3,1,12.3,0.9
		c7.3,0.1,10.8-0.4,12.1-0.9c-1.1-2.7-1.5-9.2-1.3-20.8l0-0.2c-0.6-3.8,3.7-18.5,5.1-23c0.2-0.7,0.9-1.2,1.7-1.1
		c0.7,0.1,1.3,0.7,1.3,1.5V19.7z"/>
</g>
</svg>
