<svg class="svg-hide" width="0" height="0" viewBox="0 0 0 0" version="1.1" 
    xmlns="http://www.w3.org/2000/svg" 
    xmlns:xlink="http://www.w3.org/1999/xlink">
    <defs>
        <!--删除viewBox="0 0 100 100"-->
        <symbol id="svg-delete">
            <circle fill="#EA4E65" cx="50" cy="50" r="50"/>
            <polygon fill="#FFFFFF" points="81.7,27.5 72.5,18.3 50,40.8 27.5,18.3 18.3,27.5 40.8,50 18.3,72.5 27.5,81.7 50,59.2 72.5,81.7 81.7,72.5 59.2,50 "/>
        </symbol>
        <!--关闭viewBox="0 0 1024 1024" -->
        <symbol id="svg-close">
            <path d="M210.858103 177.734507l634.909448 634.909448-32.914199 32.914199-634.909448-634.909448 32.914199-32.914199ZM845.774825 210.655379l-634.909448 634.909448-32.914199-32.914199 634.909448-634.909448 32.914199 32.914199Z" p-id="2505"></path>
        </symbol>
        <!--衣服viewBox="5 0 209.6 200"-->
        <symbol id="svg-cloth">
            <path d="M176,66.2l-12.1,22.9L150,83.9v67.7c-4.3,1.4-18.7,3.5-42,3.5s-37.7-2.1-42-3.5V83L55,88.8l-15.2-24L76.8,45H83c2,11.6,11.8,20.4,23.6,20.4s21.6-8.8,23.6-20.4h6.3c-0.1-1-0.2-2-0.2-3.1c0-1.9,0.2-3.7,0.6-5.5h-15v4.3c0,8.9-6.9,16.1-15.3,16.1s-15.3-7.2-15.3-16.1v-4.3H74.7L27.6,61.5l24.4,38.6l5.5-2.9v56.3c0,2.8,0,10.1,50.6,10.1s50.6-7.4,50.6-10.1V96.3l9.3,3.5l20.2-38.5l-3.7-2C182.2,62.2,179.2,64.5,176,66.2z"/>
            <path d="M163.6,19.2c-12.5,0-22.6,10.1-22.6,22.6s10.1,22.6,22.6,22.6s22.6-10.1,22.6-22.6S176.1,19.2,163.6,19.2z M163.6,59.4c-9.7,0-17.5-7.9-17.5-17.5c0-9.7,7.9-17.5,17.5-17.5c9.7,0,17.5,7.9,17.5,17.5C181.2,51.6,173.3,59.4,163.6,59.4z"/>
            <polygon points="177.9,39.5 166.8,39.5 166.8,28.5 161.1,28.5 161.1,39.5 150.1,39.5 150.1,45.3 161.1,45.3 161.1,56.3 166.8,56.3 166.8,45.3 177.9,45.3 "/>
        </symbol>
        <!--图片 viewBox="0 0 1024 1024"-->
        <symbol id="svg-img">
            <path d="M469.344 362.72c0 58.912-47.744 106.656-106.656 106.656-58.912 0-106.656-47.744-106.656-106.656 0-58.912 47.744-106.656 106.656-106.656 58.912 0 106.656 47.744 106.656 106.656z" p-id="1004" fill="#8a8a8a"></path>
            <path d="M682.656 426.656c-85.344 0-128 128-192 128s-63.968-42.656-149.344-42.656c-85.344 0-128.032 170.656-128.032 170.656l597.376 0c0 0-42.656-256-128-256z" p-id="1005" fill="#8a8a8a"></path>
            <path d="M853.344 128l-682.656 0c-47.072 0-85.344 38.272-85.344 85.344l0 512c0 47.072 38.272 85.344 85.344 85.344l682.656 0c47.072 0 85.344-38.272 85.344-85.344l0-512c0-47.072-38.272-85.344-85.344-85.344zM853.344 725.344l-682.656 0 0-512 682.656 0 0 512z" p-id="1006" fill="#8a8a8a"></path>
        </symbol>
        <!--加号viewBox="0 0 1024 1024"-->
        <symbol id="svg-add">
            <path d="M512 1024C229.248 1024 0 794.752 0 512 0 229.248 229.248 0 512 0 794.752 0 1024 229.248 1024 512 1024 794.752 794.752 1024 512 1024ZM768 448 576 448 576 256C576 220.672 547.328 192 512 192 476.672 192 448 220.672 448 256L448 448 256 448C220.672 448 192 476.672 192 512 192 547.328 220.672 576 256 576L448 576 448 768C448 803.328 476.672 832 512 832 547.328 832 576 803.328 576 768L576 576 768 576C803.328 576 832 547.328 832 512 832 476.672 803.328 448 768 448Z" p-id="2362"></path>
        </symbol>
        <!--表情viewBox="0 0 1024 1024"-->
        <symbol id="svg-face">
            <path d="M512 1024C229.287 1024 0 794.713 0 512S229.287 0 512 0c282.713 0 512 229.287 512 512s-231.513 512-512 512z m0-979.478C253.774 44.522 44.522 253.774 44.522 512S253.774 979.478 512 979.478 979.478 770.226 979.478 512 768 44.522 512 44.522z" p-id="3132"></path>
            <path d="M801.391 554.296c0 160.278-129.113 289.391-289.391 289.391S222.609 714.574 222.609 554.296H801.39zM616.626 349.496a2.6 2.6 0 1 0 115.757 0 2.6 2.6 0 1 0-115.757 0zM289.391 349.496a2.6 2.6 0 1 0 115.757 0 2.6 2.6 0 1 0-115.757 0z" p-id="3133"></path>
        </symbol>
        <!--铃铛viewBox="50 -50 200 200"-->
        <symbol id="svg-bell">
            <circle fill="#CFE500" cx="50" cy="50" r="50"/>
            <path fill="#FFFFFF" d="M74.8,33.7c-1.2-3.4-3.1-6.4-5.7-8.7c0.5-1.7,0.4-3.5-0.3-5.1c-0.8-1.6-2.1-2.9-3.7-3.6c-1.7-0.7-3.4-0.8-5.2-0.2c-1.7,0.6-3.1,1.7-3.9,3.3c-3.5-0.3-6.9,0.3-10.2,1.8c-5.3,2.4-9.5,6.9-12,12.6l-5.7,13c-0.1,0.2-0.3,0.4-0.5,0.4l-0.1,0.1l-8.2,4.6c-0.9,0.4-1.6,1-2,2l-1.5,3.4c-0.8,1.9,0,4.2,2,5L40.9,72l22.9,10c1.9,0.8,4.2,0,4.9-2l1.4-3.4c0.4-0.9,0.4-1.9,0.1-2.8l-2.2-9.1l-0.1-0.1c-0.1-0.2-0.1-0.4,0-0.6l1.4-3.4l-2.8-1.2l-1.4,3.4c-0.4,0.9-0.4,1.8-0.1,2.8l2.2,9.1l0.1,0.1c0.1,0.2,0.1,0.4,0,0.6L66,78.8c-0.2,0.4-0.7,0.6-1,0.4l-22.9-10l-22.9-9.9c-0.4-0.2-0.5-0.7-0.4-1l1.5-3.4c0.1-0.2,0.3-0.3,0.5-0.4l0.1,0l8.1-4.6c0.9-0.4,1.6-1.1,2-2l5.7-13c2.2-5,6-9,10.5-11c2.3-1,4.7-1.5,7.2-1.6c2.6,0,5.2,0.5,7.6,1.6c2.5,1.1,4.7,2.6,6.3,4.5c1.7,1.8,2.9,4,3.7,6.3c1.6,4.8,1.3,10.2-0.9,15.3l-1.4,3.3l2.8,1.2l1.4-3.3C76.3,45.3,76.7,39.2,74.8,33.7z M63.1,21c-1.2-0.5-2.4-0.9-3.7-1.3c1.2-1.1,2.9-1.5,4.6-0.8s2.6,2.3,2.5,3.9C65.4,22.2,64.3,21.6,63.1,21z"/>
            <path fill="#FFFFFF" d="M48.8,77.6c-0.2-0.6-0.7-1.1-1.3-1.3l-14.2-6.2c-0.5-0.3-1.3-0.3-1.8,0s-1,0.8-1.2,1.3c-0.8,2.4-0.7,4.9,0.4,7.2c1,2.3,2.8,4.1,5.2,5.1c2.3,1,4.9,1.1,7.3,0.3c2.3-0.8,4.3-2.5,5.5-4.6C48.9,78.8,48.9,78.2,48.8,77.6zM42.1,81.2c-1.7,0.6-3.5,0.5-5.1-0.2s-2.9-1.9-3.6-3.6c-0.6-1.3-0.8-2.8-0.5-4.3l12.6,5.5C44.7,79.8,43.5,80.7,42.1,81.2z"/>
        </symbol>
        <!--打赏铃铛viewBox="0 0 1024 1024"-->
        <symbol id="svg-reward">
            <path d="M512 950.857143c242.358857 0 438.857143-196.498286 438.857143-438.857143S754.358857 73.142857 512 73.142857 73.142857 269.641143 73.142857 512s196.498286 438.857143 438.857143 438.857143z m0 73.142857C229.229714 1024 0 794.770286 0 512S229.229714 0 512 0s512 229.229714 512 512-229.229714 512-512 512z" fill="#333333" p-id="6406"></path>
            <path d="M475.428571 621.714286v-73.142857H365.531429A36.388571 36.388571 0 0 1 329.142857 512c0-20.187429 16.676571-36.571429 36.388572-36.571429H475.428571v-30.171428a13.750857 13.750857 0 0 0-3.181714-3.547429L322.633143 336.969143a36.534857 36.534857 0 0 1-9.069714-51.017143 36.352 36.352 0 0 1 51.017142-8.923429l145.261715 101.705143 145.261714-101.668571a36.352 36.352 0 0 1 51.017143 8.886857 36.534857 36.534857 0 0 1-9.069714 51.017143L548.571429 440.905143V475.428571h109.897142c20.114286 0 36.388571 16.237714 36.388572 36.571429 0 20.187429-16.676571 36.571429-36.388572 36.571429H548.571429v73.142857h109.897142c20.114286 0 36.388571 16.237714 36.388572 36.571428 0 20.187429-16.676571 36.571429-36.388572 36.571429H548.571429v109.641143a36.534857 36.534857 0 1 1-73.142858 0V694.857143H365.531429A36.388571 36.388571 0 0 1 329.142857 658.285714c0-20.187429 16.676571-36.571429 36.388572-36.571428H475.428571z" fill="#333333" p-id="6407"></path>
        </symbol>
        <!--点赞viewBox="0 0 200 200"-->
        <symbol id="svg-zan">
            <path class="svg-zan-st0" d="M143.6,7.2c-17.2,0-33.1,8.6-43.6,22.8C89.5,15.8,73.5,7.2,56.4,7.2C25.5,7.2,0.3,34.7,0.3,68.6                c0,20.2,9,34.3,16.3,45.7c21.1,33,74,74.2,76.3,75.9c2.2,1.7,4.7,2.5,7.2,2.5s5-0.8,7.2-2.5s55.2-42.9,76.3-75.9                c7.1-11.4,16.1-25.6,16.1-45.8C199.7,34.7,174.5,7.2,143.6,7.2z"/>
            <path class="svg-zan-st1" d="M143.5,21c-17.7,0-33,11.6-39.8,28.3h-0.1c-0.5,1.7-1.9,3-3.7,3c-1.7,0-3.2-1.3-3.7-3v0.1                C89.4,32.6,74.1,21,56.3,21c-24.1,0-43.6,21.3-43.6,47.6c0,15.2,6.6,26.3,14,37.9C46.8,138,100,179.1,100,179.1s53.1-41.1,73.2-72.6                c7.4-11.7,14-22.7,13.9-37.9C187.1,42.3,167.6,21,143.5,21z"/>
        </symbol>
        <!--评论viewBox="0 0 1024 1024"-->
        <symbol id="svg-comment">
            <path d="M576.968 463.869c0 36.586-29.651 66.235-66.235 66.235s-66.235-29.651-66.235-66.235 29.651-66.235 66.235-66.235 66.235 29.651 66.235 66.235z" p-id="2362"></path>
            <path d="M321.392 463.869c0 36.586-29.651 66.235-66.235 66.235-36.638 0-66.287-29.651-66.287-66.235s29.651-66.235 66.287-66.235c36.586 0 66.235 29.651 66.235 66.235z" p-id="2363"></path>
            <path d="M832.596 463.869c0 36.586-29.651 66.235-66.235 66.235s-66.235-29.651-66.235-66.235 29.652-66.235 66.235-66.235c36.586 0 66.235 29.651 66.235 66.235z" p-id="2364"></path>
            <path d="M510.732 987.594c-16.499 0-32.764-5.574-45.799-15.697l-180.657-140.589h-182.265c-41.131 0-74.592-33.457-74.592-74.58v-583.041c0-41.123 33.462-74.58 74.592-74.58h817.465c41.116 0 74.566 33.456 74.566 74.58v583.041c0 41.123-33.452 74.58-74.566 74.58h-182.265l-180.663 140.573c-13.051 10.138-29.315 15.713-45.819 15.713zM102.013 152.097c-11.914 0-21.605 9.686-21.605 21.591v583.041c0 11.905 9.692 21.591 21.605 21.591h191.359c5.894 0 11.619 1.965 16.271 5.585l187.813 146.159c3.82 2.966 8.416 4.544 13.276 4.544 4.859 0 9.455-1.575 13.293-4.557l187.825-146.144c4.654-3.619 10.377-5.585 16.27-5.585h191.361c11.898 0 21.578-9.686 21.578-21.591v-583.042c0-11.905-9.681-21.591-21.578-21.591h-817.465z" p-id="2365"></path>
        </symbol>
        <!--红包viewBox="0 0 1024 1024"-->
        <symbol id="svg-redBag">
            <path d="M854.55872 0H165.18656C56.16128 0 32 30.56128 32 146.14528v57.216C104.22272 240.96256 195.328 288.79872 296.96 321.152 325.27872 231.936 409.88672 167.19872 509.85472 167.19872c99.84 0 184.35584 64.57344 212.736 153.56928 102.528-33.664 192.32256-84.224 265.11872-124.09344v-50.56C987.74528 30.56128 963.54816 0 854.55872 0z" fill="#F42341" p-id="3516"></path>
            <path d="M509.85472 606.04928c-118.49728 0-215.13728-91.008-222.30016-205.824C195.52256 371.072 108.544 330.43456 32 294.784v604.44672C32 1014.784 56.16128 1024 165.18656 1024H854.528c109.02016 0 133.18144-9.216 133.18144-124.8V289.05472C909.98272 326.97344 824.09472 369.47456 732.16 399.616c-6.81472 115.10272-103.58272 206.43328-222.30528 206.43328z" fill="#F42341" p-id="3517"></path>
            <path d="M566.05184 238.94528l-45.21984 100.63872c-3.7376 8.47872-6.49728 14.976-8.25344 19.456h-0.79872L457.11872 238.91456H390.4l74.752 134.016H408.47872v38.17984h69.12v32.96256h-69.12v38.17472h69.12V537.6h63.32928V482.27328h66.90816v-38.17984H540.928V411.136h66.90816v-38.17472H552.3456l76.95872-134.016h-63.25248z" fill="#EA9518" p-id="3518"></path>
        </symbol>
        <!--问号 viewbox="0 0 1024 1024" -->
        <symbol id="svg-question">
            <path d="M512 113.406976c-219.789312 0-398.601216 178.816-398.601216 398.61248 0 219.773952 178.811904 398.573568 398.601216 398.573568s398.601216-178.799616 398.601216-398.573568C910.601216 292.224 731.789312 113.406976 512 113.406976zM552.2176 803.094528l-80.04608 0 0-80.04608 80.04608 0L552.2176 803.094528zM679.120896 446.205952c-11.713536 21.086208-34.623488 46.728192-68.722688 76.92288-22.908928 20.303872-37.874688 35.275776-44.904448 44.904448-7.027712 9.632768-12.237824 20.694016-15.618048 33.188864-3.386368 12.494848-5.339136 32.799744-5.85728 60.913664L476.4672 662.135808c-0.262144-9.371648-0.390144-16.400384-0.390144-21.086208 0-27.588608 3.904512-51.406848 11.713536-71.455744 5.723136-15.09376 14.96576-30.321664 27.722752-45.683712 9.371648-11.190272 26.222592-27.529216 50.566144-49.00352 24.337408-21.476352 40.15104-38.590464 47.44192-51.347456 7.284736-12.750848 10.933248-26.68032 10.933248-41.780224 0-27.332608-10.677248-51.347456-32.018432-72.042496-21.348352-20.69504-47.509504-31.041536-78.485504-31.041536-29.937664 0-54.928384 9.370624-74.970112 28.11392-20.047872 18.742272-33.188864 48.026624-39.437312 87.855104l-72.237056-8.590336c6.504448-53.359616 25.832448-94.230528 57.985024-122.606592 32.146432-28.36992 74.641408-42.560512 127.488-42.560512 55.964672 0 100.606976 15.227904 133.931008 45.683712 33.317888 30.456832 49.980416 67.295232 49.980416 110.502912C696.691712 402.082816 690.835456 425.120768 679.120896 446.205952z" p-id="2548"></path>
        </symbol>
        <!-- 已过期 viewBox="0 0 190 150"-->
        <symbol id="svg-past">
            <path fill="#999999" d="M62.1,44.9c10-10.9,24.1-15.7,37.8-14.3l5-3.2c-16.2-3.2-33.7,1.8-45.7,14.9                c-5.8,6.3-9.6,13.7-11.5,21.5l5-3.2C54.7,55,57.8,49.6,62.1,44.9z"/>
            <polygon fill="#999999" points="80.2,21.5 84.2,20.9 82,17.7 82.9,13.7 79,14.9 75.6,13 75.3,17 72.3,19.8 76,21.2                 77.6,24.8 "/>
            <polygon fill="#999999" points="101.1,14.3 97.1,15.2 99.6,18.2 99.1,22.1 102.9,20.6 106.6,22.1 106.5,18.2                 109.3,15.2 105.4,14.3 103.4,11 "/>
            <path fill="#999999" d="M43.5,27.8c22-23.9,56.7-29.1,84.1-14.8l3.8-2.4c-29.2-16.4-67-11.2-90.8,14.6                C26.2,40.8,19.8,61,21.2,80.6l3.8-2.4C24.2,60.3,30.4,42.1,43.5,27.8L43.5,27.8z"/>
            <polygon fill="#999999" points="37.2,55.8 33.4,56.7 35.8,59.9 35.4,64 39.1,62.5 42.7,64.2 42.5,60.1 45.1,57                 41.3,55.9 39.4,52.3 "/>
            <path fill="#999999" d="M146.5,122.6c-22,23.9-56.7,29.1-84.1,14.8l-3.8,2.4c29.2,16.4,67,11.3,90.7-14.6                c14.4-15.7,20.8-35.8,19.4-55.4l-3.7,2.4C165.8,90.1,159.6,108.3,146.5,122.6z"/>
            <polygon fill="#999999" points="53.5,29.9 49.6,29.6 50.9,33.4 49.3,37.2 53.2,36.9 56.1,39.6 57.2,35.6 60.6,33.5                 57.4,31.2 56.6,27.2 "/>
            <polygon fill="#999999" points="155.1,92.2 158.9,91.4 156.5,88.2 156.9,84.1 153.3,85.5 149.7,83.8 149.9,87.9                 147.3,90.9 151.1,92 153,95.5 "/>
            <path fill="#999999" d="M188.1,43.7l-25-39.4c-2.2-3.7-7-4.8-10.7-2.4L4.3,96c-3.6,2.3-4.7,7.1-2.4,10.8l25,39.4                c2.3,3.6,7.1,4.7,10.7,2.4l148.1-94.1C189.3,52.2,190.4,47.4,188.1,43.7z M182,52.2l-144.9,92c-2.7,1.7-6.3,0.9-8.1-1.8L6.2,106.3                c-1.7-2.7-0.9-6.3,1.8-8.1l144.8-92c2.8-1.7,6.4-0.9,8.1,1.8l22.9,36.1C185.5,46.8,184.7,50.4,182,52.2z"/>
            <polygon fill="#999999" points="88.6,136.3 92.6,135.7 90.3,132.5 91,128.7 87.1,129.9 83.5,128.1 83.4,132 80.5,134.8                 84.3,136 86.1,139.5 "/>
            <polygon fill="#999999" points="114.9,126.1 110.9,126.7 113,130 112.1,133.9 116,132.7 119.4,134.6 119.6,130.6                 122.6,127.8 118.9,126.5 117.3,122.9 "/>
            <path fill="#999999" d="M137.3,89.8c-2,5.6-5.1,11-9.4,15.7c-10,10.9-24.1,15.7-37.8,14.3l-5,3.2                c16.2,3.3,33.6-1.8,45.6-14.8c5.8-6.3,9.6-13.7,11.5-21.5L137.3,89.8L137.3,89.8z"/>
            <polygon fill="#999999" points="139.9,116.6 143.8,117 142.4,113.2 144,109.5 140.1,109.8 137.2,107.1 136.1,111                 132.7,113.1 135.9,115.3 136.7,119.3 "/>
            <g>
                <path fill="#999999" d="M71.6,93.3c2.3-0.4,4.3-0.8,6-1.3c0.2,0.6,0.5,1.3,0.9,2.2c0.7,1.8,1.1,3.2,1.4,4.2                    c1,2.8-0.4,5.4-4.3,7.9l-13.5,8.6c-4.4,2.8-8.1,2-10.9-2.4l-8.5-13.3l4.6-2.9l1.9,3l15.2-9.7l-4.2-6.5L39.7,96.3L36.9,92l25.1-16                    l9.7,15.2l-19.7,12.6l3.6,5.6c1.3,2.1,3,2.5,5,1.2l11.6-7.4c2-1.4,2.7-2.8,2.1-4.3c-0.3-0.7-0.8-1.8-1.6-3.4                    C72.2,94.5,71.8,93.8,71.6,93.3z"/>
                <path fill="#999999" d="M69.6,72l2.2-4.3c2.8,1.1,5.3,2.3,7.5,3.3c0,0.1-0.5,1-1.3,2.6c-0.5,0.9-0.9,1.7-1.2,2.2                    c-1.3-0.7-3.1-1.7-5.4-3C70.6,72.5,70,72.2,69.6,72z M97.5,87.9c1.7-1,6.1-3.9,13.3-8.6c1.8-1.2,3.2-2.1,4.2-2.7                    c0.3,2,0.7,3.6,1.1,4.8c-6.6,4.2-12.5,7.8-17.6,10.8c-3.1,2-6,2.6-8.5,1.7c-0.8,2.6-1.2,4.6-1.3,6l-4.8-3.5                    c0.1-0.6,0.4-1.3,0.7-2.3c0.3-1.1,0.6-1.8,0.7-2.3l-5.4-8.5l-2.9,1.8L74.3,81l7.2-4.6l8.1,12.7C92.1,90,94.8,89.6,97.5,87.9z                     M92.2,62l-3.3-5.1l4.6-2.9l3.3,5.1l4.4-2.8l2.4,3.8l-4.4,2.8l6.6,10.3c2.2,3.5,1.8,6.3-1.2,8.5c-1.7,1.2-3.7,2.6-6.1,4.1                    c-0.1-0.2-0.3-0.4-0.5-0.6c-0.7-0.9-1.8-2-3.3-3.2c0.6-0.4,1.5-0.9,2.6-1.5c1.2-0.8,2.1-1.3,2.6-1.5c1.6-1,1.8-2.4,0.7-4.1                    l-5.8-9.2l-12.3,7.8l-2.4-3.8L92.2,62z M84.7,76.3l1.7-4.8c1.5,0.4,4.4,1.4,8.8,2.8c-3.5-1.2-3.2-1.1,0.8,0.4                    c-0.1,0.3-0.3,0.8-0.5,1.5c-0.2,0.5-0.6,1.7-1.4,3.6c-0.6-0.2-1.6-0.6-2.9-1.1C90.2,78.3,88.1,77.5,84.7,76.3z"/>
                <path fill="#999999" d="M119.4,41.5l2.3,3.7l-1.7,1.1l8.4,13.2l1.7-1.1l2.4,3.8l-4.7,3c1.9,0.3,3.7,0.7,5.6,1.2                    c0.3-3-1.3-7.3-4.9-12.9l-9.1-14.3l11.6-7.4l16.3,25.5c1.2,1.9,0.9,3.6-0.9,5c-1,0.8-2.3,1.7-4,2.7c-0.3-0.3-0.8-0.7-1.4-1.3                    c-0.8-0.9-1.5-1.6-2-2c1.1-0.6,2-1.1,2.7-1.5c1-0.6,1.1-1.4,0.5-2.4l-2.5-3.9l-4.2,2.7c2.2,4,3.2,7.9,3.2,11.6c-0.2,0-0.5,0-0.9,0                    c-0.8-0.1-1.9-0.2-3.4-0.2l-1.1,3.1c-2.7-1-5-1.6-7-2l1.4-3.8l-6.8,4.3l4.1,0.3c-0.5,2.7-1,5.2-1.5,7.8c-0.8-0.1-1.8-0.3-3-0.4                    c-0.8-0.1-1.3-0.2-1.6-0.2c0.7-2.3,1.2-4.6,1.4-7l-4.3,2.8l-2.4-3.8l2.5-1.6l-8.4-13.2l-2.1,1.3l-2.3-3.7l2.1-1.3l-1.7-2.6l3.8-2.4                    l1.7,2.6l4.7-3l-1.7-2.6L116,40l1.7,2.6L119.4,41.5z M111.4,51.8l1.3,2.1l4.7-3l-1.3-2.1L111.4,51.8z M114.9,57.3l1.3,2.1l4.7-3                    l-1.3-2.1L114.9,57.3z M118.4,62.8l1.4,2.2l4.7-3l-1.4-2.2L118.4,62.8z M132.5,42.5l-2.8-4.3l-4.1,2.6l2.8,4.3L132.5,42.5z                     M133.4,52.8l4.1-2.6l-2.6-4.1l-4.1,2.6C131.7,50.1,132.5,51.4,133.4,52.8z"/>
            </g>
        </symbol>
        <!-- 已使用 viewBox="0 0 190 150" -->
        <symbol id="svg-used">
            <path fill="#999999" d="M62,45c10-10.9,24.1-15.7,37.8-14.3l5-3.2c-16.2-3.2-33.7,1.8-45.7,14.9            c-5.8,6.3-9.6,13.7-11.5,21.5l5-3.2C54.7,55.1,57.8,49.7,62,45z"/>
            <polygon fill="#999999" points="80.2,21.6 84.2,21 82,17.8 82.8,13.8 79,15 75.5,13.1 75.2,17.1 72.3,19.9 76,21.3             77.5,24.9 "/>
            <polygon fill="#999999" points="101,14.4 97,15.3 99.5,18.3 99,22.2 102.8,20.7 106.5,22.2 106.5,18.3 109.2,15.3             105.3,14.4 103.3,11.1 "/>
            <path fill="#999999" d="M43.5,27.9c22-23.9,56.7-29.1,84.1-14.8l3.8-2.4c-29.2-16.4-67-11.2-90.8,14.6            C26.2,40.9,19.8,61.1,21.2,80.7l3.8-2.4C24.2,60.4,30.3,42.2,43.5,27.9L43.5,27.9z"/>
            <polygon fill="#999999" points="37.2,55.9 33.3,56.8 35.8,60 35.3,64.1 39,62.6 42.7,64.3 42.5,60.2 45,57.1 41.3,56             39.3,52.4 "/>
            <path fill="#999999" d="M146.5,122.7c-22,23.9-56.7,29.1-84.1,14.8l-3.8,2.4c29.2,16.4,67,11.3,90.7-14.6            c14.4-15.7,20.8-35.8,19.4-55.4l-3.7,2.4C165.7,90.2,159.5,108.4,146.5,122.7z"/>
            <polygon fill="#999999" points="53.5,30 49.5,29.7 50.8,33.5 49.3,37.3 53.2,37 56,39.7 57.2,35.7 60.5,33.6 57.3,31.3             56.5,27.3 "/>
            <polygon fill="#999999" points="155,92.3 158.8,91.5 156.5,88.3 156.8,84.2 153.2,85.6 149.7,83.9 149.8,88 147.2,91             151,92.1 153,95.6 "/>
            <path fill="#999999" d="M188,43.8L163,4.4c-2.2-3.7-7-4.8-10.7-2.4L4.3,96.1c-3.6,2.3-4.7,7.1-2.4,10.8l25,39.4            c2.3,3.6,7.1,4.7,10.7,2.4l148.1-94.1C189.2,52.3,190.3,47.5,188,43.8z M182,52.3l-144.9,92c-2.7,1.7-6.3,0.9-8.1-1.8L6.2,106.4            c-1.7-2.7-0.9-6.3,1.8-8.1l144.8-92c2.8-1.7,6.4-0.9,8.1,1.8l22.9,36.1C185.5,46.9,184.7,50.5,182,52.3z"/>
            <polygon fill="#999999" points="88.5,136.4 92.5,135.8 90.2,132.6 91,128.8 87,130 83.5,128.2 83.3,132.1 80.5,134.9             84.2,136.1 86,139.6 "/>
            <polygon fill="#999999" points="114.8,126.2 110.8,126.8 113,130.1 112,134 116,132.8 119.3,134.7 119.5,130.7             122.5,127.9 118.8,126.6 117.2,123 "/>
            <path fill="#999999" d="M137.2,89.9c-2,5.6-5.1,11-9.4,15.7c-10,10.9-24.1,15.7-37.8,14.3l-5,3.2            c16.2,3.3,33.6-1.8,45.6-14.8c5.8-6.3,9.6-13.7,11.5-21.5L137.2,89.9L137.2,89.9z"/>
            <polygon fill="#999999" points="139.8,116.7 143.7,117.1 142.3,113.3 144,109.6 140,109.9 137.2,107.2 136,111.1             132.7,113.2 135.8,115.4 136.7,119.4 "/>
            <g>
                <path fill="#999999" d="M71.6,93.4c2.3-0.4,4.3-0.8,6-1.3c0.2,0.6,0.5,1.3,0.9,2.2c0.7,1.8,1.1,3.2,1.4,4.2                c1,2.8-0.4,5.4-4.3,7.9l-13.5,8.6c-4.4,2.8-8.1,2-10.9-2.4l-8.5-13.3l4.6-2.9l1.9,3l15.2-9.7l-4.2-6.5L39.6,96.3L36.9,92L62,76                l9.7,15.2l-19.7,12.6l3.6,5.6c1.3,2.1,3,2.5,5,1.2l11.6-7.4c2-1.4,2.7-2.8,2.1-4.3c-0.3-0.7-0.8-1.8-1.6-3.4                C72.1,94.6,71.8,93.9,71.6,93.4z"/>
                <path fill="#999999" d="M72.6,67.3l4.9-1.6c0.8,2.8,1.5,5.5,2.1,8.2l14.4,22.6L90.1,99l-9-14.1c0.1,1.8,0.2,3.5,0.3,5.3                c-1.5-1.8-3.1-3.6-4.8-5.2C76.1,79.1,74.8,73.2,72.6,67.3z M91.3,85.6l1.3-3.8l-3,1.9l-6.7-10.5l7.6-4.8L89,66.1l-8.5,5.4l-2.3-3.7                l8.5-5.4l-1.8-2.9l4.2-2.7l1.8,2.9l8.9-5.7l2.3,3.7l-8.9,5.7l1.5,2.4l7.6-4.8l7.5,11.8l-3.9,2.5l-0.8-1.3l-3.8,2.4                c1.3,2.1,2.1,3.9,2.3,5.6c3.5-0.8,7.4-2.4,11.4-4.9c0.1,1.5,0.3,3.4,0.4,5.6c-4.4,2.2-8.6,3.5-12.7,4.1c-1,2.1-2.8,4.8-5.6,8                c-0.3-0.1-0.9-0.4-1.8-0.7c-1.1-0.6-2.1-1.1-2.9-1.3c2.4-2.2,4.1-4,5.1-5.6C95.3,86.8,93.3,86.3,91.3,85.6z M89,74.2l2.3,3.7                l3.7-2.3l-2.3-3.7L89,74.2z M98.6,82.6c-0.2-1.1-0.7-2.3-1.4-3.7l-4.3,2.8C94.6,82.4,96.5,82.7,98.6,82.6z M99.2,72.8l3.7-2.3                l-2.3-3.7l-3.7,2.3L99.2,72.8z"/>
                <path fill="#999999" d="M130.8,32l15.6,24.5c1.6,2.5,1.2,4.8-1.3,6.7c-1.9,1.2-3.5,2.2-4.7,3c-1.3-1.4-2.5-2.5-3.8-3.4                c0.3-0.2,0.9-0.6,1.6-1c0.8-0.4,1.5-0.8,1.9-1c1.4-0.7,1.6-1.8,0.8-3.1l-1.8-2.9l-6.4,4.1l5.4,8.5l-4.4,2.8l-5.4-8.5l-6.7,4.3                c2.5,4.8,3.6,8.4,3.3,11c-1.9-0.1-3.8-0.1-5.7,0c0.5-3.1-1.3-7.6-5.2-13.4l-9.4-14.6L130.8,32z M111.6,50.2L114,54l6.5-4.2                l-2.4-3.8L111.6,50.2z M116.6,58l2.5,3.9l6.5-4.2l-2.5-3.9L116.6,58z M131.4,42.9l-2.4-3.8l-6.4,4.1l2.4,3.8L131.4,42.9z M127.6,51                l2.5,3.9l6.4-4.1l-2.5-3.9L127.6,51z"/>
            </g>
        </symbol>
        <!-- 打勾 viewBox="0 0 142 108" -->
        <symbol id="svg-tick">
            <polygon fill="#ED0000" points="142,0 142,108 1.7,108 "/>
            <path fill="#FFFFFF" d="M130.6,59.6l-40,40c-1,1-2.5,1-3.5,0l-5.3-5.3L64.5,77c-1-1-1-2.5,0-3.5l5.2-5.2c1-1,2.5-1,3.5,0                l15.6,15.6l33-33c1-1,2.5-1,3.5,0l5.2,5.3C131.6,57.1,131.6,58.7,130.6,59.6"/>
        </symbol>
        <!-- 分享按钮 viewbox="0 0 1024 1024" -->
        <symbol id="svg-share-btn">
            <path d="M504.32 115.2 102.4 115.2c0 0-92.16 17.92-92.16 92.16s0 710.4 0 710.4S21.76 1011.2 102.4 1011.2c80.64 0 742.4 0 742.4 0s102.4-2.56 92.16-92.16c-8.96-89.6 0-277.76 0-277.76L844.8 641.28l0 247.04c1.28 7.68 1.28 17.92-5.12 24.32-7.68 8.96-23.04 6.4-25.6 6.4-26.88-2.56-285.44-1.28-648.96 0 0 0-61.44 8.96-61.44-61.44S102.4 268.8 102.4 268.8s-8.96-52.48 61.44-61.44c71.68-8.96 340.48 0 340.48 0L504.32 115.2z" fill="#ffffff" p-id="4186"></path>
            <path d="M1011.2 290.56c0-8.96-2.56-15.36-8.96-21.76l-12.8-12.8 0 0 0 0-12.8-12.8 0 0L757.76 21.76c-12.8-12.8-30.72-12.8-43.52 0l-21.76 21.76c-12.8 12.8-12.8 30.72 0 43.52l129.28 129.28C556.8 192 303.36 362.24 231.68 631.04c-6.4 21.76-8.96 39.68-12.8 61.44l92.16 24.32c2.56-21.76 6.4-39.68 12.8-61.44 65.28-238.08 299.52-382.72 537.6-340.48l-166.4 166.4c-12.8 12.8-12.8 30.72 0 43.52l21.76 21.76c12.8 12.8 30.72 12.8 43.52 0l218.88-222.72 0 0 12.8-12.8 0 0 0 0C993.28 312.32 1011.2 296.96 1011.2 290.56z" fill="#ffffff" p-id="4187"></path>
        </symbol>
        <!-- 分享指示 viewBox="0 0 540 307.5" -->
        <symbol id="svg-share-tips">
            <path fill="#FFFFFF" d="M531.7,70.1L511.3,13c-0.5-1.4-1.6-2.3-2.9-2.7c-1.9-0.9-4.3-0.3-5.5,1.6l-32.8,51c-1.3,2-0.7,4.7,1.3,6                c0.7,0.5,1.5,0.7,2.4,0.7c1.4,0,2.8-0.7,3.7-2l22.7-35.3c-11.4,79.1-36.3,114.2-55.9,129.7c-19.9,15.8-37.4,14.1-37.6,14.1                c-2.4-0.3-4.5,1.4-4.8,3.8c-0.3,2.4,1.4,4.6,3.7,4.9c0.2,0,1.3,0.2,3.1,0.2c6.6,0,22.8-1.7,40.6-15.7c21.1-16.6,47.9-53.8,59.6-137                l14.6,40.8c0.6,1.8,2.3,2.9,4.1,2.9c0.5,0,1-0.1,1.5-0.3C531.4,74.9,532.5,72.4,531.7,70.1z"/>
            <g >
                <path fill="#FFFFFF" d="M16.3,188.1c0,3.2-0.2,6.8-0.6,10.7c-0.1,1.3-0.3,2.9-0.6,4.9c0,0.4-0.2,0.8-0.5,1.1                    c-0.4,0.3-0.8,0.4-1.3,0.4c-0.4,0-0.8-0.1-1.1-0.3c-0.3-0.2-0.6-0.5-0.8-1l1.2-14.9v-2.5c0.1-0.5,0.4-0.9,0.8-1.1                    c0.4-0.3,0.8-0.4,1.3-0.4c1,0,1.5,0.5,1.7,1.5V188.1z M21.2,222.2c0,0.4-0.2,0.8-0.5,1c-0.4,0.2-0.8,0.4-1.3,0.4                    c-0.6,0-1-0.1-1.3-0.3c-0.3-0.2-0.5-0.6-0.5-1.1v-20.8v-23.9c0.1-0.4,0.3-0.7,0.7-1c0.4-0.3,0.8-0.4,1.3-0.4c0.5,0,0.9,0.1,1.3,0.4                    c0.3,0.3,0.5,0.7,0.4,1.2V222.2z M54.4,201.4h-14l0.3,1.2c1.3,3.1,3.1,5.9,5.4,8.6c1.7,1.9,3.5,3.7,5.4,5.2                    c1.5,1.2,2.4,1.8,2.5,1.8c1,0.3,1.4,1,1.4,2.1c0,0.6-0.2,1-0.5,1.5c-0.3,0.4-0.7,0.6-1.2,0.6c-0.4,0-0.8-0.2-1.3-0.5                    c-3.1-1.9-5.9-4.3-8.3-7.2c-2.2-2.6-4.3-5.8-6.3-9.6c-0.9,2.4-2.1,4.8-3.6,7.2c-1.1,1.8-2.3,3.4-3.5,4.9c-1,1.2-1.5,1.9-1.6,1.9                    c-0.9,0.9-1.6,1.5-2.1,1.9c-1,0.8-1.9,1.2-2.7,1.2c-0.4,0-0.9-0.1-1.4-0.3c-0.4-0.5-0.6-0.9-0.6-1.4s0.3-0.9,0.8-1.4                    c0.8-0.7,1.5-1.4,2.3-2.1c2.4-2.1,4.4-4.4,6-7c1.6-2.6,2.7-5.4,3.3-8.5H25c-0.4,0-0.7-0.1-1-0.4c-0.2-0.3-0.3-0.7-0.3-1.2                    c0-0.5,0.1-0.9,0.3-1.3c0.2-0.4,0.5-0.5,1-0.5h10.5v-11.2H29c-0.4-0.1-0.8-0.2-1-0.5c-0.2-0.3-0.3-0.7-0.3-1.1                    c0-1.1,0.4-1.8,1.3-2.1h6.5v-4.7c0.1-0.4,0.3-0.8,0.5-1s0.7-0.3,1.1-0.3c1.1,0,1.8,0.4,2.1,1.3v4.7h9.9c0.9,0.3,1.6,0.9,1.9,1.8                    c0.1,0.3,0.2,0.8,0.3,1.3V198h3.1c0.4,0,0.7,0.2,0.9,0.6c0.2,0.4,0.4,0.8,0.4,1.2c0,0.4-0.1,0.8-0.3,1.1                    C55.2,201.3,54.9,201.4,54.4,201.4z M27.8,194c0,0.8-0.2,1.3-0.6,1.7c-0.3,0.2-0.7,0.4-1.2,0.4c-0.3,0-0.5,0-0.7-0.1                    c-0.1,0-0.2,0-0.3-0.1c-0.4-0.9-0.8-2.1-1-3.6c-0.5-3.9-0.8-5.9-0.9-6.1c0.2-0.4,0.5-0.7,0.8-0.9c0.3-0.2,0.7-0.3,1.1-0.3                    c0.3,0,0.6,0,0.8,0.1c0.1,0,0.2,0,0.4,0.1c0.4,1.1,0.7,2.5,0.9,4C27.4,190.8,27.6,192.3,27.8,194z M47.6,198v-9.9                    c-0.3-0.5-0.7-0.8-1.2-1.1c-0.1,0-0.2-0.1-0.4-0.2h-6.8V198H47.6z"/>
                <path fill="#FFFFFF" d="M107.1,222.8c-0.5,0.2-0.9,0.3-1.3,0.3c-0.7,0-1.3-0.2-1.8-0.7c-0.5-0.4-1.3-1.5-2.4-3.1                    c-3.2,0.4-7.2,0.8-12.2,1.1c-3,0.2-6.2,0.4-9.7,0.5c-3.5,0.1-5.3,0.2-5.4,0.2c-1.6,0-2.7-0.2-3.4-0.6c-0.7-0.4-1-1-1-1.7                    c0-0.6,0.2-1.2,0.7-1.9l10.9-16.1H64.9c-0.4,0-0.8-0.2-1-0.5c-0.2-0.4-0.4-0.8-0.4-1.3c0-0.6,0.1-1,0.3-1.3                    c0.2-0.3,0.6-0.5,1.1-0.5h18.3v-9.6H67.7c-0.4-0.1-0.7-0.4-0.9-0.8c-0.2-0.4-0.4-0.8-0.4-1.3c0-0.9,0.4-1.5,1.3-1.6h15.5v-6.2                    c0-0.4,0.2-0.7,0.6-0.9c0.4-0.2,0.8-0.4,1.2-0.4c0.4,0,0.8,0.1,1.1,0.3c0.3,0.2,0.5,0.5,0.5,1v6.2H103c0.4,0.1,0.8,0.3,1,0.5                    s0.3,0.7,0.3,1.1c0,1.1-0.4,1.8-1.3,2.1H86.6v9.6h18.6c0.6,0.3,0.9,0.9,0.9,1.9s-0.3,1.6-0.9,1.9H86c-1.4,2.5-3,5.1-4.7,7.7                    s-3,4.6-3.9,6c-1.1,1.6-1.6,2.4-1.7,2.4h3.4c4.1,0,8.6-0.2,13.5-0.6c1.6-0.1,3.6-0.3,6.1-0.6c-0.6-0.9-1.7-2.3-3.3-4                    c-1.6-1.8-2.6-3.1-3.3-4c-0.4-0.3-0.6-0.7-0.6-1.1c0-0.4,0.2-0.9,0.7-1.2c0.5-0.4,1-0.5,1.6-0.5c0.4,0,0.8,0.1,1.1,0.4l10.5,12.7                    c0.6,0.6,1.1,1.3,1.3,2c0.2,0.7,0.4,1.4,0.4,2c0,0.2,0,0.5-0.1,0.7C107.1,222.7,107.1,222.7,107.1,222.8z"/>
                <path fill="#FFFFFF" d="M152.6,208.9c0,2.4-0.3,5.2-0.9,8.3c-0.2,1-0.5,2.3-0.9,3.8c-0.4,1.1-1.4,1.9-2.8,2.4                    c-1,0.3-1.7,0.6-2.2,0.7h-4.3l-5.3-1.2c-0.7-0.2-1.4-0.7-2.1-1.2s-1-1.2-1-1.8c0-0.7,0.4-1.2,1.2-1.6c1.3,0.1,2.7,0.4,4.2,0.8                    s2.8,0.7,4.2,1.1h1.6c2.4-0.8,3.9-2.6,4.3-5.4c0.2-2.4,0.4-4.8,0.6-7.3v-6.2l-1.2-1.2h-10.5l-1.2,4.7c-2.2,4.6-4.7,8.3-7.4,11.3                    c-3.2,3.4-6.8,6-10.9,7.6c-0.4,0.4-1,0.7-1.6,0.7c-0.6,0-1.1-0.2-1.6-0.6c-0.5-0.4-0.7-0.8-0.7-1.4c0-0.5,0.2-1,0.7-1.5                    c4.6-2,8.5-4.7,11.7-8.1c3.5-3.8,5.7-8,6.6-12.7h-9.6c-0.8-0.3-1.2-0.7-1.2-1.2c0-0.5-0.1-0.9-0.1-1.2c0.1-0.4,0.4-0.7,0.7-1                    c0.1-0.1,0.3-0.2,0.5-0.3h26.4c0.8,0.1,1.5,0.4,2,0.9c0.6,0.4,0.8,1,0.8,1.8c0,0.2,0,0.4-0.1,0.5V208.9z M129.6,185.3                    c-1.2,2-2.5,4-4,5.8c-0.5,0.6-3.1,3.4-7.8,8.4c-0.4,0.7-0.9,1-1.7,1c-0.6,0-1-0.2-1.5-0.6c-0.4-0.4-0.6-0.9-0.6-1.4                    c0-0.5,0.2-1,0.7-1.4l9-10.2c0.7-0.8,1.4-1.6,2.2-2.3c0.1-0.1,0.3-0.3,0.6-0.5c0.3-0.2,0.7-0.3,1.2-0.3c0.6,0,1.1,0.1,1.4,0.4                    C129.6,184.4,129.7,184.8,129.6,185.3z M159.7,200.5c-0.4,0.2-0.9,0.4-1.4,0.4c-0.9,0-1.9-0.5-3-1.4c-0.5-0.4-1-0.9-1.5-1.4                    l-8.4-13c-0.2-0.8-0.7-1.4-1.3-1.9c-0.2-0.2-0.5-0.4-0.9-0.6h-13.7l-0.9-0.6c-0.2-0.3-0.4-0.8-0.4-1.4c0-0.5,0.1-0.9,0.3-1.2                    c0.2-0.3,0.5-0.5,1-0.5h15.8l1.2,0.3c2.6,4.2,5.2,8.5,7.8,12.7c0.2,0.4,1.3,1.5,3.3,3.3c1.5,1.4,2.2,2.7,2.2,4                    C159.9,199.6,159.9,200.1,159.7,200.5z"/>
                <path fill="#FFFFFF" d="M209.3,183.1h-41.6c-0.7-0.4-1.1-1-1.1-1.6c0-0.5,0.2-1,0.7-1.5c0.1-0.1,0.2-0.2,0.4-0.3H186                    v-2.5c0.1-0.4,0.4-0.7,0.8-0.9c0.4-0.2,0.8-0.4,1.3-0.4c0.9,0,1.5,0.4,1.6,1.3v2.5h19.5c0.4,0,0.8,0.2,1,0.5s0.4,0.7,0.4,1.2                    C210.7,182.6,210.2,183.1,209.3,183.1z M209,213.5h-16.4c0.5,0.7,1,1.4,1.4,2.3c0.1,0.3,0.3,0.7,0.5,1.1v1.9                    c-0.3,1.5-1.2,2.8-2.8,3.9c-1.5,1.1-3.1,1.7-4.7,1.7h-3.4l-2.8-0.3c-1.2-0.3-2.1-0.5-2.6-0.6c-1.1-0.3-1.8-0.8-2-1.6v-1.6l0.3-0.9                    c0.5-0.2,1-0.3,1.3-0.3c0.6,0,1.5,0.2,2.7,0.7c1.2,0.4,2.1,0.6,2.8,0.5h3.7c1,0,1.7-0.3,2.2-0.9c0.5-0.6,0.8-1.4,0.8-2.3                    c0-1.6-0.6-2.8-1.7-3.6h-19.5c-0.4-0.1-0.7-0.4-0.9-0.8s-0.4-0.8-0.4-1.3c0-0.9,0.4-1.5,1.3-1.6h18c-0.3-0.3-0.6-0.6-0.7-0.8                    c-0.1-0.3-0.2-0.6-0.2-0.9c0-0.3,0-0.5,0.1-0.7c0-0.1,0.1-0.2,0.2-0.3c3.9-1.2,7.9-2.5,11.8-3.7h-25.1c-0.4-0.1-0.7-0.4-1-0.7                    c-0.1-0.1-0.2-0.3-0.3-0.5c-0.1-0.8,0-1.4,0.5-1.9c0.1-0.2,0.4-0.4,0.8-0.6h31c0.6,0.4,1,0.8,1.2,1.2c0.2,0.4,0.3,0.9,0.3,1.5                    c0,0.4,0,0.7-0.1,0.9c-0.1,0.2-0.1,0.5-0.2,0.7c-1.3,1.3-3.1,2.3-5.3,3c-2,0.6-3.9,1.1-5.8,1.7c-0.2,0.1-0.7,0.2-1.5,0.3                    s-1.3,0.4-1.3,0.9h18c0.7,0.6,1.1,1.2,1.1,1.8c0,0.6-0.2,1.1-0.7,1.6C209.3,213.3,209.1,213.4,209,213.5z M206.2,195.5                    c-0.3,0.5-0.7,0.9-1.1,1.2c-0.2,0.1-0.4,0.2-0.7,0.3h-30.7c-0.5-0.1-1-0.4-1.4-0.9c-0.1-0.1-0.3-0.4-0.5-0.7v-7.1v-0.6                    c0.3-0.5,0.7-0.9,1.1-1.2c0.2-0.1,0.4-0.2,0.7-0.3h30.7c0.5,0.1,1,0.4,1.4,0.9c0.1,0.1,0.3,0.4,0.5,0.7V195.5z M202.4,190.9                    c-0.1-0.4-0.4-0.7-0.7-1c-0.1-0.1-0.3-0.2-0.5-0.3h-24.5c-0.7,0.6-1.1,1.2-1.1,1.8c0,0.6,0.2,1.1,0.7,1.6c0.1,0.1,0.2,0.2,0.4,0.3                    h24.5c0.8-0.3,1.2-0.7,1.2-1.2C202.4,191.6,202.4,191.2,202.4,190.9z"/>
                <path fill="#FFFFFF" d="M234.6,183.8c-0.5,2.4-1.2,4.9-2.1,7.5c-0.4,1.2-1.4,3.6-2.9,7.3c-1.3,3.2-2.3,5.8-3,7.6                    l6.5-0.3c0.4,0.2,0.8,0.5,0.9,0.8c0.2,0.3,0.2,0.6,0.2,0.9c0,0.3-0.1,0.6-0.3,1c0,0.1-0.1,0.2-0.3,0.4c-2.6,0.5-5.4,0.9-8.4,1.1                    c-1,0.1-2.2,0.1-3.7,0.2c-0.4,0.1-0.7,0-0.9-0.2c-0.4-0.3-0.7-0.9-0.7-1.6c0-0.6,0.2-1.1,0.5-1.5c0.3-0.4,0.8-0.6,1.4-0.5                    c1.1-1.7,2.1-3.6,2.9-5.7c0.3-0.7,0.7-1.6,1.1-2.7h-6.5c-0.7-0.6-1.1-1.2-1.1-1.8c0-0.6,0.2-1.1,0.7-1.6c0.1-0.1,0.2-0.2,0.4-0.3                    l5.3-15.8c0.1-0.4,0.3-0.7,0.7-0.9c0.4-0.2,0.8-0.4,1.1-0.4c0.9,0,1.5,0.4,1.6,1.3c-0.3,1.9-0.8,4-1.6,6.2c-2,6.1-3,9.3-3.1,9.6                    h3.7l4-10.5c0.1-0.4,0.3-0.7,0.7-0.9c0.4-0.2,0.8-0.4,1.1-0.4C233.9,182.5,234.5,182.9,234.6,183.8z M234.6,217.6                    c-2.8,1.1-5.8,2.1-9.1,3.1c-1.1,0.3-2.5,0.8-4.2,1.2c-0.8,0-1.3-0.2-1.6-0.5s-0.4-0.8-0.4-1.3c0-0.3,0-0.5,0.1-0.7                    c0-0.1,0-0.2,0.1-0.3c1.4-0.9,3.1-1.6,5-2.2c0.6-0.2,1.4-0.4,2.4-0.6l5.3-1.9c0.3-0.2,0.6-0.3,0.9-0.3c0.5,0,0.9,0.2,1.3,0.7                    c0.3,0.5,0.5,1,0.5,1.6C234.9,216.9,234.8,217.3,234.6,217.6z M261.9,189.6c0.2,0.4,0.3,0.8,0.3,1.2c0,0.6-0.2,1-0.6,1.4                    c-0.1,0.1-0.3,0.3-0.6,0.5c-1.4-0.1-2.9-0.8-4.4-1.9c-1.2-1-2.5-2.1-3.7-3.1c-1-1.1-2.2-2.3-3.7-3.7c-0.5-0.4-1.1-0.9-1.9-1.6                    l-8.7,9c-0.4,0.4-0.9,0.8-1.6,1.1c-0.7,0.4-1.3,0.6-1.8,0.6c-0.4,0-0.8-0.1-1.1-0.4c-0.3-0.3-0.4-0.7-0.5-1.3                    c0.8-1.2,2.1-2.7,3.9-4.5c1.9-1.8,3.1-3.2,3.8-4.2l4.7-5c0.4-0.4,0.9-0.7,1.4-0.7c0.6,0,1.2,0.3,1.9,1c0.5,0.5,0.9,1.1,1.4,1.9                    c0.8,0.7,2.1,2,3.9,3.8C257.5,186.8,259.9,188.7,261.9,189.6z M258.5,221c-0.1,1-0.6,1.8-1.5,2.2c-0.3,0.1-0.7,0.2-1.3,0.3h-14.9                    c-0.9,0.1-1.6-0.1-2.1-0.6c-0.5-0.6-0.9-1.3-1-2.2v-8.4v-8.4c0.2-0.8,0.7-1.4,1.4-1.9c0.2-0.2,0.6-0.4,1-0.6h15.5                    c0.8,0.1,1.5,0.4,2,0.9c0.6,0.4,0.8,1,0.8,1.8c0,0.2,0,0.4-0.1,0.5V221z M256.6,195.9h-15.8c-0.8-0.3-1.2-0.7-1.2-1.2                    c0-0.5-0.1-0.9-0.1-1.2c0.1-0.4,0.4-0.7,0.7-1c0.1-0.1,0.3-0.2,0.5-0.3h15.8c0.7,0.6,1.1,1.2,1.1,1.8c0,0.6-0.2,1.1-0.7,1.6                    C256.9,195.6,256.8,195.7,256.6,195.9z M254.5,218.2V207c-0.1-0.5-0.4-0.9-0.9-1.1c-0.1-0.1-0.4-0.1-0.7-0.2h-10.2                    c-0.5,0-0.9,0.2-1.1,0.6c-0.1,0.1-0.1,0.3-0.2,0.6v11.2c0,0.5,0.2,0.9,0.6,1.1c0.1,0.1,0.3,0.1,0.6,0.2h10.5l0.9-0.3L254.5,218.2z" />
                <path fill="#FFFFFF" d="M279.5,177.5c0.1,0.7,0.2,1.5,0.2,2.3c0,1.2-0.1,2.5-0.4,3.9c-0.7,3.5-1,5.7-1,6.5v32                    c-0.1,0.4-0.4,0.7-0.8,1c-0.4,0.2-0.8,0.4-1.2,0.4c-0.5,0-0.9-0.1-1.2-0.4c-0.3-0.3-0.5-0.7-0.5-1.3v-23.3l-1.6,3.4                    c-0.6,0.7-1.3,1.1-2.2,1.1c-0.5,0-0.9-0.2-1.2-0.5c-0.3-0.3-0.4-0.8-0.3-1.5l3.7-6.8c0.9-3.1,1.7-6.7,2.5-10.7                    c0.2-1.3,0.5-3.1,0.9-5.1c0.2-0.4,0.5-0.7,0.8-0.9c0.3-0.2,0.7-0.3,1.1-0.3c0.3,0,0.6,0,0.8,0.1                    C279.2,177.4,279.3,177.5,279.5,177.5z M314.9,184.4c0.2,0.7,0.3,1.4,0.3,2.1c0,0.7-0.1,1.6-0.3,2.5c-0.3,1.4-0.6,2.9-0.9,4.3                    c0,1-0.3,1.7-0.8,2.2c-0.4,0.3-0.9,0.5-1.6,0.5c-0.3,0-0.6,0-0.9-0.1c-0.1,0-0.2,0-0.4-0.1c-0.1-0.5-0.2-1-0.2-1.5                    c0-0.8,0.1-1.8,0.4-2.9c0.4-1.7,0.6-2.7,0.7-3c0-0.5-0.2-0.9-0.6-1.2c-0.1-0.1-0.3-0.2-0.6-0.3h-8.7v33.6c-0.1,1-0.7,1.8-1.7,2.3                    c-0.3,0.2-0.8,0.3-1.4,0.5h-1.6c-1.6-0.3-3.1-0.7-4.6-1.1c-0.5-0.2-1.2-0.4-2-0.7c-0.4-0.4-0.7-0.9-0.7-1.3c0-0.4,0.3-0.8,0.8-1.1                    c0.5-0.3,1.1-0.4,1.8-0.4c0.6,0,1,0.1,1.4,0.3c0.3,0,0.8,0.1,1.4,0.2c0.6,0.1,1,0.2,1.2,0.2c0.9,0,1.4-0.4,1.7-1.3v-31.1h-8.4                    c-0.8,2.3-1.9,4.7-3.3,7.2c-0.5,0.8-1.1,1.8-2,3.1c-0.2,0.5-0.5,0.9-1,1.1c-0.4,0.3-0.9,0.4-1.4,0.4c-0.5,0-0.9-0.1-1.3-0.4                    c-0.3-0.3-0.5-0.7-0.5-1.2c0-0.3,0.1-0.6,0.2-0.9c1.4-2.1,2.8-4.4,4.2-7.1c1-1.9,1.8-3.8,2.6-5.7c0.3-0.8,0.6-1.6,0.9-2.4                    c0.4-1.3,0.7-2.3,0.8-2.9c0.3-1.2,1-1.8,2-1.8c0.7,0.2,1.1,0.4,1.4,0.8c0.3,0.4,0.4,0.8,0.4,1.4c0,0.6-0.2,1.6-0.7,2.9                    c-0.3,0.8-0.4,1.3-0.5,1.7h21.4L314.9,184.4z M293.2,195.5l-1.2,5.6c-1.8,5.4-3.5,10.8-5.3,16.1c-0.4,0.8-1,1.2-1.9,1.2                    c-0.5,0-1-0.2-1.4-0.5c-0.4-0.3-0.6-0.8-0.6-1.3c0-0.2,0.1-0.4,0.2-0.7c1.2-2.8,2.4-5.7,3.4-8.8c0.7-2,1.4-4.4,2.1-7                    c0.2-0.9,0.5-1.9,0.7-2.8l0.9-3.7c0.4-0.7,0.9-1.1,1.5-1.1c0.4,0,0.8,0.2,1.1,0.5c0.1,0.1,0.3,0.3,0.5,0.6V195.5z M313.5,218                    c-0.3,0.4-0.6,0.6-0.8,0.8c-0.3,0.1-0.6,0.2-0.8,0.2c-0.4,0-0.8-0.1-1.1-0.4c-0.1-0.1-0.3-0.2-0.5-0.4l-1.9-7.8                    c-0.9-3.6-1.5-6.1-1.8-7.5s-0.9-3.4-1.6-6c-0.2-0.8-0.4-1.5-0.6-2.3c0.1-0.5,0.4-0.9,0.9-1.2c0.1-0.1,0.4-0.2,0.7-0.3                    c0.9-0.1,1.4,0.2,1.7,1c0.3,0.8,0.6,1.6,0.9,2.3c0.8,2.9,1.4,5.3,1.9,7.2c0.8,3.3,1.4,5.8,1.8,7.3                    C312.6,213.3,313.1,215.7,313.5,218z"/>
                <path fill="#FFFFFF" d="M340.8,219.1c-0.1,0.8-0.6,1.4-1.3,1.9c-0.2,0.2-0.6,0.4-1.1,0.6h-12.7                    c-0.8-0.2-1.3-0.7-1.8-1.4c-0.1-0.2-0.3-0.6-0.4-1v-32.6c0.1-0.8,0.5-1.4,1.2-1.9c0.2-0.2,0.5-0.4,1-0.6h4.3l0.6-6.2l0.6-0.6                    c0.3-0.4,0.6-0.7,1-0.7c0.4,0,0.6,0,0.9,0.1c0.4,0.3,0.7,0.7,0.9,1.1c0.2,0.4,0.3,0.9,0.3,1.4c0,0.6-0.1,1.2-0.3,1.9                    c-0.4,1.7-0.6,2.7-0.6,3h5c0.9,0.1,1.6,0.6,2.1,1.3c0.1,0.2,0.3,0.6,0.4,1.1V219.1z M337.1,216.6v-12.7h-10.5v12.7                    c0.3,0.8,0.7,1.2,1.2,1.2c0.5,0,0.9,0.1,1.2,0.1h6.8c0.5,0,0.9-0.2,1.1-0.6C337,217.1,337.1,216.9,337.1,216.6z M337.1,200.5V189                    c0-0.5-0.2-0.9-0.6-1.1c-0.1-0.1-0.3-0.1-0.6-0.2h-7.8c-0.4,0.1-0.7,0.4-1,0.7c-0.1,0.1-0.2,0.3-0.3,0.5v11.5H337.1z M364.7,200.5                    l-0.6,13.7c0,2.3-0.3,4.3-0.8,5.8c-0.8,2.3-2.2,3.5-4.1,3.5h-2.8c-2-0.3-4-0.7-6.1-1.1c-0.8-0.2-1.7-0.4-2.9-0.7                    c-0.4-0.1-0.7-0.4-0.9-0.8c-0.2-0.4-0.4-0.8-0.4-1.3c0-0.9,0.4-1.5,1.3-1.6c1,0.2,2.5,0.6,4.3,1.1c1.9,0.5,3.3,0.9,4.3,1.1h1.6                    c0.8-0.2,1.4-0.7,1.9-1.4c0.2-0.2,0.4-0.6,0.6-1l1.2-17.1v-12.7c-0.1-0.4-0.4-0.7-0.7-1c-0.1-0.1-0.3-0.2-0.5-0.3h-11.5l-2.5,6.5                    c0,0.4-0.2,0.7-0.5,0.9c-0.3,0.2-0.7,0.3-1.1,0.3c-1,0-1.6-0.4-1.6-1.2c0.5-2.5,1.1-5.2,1.9-8.1c0.2-1,0.6-2.2,0.9-3.7                    c0.1-1.1,0.2-2.1,0.3-2.9c0.1-0.8,0.5-1.4,1.3-1.8c1,0,1.6,0.3,2,0.8c0.3,0.5,0.5,1.2,0.5,2.1c0,0.6,0,1.1-0.1,1.6                    c-0.1,0.5-0.1,1.1-0.2,1.7h13c0.8,0.1,1.3,0.6,1.8,1.3c0.1,0.2,0.3,0.6,0.4,1.1V200.5z M357.6,208.6c0.3,0.4,0.4,0.9,0.4,1.2                    c0,0.5-0.2,0.9-0.5,1.2c-0.3,0.3-0.7,0.5-1.2,0.5c-0.3,0-0.7-0.1-1.2-0.4l-7.4-16.1c0.1-0.5,0.3-0.9,0.7-1.2                    c0.3-0.3,0.8-0.5,1.4-0.5c0.3,0,0.6,0,0.7,0.1c0.1,0,0.2,0,0.3,0.1c1.3,3.5,2.9,7,4.6,10.6C355.9,205.2,356.7,206.7,357.6,208.6z" />
            </g>
            <g >
                <path fill="#FFFFFF" d="M101.9,273.3l5.9,4.5c0.2,0.3,0.3,0.6,0.3,0.9s0.1,0.5,0.1,0.6c0,0.5-0.2,0.9-0.5,1.3                    c-0.3,0.3-0.8,0.5-1.3,0.5c-0.2,0-0.5-0.1-1-0.2l-6-4.9c-1.3,1.6-2.3,2.8-3.1,3.6c-2.4,2.6-4.2,4.2-5.6,4.8c-1.4,0-2.2-0.4-2.2-1.3                    c0-0.4,0.2-0.9,0.6-1.6c1.7-1.4,3.5-3.1,5.3-5c0.6-0.6,1.3-1.4,2.1-2.4c-0.9-0.8-1.6-1.4-2.2-1.9c-1.7-1.4-3-2.7-4-3.7                    c-0.4-0.4-0.7-1-0.7-1.8c0-0.4,0-0.7,0.1-1c0-0.2,0.2-0.5,0.4-1.1c0.7-1.9,1.6-4.9,2.6-8.9c0.3-1.3,0.7-3,1.3-5.2h-3.3                    c-0.6,0-1.1-0.2-1.4-0.5c-0.3-0.3-0.5-0.8-0.5-1.2c0-0.5,0.1-0.9,0.4-1.2c0.3-0.3,0.7-0.5,1.3-0.5h4.3l1.4-7.8                    c0.1-1,0.7-1.5,1.7-1.5c0.5,0,0.9,0.2,1.3,0.5c0.4,0.3,0.5,0.8,0.5,1.3c0,1-0.2,2.5-0.6,4.6c-0.1,0.7-0.3,1.6-0.6,2.8h6.2                    c0.8,0.1,1.5,0.3,1.9,0.7c0.4,0.4,0.7,1,0.9,1.9c0.2,0.8,0.3,1.8,0.3,2.9c0,3-0.6,6.6-1.8,10.7                    C105.2,267.4,103.7,270.8,101.9,273.3z M104.6,252.7c0-0.4,0.1-0.7,0.1-0.8c0-0.4-0.1-0.8-0.3-0.9c-0.3-0.3-0.8-0.4-1.6-0.4h-5                    c-0.6,2.6-1.2,4.9-1.7,6.7c-0.7,2.1-1.3,4.1-1.9,6.2c-0.1,0.4-0.3,0.9-0.4,1.3c-0.2,0.7-0.3,1.1-0.3,1.3c0,0.3,0.3,0.7,0.8,1.3                    c0.6,0.6,1.4,1.3,2.6,2.3c1,0.8,1.7,1.3,2.1,1.6c0.9-0.6,2-3.1,3.4-7.7C103.9,259,104.6,255.4,104.6,252.7z M132,264h-7.1                    c0.3,1.3,0.5,2.4,0.6,3.2c0.4,2.6,0.7,4.7,0.7,6.4c0,0.4,0,0.8,0,1c0,0.2-0.1,0.4-0.1,0.6c-0.3,3.5-1.2,6.1-2.6,7.8                    c-1.4,1.7-3.3,2.5-5.6,2.5c-2.1,0-4.5-0.7-7.3-2.1c-0.7-0.3-1-0.9-1-1.8c0-0.4,0.1-0.9,0.4-1.2c0.3-0.4,0.7-0.5,1.1-0.5                    c0.3,0,0.7,0.1,0.9,0.2c2.2,1.1,4.1,1.6,5.5,1.6c1.4,0,2.6-0.5,3.4-1.6c0.8-1.1,1.3-2.8,1.6-5.3c0-0.2,0-0.5,0-0.8                    c0-0.3,0-0.5,0-0.6c0-1.8-0.2-3.8-0.6-6.2c-0.1-0.8-0.4-1.8-0.7-3.2h-11.8c-0.6,0-1-0.2-1.2-0.5c-0.3-0.3-0.4-0.7-0.4-1.1                    c0-0.5,0.1-1,0.4-1.3c0.3-0.4,0.7-0.6,1.2-0.6h10.5c-0.4-1-0.7-1.7-0.9-2.2c-0.7-1.6-1.3-2.6-1.7-3.2c-0.2-0.3-0.3-0.6-0.3-0.9                    c0-0.6,0.3-1.2,0.9-1.7c0.6-0.5,1.2-1.1,1.9-1.8c2.2-2.1,3.4-3.3,3.7-3.6c0.7-0.6,1-1.1,1-1.3c0-0.3-0.6-0.5-1.9-0.5h-12.1                    c-0.5,0-0.9-0.2-1.2-0.5c-0.3-0.3-0.4-0.7-0.4-1.2c0-0.4,0.1-0.8,0.4-1.2c0.3-0.4,0.7-0.5,1.2-0.5H128c0.5,0,1,0.2,1.4,0.7                    c0.4,0.5,0.7,1,0.7,1.6c0,0.3-0.1,0.6-0.3,0.8c-1,1.3-3.1,3.7-6.4,7c-1.3,1.3-1.9,2.1-2,2.3c0,0.6,0.4,1.6,1.1,3.2                    c0.5,1,1,2.1,1.6,3.1h7.9c0.5,0,0.9,0.2,1.1,0.5c0.3,0.3,0.4,0.8,0.4,1.2c0,0.5-0.1,0.9-0.4,1.2C132.9,263.8,132.6,264,132,264z"/>
                <path fill="#FFFFFF" d="M184.4,285.3h-1.6c-2.7-0.8-5.3-1.9-7.9-3.3c-2.1-1.2-3.9-2.4-5.6-3.6                    c-0.7-0.6-1.4-1.2-2.1-1.8c-2.2,1.5-4.7,3.1-7.6,4.7c-2.2,1.2-4.3,2.3-6.3,3.2c-1.6,0.8-2.5,1.1-2.6,1.1c-0.4,0.4-1,0.7-1.7,0.7                    c-0.7,0-1.4-0.2-1.9-0.7c-0.5-0.5-0.8-1.1-0.8-1.8c0-0.4,0.1-0.8,0.4-1.3c4.2-1.5,8.3-3.2,12.3-5.3c1.4-0.7,3.1-1.6,5.1-2.8                    c-1.7-1.8-3.1-3.9-4.4-6.4c-0.9-1.7-1.7-3.5-2.3-5.3c-0.2-0.8-0.5-1.5-0.7-2.3c-0.1-0.6-0.2-1.2-0.3-1.7c-0.1-0.5-0.4-0.7-0.9-0.5                    c-1,2.7-2,5.4-3,8.2c-1.1,2.9-2.3,5.4-3.5,7.7c-1.4,2.6-2.9,5-4.7,7.1c-0.4,0.8-1,1.2-1.9,1.2c-0.5,0-1-0.2-1.4-0.5                    c-0.4-0.3-0.6-0.8-0.6-1.3c0-0.2,0.1-0.4,0.2-0.7l3.7-6.2c2.5-4.2,4.5-8.3,6.1-12.3c1.7-4.6,2.8-8.9,3.3-13.2h-11.2                    c-0.4-0.1-0.7-0.4-0.9-0.8c-0.2-0.4-0.4-0.8-0.4-1.3c0-0.9,0.4-1.5,1.3-1.6h11.8c0-1.1,0.1-2.5,0.3-4c0.1-0.5,0.2-1.1,0.3-1.9                    l0.9-0.3c0.9,0,1.6,0.2,1.9,0.6c0.3,0.4,0.5,1,0.5,1.8c0,0.6-0.1,1.2-0.2,1.8c-0.1,0.7-0.3,1.3-0.4,1.9h26.1c0.4,0.1,0.8,0.3,1,0.5                    s0.3,0.7,0.3,1.1c0,1.1-0.4,1.8-1.3,2.1h-26.4l-1.2,6.5h21.1c0.8,0.1,1.4,0.5,1.9,1.2c0.2,0.2,0.4,0.5,0.6,1v1.9                    c-0.6,2.9-1.7,5.7-3.5,8.4c-1.6,2.6-3.5,4.9-5.8,7.1c2.6,1.6,5.4,3.1,8.5,4.7c1,0.5,2.3,1.1,3.9,1.9c0.7,0.1,1.3,0.4,1.8,1                    c0.6,0.6,0.9,1.2,0.9,1.8C185.5,284.4,185.1,284.9,184.4,285.3z M173.8,258.3h-14c0.5,2.4,1.4,4.8,2.7,7.1c1,1.7,2.1,3.3,3.4,4.8                    c1,1.2,1.6,1.8,1.7,1.8c1.4-1.3,2.8-2.9,4.1-4.7c0.4-0.6,0.9-1.4,1.5-2.4c0.3-0.7,0.7-1.5,1.1-2.3c0.4-0.8,0.6-1.6,0.6-2.2                    C175,259.4,174.6,258.7,173.8,258.3z"/>
                <path fill="#FFFFFF" d="M205.8,275.6c-0.2,0.1-0.4,0.3-0.8,0.4h-9.3c-0.7-0.1-1.2-0.4-1.7-0.9                    c-0.1-0.1-0.3-0.3-0.5-0.6v-31l0.6-0.9l1.2-0.6h9.6c0.6,0.1,1,0.4,1.2,0.8c0.1,0.2,0.2,0.6,0.3,1.1v30.1                    C206.6,274.6,206.4,275.2,205.8,275.6z M202.8,271.4c0.1-0.3,0.1-0.8,0.1-1.3v-23.6l-0.9-1.2h-3.4c-0.4,0.1-0.7,0.4-1,0.8                    c-0.1,0.1-0.2,0.3-0.3,0.5V271c0,0.4,0.1,0.7,0.4,1c0.1,0.1,0.4,0.2,0.8,0.3h3.4C202.4,272,202.7,271.7,202.8,271.4z M236.1,272.5                    l-1.2-1.2h-1.6c-0.2,0.1-0.4,0.2-0.5,0.3c-0.3,0.3-0.6,0.6-0.7,1v3.7c-0.3,0.9-0.6,1.6-0.9,2c-0.9,1.3-2.2,2-3.7,2h-5.6                    c-1.3,0-2.7-0.1-4-0.1c-2.9-0.2-4.5-1.4-5-3.6v-13.3h19.9c0.4-0.1,0.8-0.2,1-0.3c0.7-0.3,1.1-0.8,1.2-1.6v-19.5                    c-0.1-0.3-0.2-0.6-0.3-0.7c-0.3-0.5-0.7-0.9-1.2-1.1h-22.7c-0.2,0.1-0.4,0.2-0.5,0.3c-0.6,0.5-0.9,1.1-1.1,1.9v1.9v33.5                    c0,1.9,0.7,3.3,2.1,4.4c1.1,0.8,2.7,1.4,4.7,1.8l6.2,0.3h6.8c0.1,0,0.3,0,0.5,0.1c1.5,0,2.8-0.5,4-1.6s1.9-2.3,2-3.8l0.6-3.7V272.5                    z M212.8,259.5v-14.6c0-0.3,0.1-0.5,0.2-0.6c0.2-0.4,0.6-0.6,1.1-0.6h5.6v15.8H212.8z M231,258.9c-0.2,0.4-0.6,0.6-1.1,0.6h-6.5                    v-15.8h6.5c0.3,0,0.5,0.1,0.6,0.2c0.4,0.2,0.6,0.6,0.6,1.1v13.3C231.1,258.5,231,258.7,231,258.9z"/>
                <path fill="#FFFFFF" d="M253.2,248.6c0,0.8-0.3,3.3-1,7.7c-0.6,4.4-1.3,8.5-1.8,12.2c-0.3,2-0.7,4-1,5.9                    c-0.4-1.9-0.7-3.8-1.1-5.7c-0.5-3-1.1-6.9-1.9-11.6c-0.7-4.7-1.1-7.5-1.1-8.4c0-1,0.4-1.7,1.1-2.2s1.6-0.8,2.6-0.8                    c1.1,0,2,0.3,2.9,0.8C252.7,247.1,253.2,247.8,253.2,248.6z M249.4,284.4c-1.1,0-2.1-0.4-2.7-1.1c-0.7-0.8-1-1.6-1-2.6                    c0-1,0.3-1.8,0.9-2.5c0.6-0.7,1.5-1,2.6-1s2,0.4,2.7,1.1c0.7,0.8,1,1.7,1,2.7c0,1-0.3,1.8-0.9,2.5                    C251.4,284.1,250.6,284.4,249.4,284.4z"/>
            </g>
        </symbol>
        <!-- 404 viewBox="0 0 200 150" -->
        <symbol id="svg-404">
            <path fill="#C0D5F9" d="M60.9,43c5-4.2,10.5-7.1,16.2-9.9c3.6-1.8,7.2-3.7,11.2-4.6c1.3-0.1,1.7,0.9,2.2,1.7c0.8,1.2,1.5,2.5,2.3,3.7                c0.8,1.2,1.9,1.8,3.3,0.9c1.4-0.9,2.5-1.8,1.8-3.8c-0.5-1.4-2.1-2.4-1.5-4.2c4.3-0.4,8.4,0.5,12.3,2.1c0.7,0.3,1.6,0.5,2.4,0.7                c-0.1,0.9-0.9,1.1-1.5,1.5c-6.1,3.4-9,8.6-8.3,15.6c0.3,3.2-0.7,6.2-0.4,9.3c0.3,3.3-0.8,6.8,1.1,9.9c0.2,0.4,0.3,0.9,0.2,1.3                c-0.7,2.7,1.7,1.9,2.4,1.7c1-0.2,1.6-0.2,2.1,0.5c0.6,0.9,0.8,1.9,0.3,2.9c-0.2,0.4-0.5,0.8-0.9,1c-5.5,3.8-7.6,9.8-10.3,15.4                c-1.5,3.1-2,3.1-5,1.3c-3.5-2.2-6.2-5.3-9.1-8.1c-1.8-1.8-3.9-2.8-6.5-1.8c-4.3,1.6-5.5,6.9-1.9,9.9c6.4,5.5,12.6,11.4,20.2,15.3                c1.4,0.7,1.5,1.8,1.2,3c-1.2,5.5-2.4,11-4.2,16.3c-0.9,2.6-0.4,3.9,2,5.2c2.5,1.3,5.2,1.8,7.9,2.4c3,0.6,4,2.7,2.2,5.2                c-1.3,1.9-2.7,3.7-3.6,5.9c-0.4,0.9-1.2,1.4-2.2,1.4c-4.2,0.2-8.3,0.2-12.5,0c-0.5,0-0.9-0.3-1.1-0.7c2.5-4.2,0.4-7.5-2.4-10.3                c-4.8-4.6-10.4-8.3-16.8-10.4c-8.3-2.7-15.9-6.4-22.3-12.3c-6.3-5.8-9.8-13.2-10.6-21.8c-1-11,4-19.5,10.7-27.5                C46,56.7,51.7,50.7,60.9,43z"/>
            <path fill="#C0D5F9" d="M133,56.8c1.5,4.6,5.6,6.9,9.1,9.6c9.7,7.3,20.8,11.1,32.8,12.7c5.2,0.7,10.3,2,15.1,4.1                c6.2,2.7,9.9,7.7,8.7,12.9c-1.2,5.2-3.7,10-7.4,14c-5.6,6.2-12.9,8.5-20.9,9.3c-9,0.9-14.7,6.3-18.4,14c-1.7,3.4-2.5,7.1-3,10.8                c-0.6,0.9-1.6,0.8-2.5,0.8c-3.3,0-6.6,0-10,0c-1.8,0-3-0.6-3.6-2.4c-0.4-1.3-1.3-2.4-2-3.6c-2.2-3.4-1.1-6,2.7-6.8                c2.3-0.4,4.5-0.9,6.6-1.9c2.9-1.4,3.5-2.7,2.5-5.7c-1.2-4.1-1.2-4.2,3-5.2c1.8-0.4,3.6-0.9,5.3-1.6c3.5-1.4,5.2-4.5,4.5-8.2                c-0.5-2.6-0.7-5,0.5-7.5c1-2,0-4-1.2-5.7c-6-8.7-13.1-16.2-22.8-20.9c-1.3-0.6-2.7-1.2-3.7-2.4c-0.3-0.5-0.2-1.1-0.1-1.6                c1-2.7,1-2.7,2.4-2.3C132.4,65.2,131.4,60.8,133,56.8z"/>
            <path fill="#0F60EB" d="M133,56.8c-0.7,3.2,0.7,6.7-1.2,9.9c-0.7,1.2,0.1,3.3,0.2,5.1c-1.5-0.5-1-2-1.9-2.8c-1.2,0.7-0.4,2.1-1.1,2.9                c-1,0.3-0.9-1.1-1.7-1.2c0,1,0.9,1.4,1.1,2.1c11.2,5.1,20.1,12.9,26.9,23.1c1.8,2.7,2.5,5.4,0.7,8.2c-0.8,1.2-0.4,2.3-0.1,3.4                c0.8,3.4,1,6.8-1.9,9.5c-1.8,1.8-4.3,2-6.5,2.8c-0.6,0.2-1.3,0.3-1.9,0.4c-3.5,0.8-3.5,0.8-2.2,4.1c1.3,3.6,0.7,5.1-2.9,6.8                c-2.3,1.1-4.8,1.4-7.2,2c-0.9,0.2-2.4-0.5-2.6,0.8c-0.3,1.5-0.7,3.2,0.5,4.5c1.2,1.3,2.1,2.8,2.5,4.6c0.2,1.2,0.9,1.4,2,1.4                c4.4-0.1,8.9-0.1,13.3-0.1c5.7,0,11.5,0,17.2,0.1c0.9,0,2.3-0.4,2.3,1.2c0,1.4-1.3,1-2.2,1c-33.5,0-67.1,0-100.6,0                c-0.9,0-2.1,0.3-2.2-1c-0.1-1.6,1.4-1.2,2.3-1.2c5.7-0.1,11.5-0.1,17.2-0.1c4.4,0,8.9,0,13.3,0.1c1.2,0,1.8-0.4,2.1-1.6                c0.4-2,1.4-3.7,3-4.9c1.4-1.1,1.1-2.5,1-3.8c-0.2-1.5-1.6-0.8-2.5-1c-2.9-0.7-5.8-1.1-8.4-2.6c-2.5-1.5-3-3-2-5.8                c2-5.5,3.1-11.2,4.4-16.8c0.2-0.8,0.4-1.6-0.9-1.8c-2.4-0.4-4.1-2-5.9-3.5c-4.7-3.7-9.4-7.5-14-11.3c-3.4-2.7-3.8-7.1-1.1-10                c2.7-2.9,6.8-3,9.8,0.1c3.2,3.2,6.3,6.5,10.2,8.9c1.4,0.9,2,0.7,2.6-0.8c1.5-3.4,3.1-6.7,4.8-10c1.4-2.6,3.5-4.8,5.9-6.5                c0.9-0.6,1.5-1.3,1-2.5c-0.3-0.6-0.1-1.7-1.2-1.5c-0.9,0.1-0.4,1.1-0.5,1.6c-0.1,0.3-0.2,0.7-0.3,1.1c-1.3-0.7-0.4-2-1.1-2.8                c-1.7,0-0.8,2-1.9,2.6c-0.9-0.1-0.6-0.8-0.5-1.2c0.7-2.1,0.6-4-0.7-6c-1.3-2.1,0-4.6-0.3-7c-0.5-3.7,0.5-7.5,0.3-11.3                c-0.4-8,3.5-13.3,10.7-16.4c10.5-2.4,18.9,2.3,21.2,11.8c0.5,1.9,0.5,3.8,0.3,5.8C132,50.5,133.3,53.6,133,56.8z"/>
            <path fill="#0F60EB" d="M98.6,150c-8.6,0-17.2,0-25.8,0c-0.9,0-2.4,0.4-2.4-1.1c0-1.5,1.4-1.1,2.4-1.1c17.4,0,34.7,0,52.1,0                c0.9,0,2.4-0.4,2.4,1.1c0,1.5-1.4,1.1-2.4,1.1C116.1,150,107.3,150,98.6,150z"/>
            <path fill="#0F60EB" d="M145.1,147.7c4.2,0,8.5,0,12.7,0c0.9,0,2-0.2,2,1.2c-0.1,1.2-1.1,1-1.9,1c-8.6,0-17.1,0-25.7,0                c-0.8,0-1.8,0.1-1.9-1.1c0-1.2,1-1.1,1.8-1.1C136.4,147.7,140.7,147.7,145.1,147.7z"/>
            <path fill="#1A67EC" d="M81.5,72c-1.2-0.8-2.2-1.4-3.1-2.1c-1.6-1.2-1.4-2.7-0.4-4.1c0.7-1,1.2-2.1-0.2-2.8c-3.2-1.6-2.9-3.6-1-6                c0.3-0.3,0.3-0.8,0.5-1.5c1.3,1.3,0.5,2.3-0.2,3.1c-1,1.3-0.7,2.2,0.6,2.9c2.2,1.1,2.6,2.7,1.3,4.7c-0.9,1.4-0.7,2.4,0.8,3.1                C80.8,69.8,81.6,70.3,81.5,72z"/>
            <path fill="#1D69EC" d="M69.6,70.5c-4.5-1-4.6-1.1-4.5-5.5c0-0.8-0.4-1.4-1.1-1.8c-3.7-2.2-3.7-2.2-2.7-6.8c1.3,0.5,1.1,1.5,0.8,2.5                c-0.5,1.6-0.1,2.6,1.7,3.1c1.7,0.4,2.9,1.6,2.3,3.4c-0.7,2.1-0.1,3.1,2,3.6C68.9,69,69.8,69.3,69.6,70.5z"/>
            <path fill="#1D69EC" d="M60.2,75.6c-2.9-0.6-5.9-0.8-5.5-4.9c0.1-0.7-0.3-1.5-1-1.5c-4.2-0.4-4.2-3.3-4.1-6.6c1.4,0.4,1.3,1.5,1.2,2.4                c-0.1,1.7,0.7,2.6,2.3,2.8c1.7,0.2,2.8,1.1,2.7,2.9c-0.1,2,0.6,3.1,2.7,3.3C59.4,74.1,60.3,74.3,60.2,75.6z"/>
            <path fill="#9DBEF6" d="M128.5,72.8c-0.9-0.4-2.4-0.4-2.1-2c0.1-0.7,0.1-1.6,1-1.8c1.1-0.2,1,0.8,1,1.5c0,0.6,0.1,1.1,0.7,1.4                C128.9,72.2,128.7,72.5,128.5,72.8z"/>
            <path fill="#FEFEFE" d="M81.9,91.1c2.6-3.3,2.6-3.3,5.9-1c1.7,1.2,3.6,2.3,5.2,3.6c1.3,1,1.8,0.6,2.4-0.7c1.5-3.4,3.2-6.6,4.7-10                c2.1-4.8,5.7-8.1,10.3-10.5c0.4-0.2,0.9-0.6,1.3-0.5c4.1,1.1,8.4-0.6,12.5,1.2c9.4,4.1,18,9.4,24.6,17.4c1.2,1.5,1.1,2.1-0.5,3                c-4.6,2.7-4.7,2.9-8-1.3c-3.1-4-6.9-6.9-11.1-9.4c-0.7-0.4-1.5-1.2-2.2-0.3c-0.8,1,0,1.7,0.9,2.2c1.1,0.6,1.5,1.1,0.3,2.2                c-2.6,2.4-4,5.5-4.4,9c-0.1,0.6,0.3,1.7-0.9,1.7c-1.1,0-2.3,0.5-3.2-0.4c-1.9-1.8-5.4-1.8-7.4,0.1c-0.4,0.4-6.9,0.6-7.3,0.2                c-0.6-0.6-0.3-1.4-0.3-2.1c-0.1-1.4,0-2.8,0-4.2c0-0.8-0.1-1.6-1-1.7c-1.2-0.1-1.2,0.8-1.2,1.7c0,0.6-0.1,1.3-0.1,1.9                c-1.1,2.4-2.8,4.3-4.5,6.2c-1.2,1.4-2.9,2.1-4.7,1.1c-4.1-2.1-7.5-5.2-11.1-8.2C81.6,92.2,81.5,91.7,81.9,91.1z"/>
            <path fill="#EDF8FE" d="M117.5,111.2c0.3-1.1,2.4-0.2,2-1.7c-0.6-2.1-2.5-1-3.8-1.1c-1.1-0.1-2.7-0.8-3.2,1c-0.1,0.5,0.3,1,0.7,1                c2.5-0.2,1.9,1.6,1.9,2.9c0,8.1,0,16.2,0,24.6c-1.9-1.1-3.6-2.2-5.6-2.6c-1-1-0.9-2.4-0.9-3.7c0-8.6,0-17.2,0-25.8                c0-1.3-0.1-2.6,0.9-3.7c1.4-0.5,2.6,0.8,3.6,0.9c2.2,0,4.5,0.9,6.8-0.7c1.9-1.4,3.5,0,3.3,2.4c-0.2,2.6-0.3,5.2-0.3,7.7                c0,3.2,1.2,6,4.2,7.5c1,0.5,1.2,1.2,1.2,2.2c0,4.1,0,8.1,0,12.2c0,1,0,1.8-1.5,1.3c-2.5-0.8-4.9-0.4-7.3,0.4                c-1.2-1.1-0.9-2.5-0.9-3.9c0-5.6,0-11.3,0-16.9C118.7,114,118.9,112.3,117.5,111.2z"/>
            <path fill="#FEFEFE" d="M117.4,66.2c-6.9,0.5-12.1-4-12.5-11c-0.1-1.3,0.1-2.6,0-3.9c-0.4-3.7,0.4-5.8,4.4-7.9c4.2-2.2,7-0.3,10.4,0.5                c1.5,0.3,2.9,1.2,4.4,1.3c1.4,6.4,1.8,12.6-2.2,18.3C120.8,65.1,119,65.6,117.4,66.2z"/>
            <path fill="#FEFEFE" d="M102.4,43.5c0.9-6.5,6-11.5,12.1-12.2c6.5-0.7,12.4,2.9,14.8,8.8c0.7,1.8,1,3-1.6,3.2c-3.5,0.2-7.1,1-8.8-3.5                c-0.3-0.8-1.3-0.9-1.4-0.1c-0.2,2.8-1.8,1.3-2.8,1c-0.8-0.3-1.6-0.9-2.4-1.4c-0.7-0.4-1-1.7-2-1.2c-0.9,0.5,0,1.2,0.1,1.9                c0.2,1.1-0.8,1.6-1.6,2c-2,0.9-4,1.7-6,2.6C101.9,44.6,102.1,44.1,102.4,43.5z"/>
            <path fill="#3E8CFE" d="M143.4,104.5c2.7-0.4,4.2,2.6,6.7,2.7c1.8,1.6,2,3.4,1.1,5.5c-1,0.3-2.1,0.4-3,1.3c0.6,0.7,1.3,0.4,1.9,0.4                c0.4-0.3,1-0.3,1.1,0.1c0.4,1-0.3,1.6-1.1,2.1c-6.4,2.5-13.1,2.4-19.9,2.2c-1.9-0.1-3.1-1.4-4.2-2.9c1.9-0.2,3.6,1.3,5.5,0.5                c-0.1-0.3-0.2-0.6-0.3-0.6c-7-1.3-6.3-1.7-5.9-9.7c0.1-1.2,0.3-2.5,0.4-3.8c0.9-0.2,1.2,0.5,1.7,0.9c1.4,1.7,3.3,1.7,5.2,1.6                c1,0,2-0.1,3,0.1c0.6,0.1,1.1,0.3,1.4,0.9c1,2.7-0.1,5.1-1.3,7.4c-0.9,1.7-2.1,1.5-4.5-0.6c2.6,2.9,2.6,2.8,6.6,2.4                c2.1-0.2,4.1-1.1,6.2,0c0.9,0.5,1.6,0,1.9-1c0.3-1,0.9-1.8,1.3-2.6c-1.8,2.4-2.7,2.4-4.7,0c-1.4-1.7-2.1-3.7-1.9-5.9                C141.4,104.3,142.7,105.1,143.4,104.5z"/>
            <path fill="#3E8CFE" d="M102.4,116.7c0,3.9-0.1,7.8,0,11.6c0.1,2.3-0.5,3.4-3,2.5c-0.3-0.1-0.7-0.2-1.1-0.2c-7.2-1.3-7.5-2-5.5-8.9                c1.3-4.6,2.3-9.3,3.4-13.9c0.6-2.8,3.2-3.7,5-5.2c1.1-0.9,1.2,0.8,1.2,1.6C102.5,108.4,102.4,112.5,102.4,116.7z"/>
            <path fill="#FEFEFE" d="M109.6,102.4c0,11,0,22.1,0,33.1c-1.6,0-4,0.7-4.6-0.1c-0.8-1-0.3-3.1-0.3-4.8c0-8.3,0.1-16.6-0.1-24.9                c-0.1-2.7,0.6-3.9,3.4-3.4C108.5,102.4,109.1,102.3,109.6,102.4z"/>
            <path fill="#3E8CFE" d="M130.7,126c0-4.8,0-4.8,4.8-4.8c4.9,0,5.1,0.2,6.4,5.1c0.4,1.4-0.5,1.9-1.3,2.4c-2.6,1.5-5.5,2-8.4,2.5                c-1.1,0.2-1.5-0.5-1.5-1.5C130.7,128.4,130.7,127.2,130.7,126z"/>
            <path fill="#ECF7FE" d="M81.9,91.1c1.9,2.9,5.1,4.3,7.6,6.6c0.5,0.4,1,0.8,1.5,1.2c3.3,2.5,4.7,2.2,7.3-1c1.3-1.5,2.2-3.4,4-4.5                c0.2,3.2-3.1,8.7-6,10.1c-1.8,0.9-3.5,0.6-4.9-0.5c-3.7-2.8-7.4-5.5-10.9-8.5C78.3,92.6,81.3,92.2,81.9,91.1z"/>
            <path fill="#FCFDFE" d="M155,100.5c0,2.2-2.1,4.5-4.4,4.5c-2.3,0-5.6-3.5-5.7-6c0-0.6,5.6-4.4,6.4-4.3C152.2,94.6,155,99.1,155,100.5z" />
            <path fill="#FDFDFE" d="M72.5,85.9c0-2.4,2.1-4.4,4.4-4.4c1.6,0,6,3.5,6,4.7c0,0.4-4.8,5.6-5.2,5.6C76.2,91.9,72.5,87.6,72.5,85.9z"/>
            <path fill="#EEF8FE" d="M117.4,66.2c4.9-2.8,6.9-7.1,6.7-12.6c-0.1-2.8,0-5.5,0-8.3c2.6-0.6,3.8,0.2,3.5,3.1c-0.3,2.5,0,5.2-0.2,7.7                C127,61.5,122.8,65.6,117.4,66.2z"/>
            <path fill="#3D8CFE" d="M143.4,104.5c-0.5,0.8-1.8,0.2-2.2,1.1c-1.5,0.1-2.9,0.5-4.4,0.5c-0.2-0.4-0.6-0.5-1.1-0.6                c1.4-3.5,1.3-5.7-0.3-6.3c-3.2-1.2-6.8,0.3-8,3.5c-0.1,0.3-0.3,0.5-0.5,0.6c-0.3-0.4-0.7-0.7-1-1.1c0.3-5.9,3.3-8.1,9.1-6.3                c1.4,0.4,2.9,0.4,4.4,0.1c0.8-0.1,1.2,0.1,1.6,0.7c0.4,0.6-0.1,0.9-0.5,1.3c-1.5,1.7-0.9,3.6-0.3,5.4                C140.7,105.3,142.3,104.2,143.4,104.5z"/>
            <path fill="#FEFEFE" d="M117.5,111.2c2.1-0.3,2.2,0.9,2.2,2.5c0,7.5,0,15.1,0,22.6c-0.7,0.4-1.3,0.9-2.2,1.5                C117.5,128.7,117.5,119.9,117.5,111.2z"/>
            <path fill="#FAFCFE" d="M125.8,142.3c-0.2,0.6,0.3,1.5-0.6,2c-1.1-0.3-0.1-1.6-1.1-1.9c-1.1,0.2-0.2,1.6-1.1,1.9                c-1.1-0.2-0.2-1.5-1-1.9c-0.1,0-0.4,0-0.5,0.1c-0.5,1.5-2.9,2.5-4.4,1.9c-1-0.4-0.4-1.1-0.2-1.6c0.9-2.2,2.3-3.9,4.8-4.5                C124.8,138.1,126,139.3,125.8,142.3z"/>
            <path fill="#FBFCFE" d="M108.6,142.9c-0.5,1.5-0.8,1.6-0.9,1.1c-0.5-1.4-0.9-2.1-1.4,0c0,0.1-0.3,0.2-0.4,0.3                c-1.3-2.9-2.2,0.8-3.7,0.3c-1.5-0.5-1.8-0.8-1.2-2c1-2,2.3-3.7,4.7-4.2c1.6-0.5,2.8,0.1,3.7,1.4C110.2,141,110.3,142.1,108.6,142.9z                "/>
            <path fill="#3D8CFE" d="M126.1,94.7c1-2.7,1.9-4.5,3.5-6.1c1-1,1.9-1.5,3.3-0.5c1.6,1.1,1.9,2.6,1.7,4.3c-0.1,0.5-0.4,0.6-0.8,0.5                C131.2,92.4,129,93.3,126.1,94.7z"/>
            <path fill="#EAF6FE" d="M108.6,142.9c1.4-2.2,0.2-4-3-4.6c3-1.3,5.5-0.3,7.8,1.7c1.5,1.3,1.7,3.1,0.4,4c-1,0.7-3.3,1.6-4.3-0.8                C109.3,142.7,108.9,142.9,108.6,142.9z"/>
            <path fill="#E8F5FE" d="M125.8,142.3c-0.5-2.2-1.5-3.9-4.1-4.1c3.8-1.2,7.5,0.2,9.3,3.6c0.4,0.7,1.4,2,0.2,2.3                c-1.3,0.3-3.3,1.2-4.2-0.8C126.6,142.8,126.7,142.1,125.8,142.3z"/>
            <path fill="#FEFEFE" d="M118.5,99.7c0.4,2-0.2,2.7-2.4,2.6c-1.9,0-2.7-0.3-2.6-2.5c0.1-1.9,0.3-2.7,2.5-2.6                C117.8,97.3,119,97.5,118.5,99.7z"/>
            <path fill="#FEFEFE" d="M107.2,101.2c-1.2,0-2.4,0-3.6,0c-0.7,0-1.2-0.1-1.2-1c0-0.8,0.2-1.2,1.1-1.2c2.7,0,5.3,0,8,0                c0.7,0,0.9,0.3,1,1c0,0.8-0.2,1.2-1.1,1.2C110,101.1,108.6,101.2,107.2,101.2z"/>
            <path fill="#BAD1F9" d="M125.8,67.8c-0.1,1.3,0.2,3.1-1.1,3.1c-1.1,0-3.2-0.5-3.2-2.3c0-1.8,2.1-2.4,3.4-2.7                C126.1,65.5,125.5,67.2,125.8,67.8z"/>
            <path fill="#B6CEF8" d="M107,68.2c0.2-0.9-0.3-1.9,0.8-2.2c0.8-0.2,3.4,2,3.3,2.8c-0.1,1.7-1.7,2.2-2.7,2.2                C106.7,70.9,107.6,69,107,68.2z"/>
            <path fill="#337EFE" d="M151.2,112.8c-0.1-1.9-0.5-3.7-1.1-5.5c1.2,0.4,3-1.7,3.8,0.6C154.6,110.3,153,111.6,151.2,112.8z"/>
            <path fill="#E2EDFC" d="M116.1,68.5c0.7,0,1.3,0,1.8,0c0.5,0,1.1-0.1,1.2,0.7c0,0.7-0.4,1-1,1c-0.5,0.1-1.1,0.3-1.6,0.2                c-1.1-0.3-3.2,0.4-3.2-1.2C113.4,67.5,115.4,69,116.1,68.5z"/>
            <path fill="#FEFEFE" d="M121.5,101.2c-0.7-0.2-1.9,0.5-1.9-1.1c0-1.6,1.2-1.1,2-1.1c0.8,0,2-0.7,2.2,0.9                C123.8,101.4,122.6,101.2,121.5,101.2z"/>
            <path fill="#307CFC" d="M150.1,116.7c-0.1-0.7,1.9-1.5,0-2.2c1.2-0.6,2.4-1.2,3.9-2.1C153.6,115,152.4,116.3,150.1,116.7z"/>
            <path fill="#1969EF" d="M141.3,100.5c0-0.5,0-1.4,0.6-1.2c1.3,0.3,1.5,1.7,1.9,2.8c0.2,0.7-0.6,0.8-1.1,0.7                C141.3,102.6,141.2,101.5,141.3,100.5z"/>
            <path fill="#E2EBFC" d="M131.6,61.2c0.5,1.7,0.5,2.9-0.5,3.8c-0.6,0.4-1.1-0.2-1.3-0.6C129.3,62.8,130.8,62.5,131.6,61.2z"/>
            <path fill="#FEFEFE" d="M104.2,66.5c0.6,0.2,1.7-0.4,1.6,0.8c-0.1,0.9-1,0.6-1.6,0.5c-0.6,0-1.7,0.5-1.6-0.7                C102.6,66.2,103.6,66.6,104.2,66.5z"/>
            <path fill="#FEFEFE" d="M128.4,66.4c0.8,0.1,1.8-0.2,1.8,0.6c0.1,1.2-1.1,0.7-1.7,0.7c-0.6,0-1.5,0.4-1.6-0.5                C126.9,66,128.1,66.9,128.4,66.4z"/>
            <path fill="#E8EFFC" d="M101.1,61.3c1,1.2,2.5,1.5,1.9,3c-0.1,0.3-0.9,0.8-1,0.7C100.9,64.3,100.7,63.1,101.1,61.3z"/>
            <path fill="#E5EDFC" d="M101.5,56.8c0.8,0.5,1.5,1.1,1.7,2c0.1,0.6-0.3,1.2-0.8,1.2c-1.2,0-1.2-1.1-1.4-1.9                C100.7,57.6,100.8,57.1,101.5,56.8z"/>
            <path fill="#E6EEFC" d="M131.3,51.1c0.9,1.9,0.7,3.2-0.4,4.2c-0.3,0.3-0.7,0-0.9-0.3C129.4,53.5,130.9,52.8,131.3,51.1z"/>
            <path fill="#C5D8FA" d="M101.3,51.5c0.7,1.5,1.9,2.3,1.2,3.7c-0.1,0.2-0.4,0.4-0.6,0.1C101,54.4,100.4,53.4,101.3,51.5z"/>
            <path fill="#F0F5FD" d="M131.6,56.3c0.5,1.8,0.5,3-0.6,3.7c-0.4,0.3-0.9-0.2-1.1-0.6C129.3,57.9,130.8,57.6,131.6,56.3z"/>
            <path fill="#E0EFFD" d="M128.6,65.3c-0.9,0.1-1.9,0.5-2.3-0.6c-0.2-0.6,0.3-1.3,0.7-1.2C128,63.6,128.6,64.3,128.6,65.3z"/>
            <path fill="#D7E8FC" d="M104.3,64.8c0.4-0.5,0.6-1.2,1.4-1c0.5,0.1,1,0.7,0.8,1.2c-0.2,0.6-0.8,0.6-1.4,0.5                C104.6,65.5,104.1,65.5,104.3,64.8z"/>
            <path fill="#82ACF5" d="M102.4,43.5c0.2,0.4,0.4,0.7,0.5,1.1c0,1,0,1.9,0,3.4C101.8,46.2,101.7,44.9,102.4,43.5z"/>
            <path fill="#DAE6FB" d="M128.9,60.4c0.5,0.2,0.9,0.5,0.8,1c-0.1,0.6-0.4,1.2-1.2,1.2c-0.4,0-0.6-0.4-0.6-0.8                C128.1,61.3,128.3,60.7,128.9,60.4z"/>
            <path fill="#AECCF8" d="M129.8,44.6c0.6,0.9,0.4,1.9,0.2,2.9C129.2,46.5,129.8,45.6,129.8,44.6z"/>
            <path fill="#D7E4FB" d="M104.5,62.7c-0.8-0.3-1.4-0.7-1.3-1.7c0-0.1,0.3-0.3,0.4-0.3C104.4,61.1,104.7,61.8,104.5,62.7z"/>
            <path fill="#3383FA" d="M137.3,92.7c0.4,0.2,0.8,0.4,0.7,0.9c0,0.1-0.4,0.2-0.6,0.2c-0.4,0-0.6-0.4-0.6-0.7                C136.9,92.9,136.9,92.6,137.3,92.7z"/>
            <path fill="#0F60EB" d="M61.8,22.1c-4.6-5.2-10.6-6.4-17.2-5c-6.6,1.4-11,5.4-12.9,12C29,38.9,35,48.5,44.5,49.3                c3.8,0.3,7.2-1.1,10.6-2.6c2.8-1.2,5-3.5,5.7-4.5c1.2-1.7,2.2-3.2,3-4.9C66.3,31.9,65.8,26.7,61.8,22.1z M53.6,40.4                c-5.8,3.8-11.5,2.8-14.5-2.5c-4.2-7.4,0.1-14.5,9.3-14.4c0.3,0,1.3,0,2.2,0.2c4,1.1,7.2,3.1,8.1,7.4C59.5,35.4,56.9,38.2,53.6,40.4z                "/>
            <path fill="#0F60EB" d="M97.8,29.8c-0.5-1-1.1-1.9-1.6-2.9c-1-1-0.5-1.6,0.4-2.5c1.5-1.3,1-3.1,0.3-4.6c-0.6-1.5-2-1.4-3.3-0.9                c-1.9,0.8-3,0-4.1-1.6c-3.4-5.4-7.8-10-10.9-15.6c-1.2-2.1-3.1-2.2-5.8-0.9c-2.3,1.1-2.3,2.5-1,4.4c0.8,1.2,0.3,2.5-0.1,3.7                c-1.5,4.6-3,9.3-3.9,14.1c-1.1,5.8,1.2,8.4,7,7.5c3.4-0.5,6.8-1.7,10.2-2.4c1.1-0.2,2.3-1,3.3,0.4c2,1.6,2.6,4.2,4.1,6.1                c0.8,1,1.6,2.1,3.2,1.5C98.7,34.8,99.5,32.8,97.8,29.8z M82,22.4c-2,0.5-4.1,1-6.3,1.5c-1.2,0-1.6-0.8-1.4-2                c0.5-2.3,1.1-4.6,1.8-6.9c0.5-1.7,1.5-1.7,2.5-0.4c1.4,1.8,2.8,3.7,4.1,5.5C83.5,21.3,83.3,22.1,82,22.4z"/>
            <path fill="#0F60EB" d="M31.3,53.1c-1-1.8-3.5-3.5-0.4-5.7c0.3-0.2,0.2-1,0.2-1.2c0-3.5-1-4.3-3.9-3.4c-1.9,0.6-2.9-0.1-3.9-1.6                c-3.4-5.5-7.9-10.2-11-15.9c-1.2-2.1-3.4-2.1-6.1-0.7c-2,1.1-1.9,2.4-0.8,4.1c0.9,1.3,0.4,2.7,0,4c-1.6,5-3.3,10-4.1,15.2                c-0.7,4.4,1.4,6.7,5.8,6.5c2.2-0.1,4.4-0.7,6.5-1.2c2.5-0.6,5.1-2.3,7.4-1.6c2.5,0.7,3.1,3.9,4.5,6c2,2.8,3.2,2.9,5.8,0.7                C33.4,56.4,32.2,54.8,31.3,53.1z M15.8,45.9c-2,0.6-4.1,1-5.8,1.4c-1.5,0.2-2.3-0.3-2-1.5c0.6-2.5,1.2-5,1.9-7.5                c0.3-1.2,1.2-1.4,2-0.5c1.6,2,3.2,4.1,4.7,6.2C17.4,45.1,16.6,45.7,15.8,45.9z"/>
            <path fill="#1A67EC" d="M116.1,60.7c-1.2,0-2.1-0.6-2.7-1.6c-0.5-0.8-1-1.8,0-2.4c1-0.5,1,0.6,1.3,1.2c1.1,1.6,2.2,1.4,3.1-0.3                c0.3-0.6,0.4-1.3,1.3-1c0.9,0.4,0.6,1.3,0.3,1.9C118.8,60,117.7,60.7,116.1,60.7z"/>
            <path fill="#1060EB" d="M110.7,50.1c0.2-1-0.5-2.6,1.1-2.6c1.8,0,1.1,1.8,1.1,2.8c0,1,0.5,2.6-1.2,2.5C110.2,52.7,111,51.1,110.7,50.1                z"/>
            <path fill="#1060EB" d="M121.3,50.1c-0.3,1.1,0.5,2.7-1.1,2.7c-1.8,0-1.1-1.8-1.1-2.8c0-1-0.5-2.6,1.2-2.5                C121.9,47.6,121,49.3,121.3,50.1z"/>
            <path fill="#1061EC" d="M136.8,106.2c1.4-1.2,2.8-1.6,4.4-0.5c0.5,2,0.9,4.1,2.3,5.7c1.2,1.4,2.1,2.1,3.2-0.1c0.4-0.8,1.1-1.6,2-2.1                c-0.3,2.4-2.1,4.1-2.4,6.5c-0.1,0.7-1.2,0.7-2,0.4c-3.2-1.4-6.1-1.1-8.8,1c-1,0.8-2.4,0.7-2.6-0.3c-0.4-2.5-2.3-3.9-3.7-5.7                c1.6-0.1,2.1,1.2,3.1,1.9c1.5,1.2,2.6,1.4,3.5-0.9C136.4,110.1,137,108.2,136.8,106.2z"/>
            <path fill="#0F60EB" d="M126.8,103.4c-0.2-1.9,0.3-3.5,2.1-4.3c2.4-1,5-1.4,7.4-0.2c1.9,1,1.4,5.3-0.6,6.7c-1.7,0-3.4,0-5.1,0                C128.9,105.6,127.7,104.8,126.8,103.4z"/>
            <path fill="#1667EE" d="M138.2,109.4c1.1,1.2,0.6,2.1,1,2.9c0.8-0.7,0-1.8,0.9-2.6c0.9,1.4,0.9,3,0.3,4.2c-0.7,1.3-2.2-1.2-3.2,0.2                C135.9,112.3,138.2,111.3,138.2,109.4z"/>
            <path fill="#3A89FD" d="M140.6,107.4c-0.1,0.9-0.8,0.9-1.4,0.9c-0.7,0-1.3-0.2-1.2-1.1c0.1-0.7,0.6-1.1,1.3-1.1                C140.1,106.3,140.5,106.8,140.6,107.4z"/>
            <path fill="#1868EF" d="M141.5,110.7c1.1,1.2,0.9,2,0.4,3.3C141,112.8,141.2,111.9,141.5,110.7z"/>
            <path fill="#3281F9" d="M134.3,115.1c0.4,0,0.7,0.2,0.7,0.6c0,0.4-0.3,0.7-0.7,0.6c-0.2,0-0.5-0.3-0.5-0.5                C133.6,115.4,133.8,115.2,134.3,115.1z"/>
            <path fill="#1969EF" d="M132.2,103.9c-0.6,0-1.1,0-1.7,0c-1,0-1.8-0.3-2-1.4c-0.1-1,0.4-1.5,1.2-1.9c1.7-0.8,3.4-0.6,5.1-0.3                c1.2,0.2,0.7,1.5,0.8,2.3c0.1,0.9-0.4,1.4-1.3,1.4C133.6,103.9,132.9,103.9,132.2,103.9C132.2,103.9,132.2,103.9,132.2,103.9z"/>
        </symbol>
        <!--微信logo viewBox="0 0 1024 1024"-->
        <symbol id="svg-weixin">
            <path d="M989.029 624.085c0-134.044-134.249-243.412-285.027-243.412-159.561 0-285.355 109.367-285.355 243.412 0 134.366 125.795 243.565 285.355 243.565 33.465 0 67.173-8.444 100.75-16.868l91.988 50.332-25.27-83.861c67.443-50.48 117.561-117.453 117.561-193.168v0zM611.572 582.156v0c-16.755 0-33.581-16.571-33.581-33.664 0-16.719 16.827-33.438 33.581-33.438 25.322 0 41.882 16.719 41.882 33.438 0 17.092-16.56 33.664-41.882 33.664v0zM796.080 582.156v0c-16.586 0-33.351-16.571-33.351-33.664 0-16.719 16.765-33.438 33.351-33.438 25.107 0 41.923 16.719 41.923 33.438 0 17.092-16.817 33.664-41.923 33.664z" p-id="2517"></path>
            <path d="M370.529 122.886c-184.483 0-335.558 125.821-335.558 285.35 0 92.137 50.373 167.846 134.289 226.452l-33.565 101.072 117.361-58.918c41.887 8.27 75.586 16.889 117.473 16.889 10.507 0 20.916-0.614 31.298-1.392-6.561-22.327-10.255-45.879-10.255-70.208 0-146.654 125.754-265.571 285.15-265.571 10.915 0 21.673 0.686 32.287 1.934-29.031-135.175-173.515-235.609-338.481-235.609v0zM261.552 349.409v0c-25.143 0-50.535-16.719-50.535-41.959 0-25.261 25.393-41.903 50.535-41.903 25.092 0 41.882 16.643 41.882 41.903 0 25.239-16.791 41.959-41.882 41.959v0zM496.375 349.409v0c-25.189 0-50.459-16.719-50.459-41.959 0-25.261 25.27-41.903 50.459-41.903 25.174 0 41.979 16.643 41.979 41.903 0 25.239-16.806 41.959-41.979 41.959z" p-id="2518"></path>
        </symbol>
        <!---------------------------------------------- 新版start --------------------------------------------------->
        <!-- 照片墙viewBox="0 0 1024 1024"-->
        <!-- <symbol id="svg-test">
            <path d="M944 889.856H80c-26.496 0-48-20.672-48-46.144V251.392c0-25.472 21.504-46.208 48-46.208h189.056l8.64-41.024c6.976-19.2 16.576-44.736 47.68-44.736h374.656c32.384 0 42.688 29.952 47.104 42.752l14.976 42.944h181.888c26.432 0 48 20.736 48 46.208v592.384c0 25.472-21.568 46.144-48 46.144zM80 237.184c-8.832 0-16 6.336-16 14.208v592.384c0 7.808 7.168 14.144 16 14.144h864c8.832 0 16-6.336 16-14.144V251.392c0-7.872-7.168-14.208-16-14.208h-204.608l-22.528-64.448c-7.296-21.312-12.16-21.312-16.896-21.312H325.312c-5.568 0-8.896 0-17.024 21.632L295.04 237.184H80z" fill="" p-id="2043"></path>
            <path d="M512 759.36a207.744 207.744 0 0 1-207.552-207.488c0-114.432 93.12-207.488 207.552-207.488s207.488 93.12 207.488 207.488A207.68 207.68 0 0 1 512 759.36z m0-382.976a175.744 175.744 0 0 0-175.552 175.488A175.68 175.68 0 0 0 512 727.36a175.68 175.68 0 0 0 175.488-175.488A175.68 175.68 0 0 0 512 376.384zM842.688 360.384h-94.4a16 16 0 0 1 0-32h94.4a16 16 0 0 1 0 32z" fill="" p-id="2044"></path>
        </symbol> -->
        <!---------------------------------------------- 新版end ----------------------------------------------------->
    </defs>
</svg>