<svg class="svg-hide" width="0" height="0" viewBox="0 0 0 0" version="1.1" xmlns="http://www.w3.org/2000/svg"
     xmlns:xlink="http://www.w3.org/1999/xlink">
    <defs>
        <!--删除viewBox="0 0 100 100"-->
        <symbol id="svg-delete">
            <circle  fill="#EA4E65" cx="50" cy="50" r="50"/>
            <polygon fill="#FFFFFF" points="81.7,27.5 72.5,18.3 50,40.8 27.5,18.3 18.3,27.5 40.8,50 18.3,72.5 27.5,81.7 50,59.2 72.5,81.7 81.7,72.5 59.2,50 "/>
        </symbol>
        <!--衣服viewBox="5 0 209.6 200"-->
        <symbol id="svg-cloth">
            <path d="M176,66.2l-12.1,22.9L150,83.9v67.7c-4.3,1.4-18.7,3.5-42,3.5s-37.7-2.1-42-3.5V83L55,88.8l-15.2-24L76.8,45H83c2,11.6,11.8,20.4,23.6,20.4s21.6-8.8,23.6-20.4h6.3c-0.1-1-0.2-2-0.2-3.1c0-1.9,0.2-3.7,0.6-5.5h-15v4.3c0,8.9-6.9,16.1-15.3,16.1s-15.3-7.2-15.3-16.1v-4.3H74.7L27.6,61.5l24.4,38.6l5.5-2.9v56.3c0,2.8,0,10.1,50.6,10.1s50.6-7.4,50.6-10.1V96.3l9.3,3.5l20.2-38.5l-3.7-2C182.2,62.2,179.2,64.5,176,66.2z"/>
            <path d="M163.6,19.2c-12.5,0-22.6,10.1-22.6,22.6s10.1,22.6,22.6,22.6s22.6-10.1,22.6-22.6S176.1,19.2,163.6,19.2z M163.6,59.4c-9.7,0-17.5-7.9-17.5-17.5c0-9.7,7.9-17.5,17.5-17.5c9.7,0,17.5,7.9,17.5,17.5C181.2,51.6,173.3,59.4,163.6,59.4z"/>
            <polygon points="177.9,39.5 166.8,39.5 166.8,28.5 161.1,28.5 161.1,39.5 150.1,39.5 150.1,45.3 161.1,45.3 161.1,56.3 166.8,56.3 166.8,45.3 177.9,45.3 "/>
        </symbol>
        <!--图片 viewBox="0 0 1024 1024"-->
        <symbol id="svg-img">
            <path d="M469.344 362.72c0 58.912-47.744 106.656-106.656 106.656-58.912 0-106.656-47.744-106.656-106.656 0-58.912 47.744-106.656 106.656-106.656 58.912 0 106.656 47.744 106.656 106.656z" p-id="1004" fill="#8a8a8a"></path>
            <path d="M682.656 426.656c-85.344 0-128 128-192 128s-63.968-42.656-149.344-42.656c-85.344 0-128.032 170.656-128.032 170.656l597.376 0c0 0-42.656-256-128-256z" p-id="1005" fill="#8a8a8a"></path>
            <path d="M853.344 128l-682.656 0c-47.072 0-85.344 38.272-85.344 85.344l0 512c0 47.072 38.272 85.344 85.344 85.344l682.656 0c47.072 0 85.344-38.272 85.344-85.344l0-512c0-47.072-38.272-85.344-85.344-85.344zM853.344 725.344l-682.656 0 0-512 682.656 0 0 512z" p-id="1006" fill="#8a8a8a"></path>
        </symbol>
        <!--加号viewBox="0 0 1024 1024"-->
        <symbol id="svg-add">
            <path d="M512 1024C229.248 1024 0 794.752 0 512 0 229.248 229.248 0 512 0 794.752 0 1024 229.248 1024 512 1024 794.752 794.752 1024 512 1024ZM768 448 576 448 576 256C576 220.672 547.328 192 512 192 476.672 192 448 220.672 448 256L448 448 256 448C220.672 448 192 476.672 192 512 192 547.328 220.672 576 256 576L448 576 448 768C448 803.328 476.672 832 512 832 547.328 832 576 803.328 576 768L576 576 768 576C803.328 576 832 547.328 832 512 832 476.672 803.328 448 768 448Z" p-id="2362"></path>
        </symbol>
        <!--表情viewBox="0 0 1024 1024"-->
        <symbol id="svg-face">
            <path d="M512 1024C229.287 1024 0 794.713 0 512S229.287 0 512 0c282.713 0 512 229.287 512 512s-231.513 512-512 512z m0-979.478C253.774 44.522 44.522 253.774 44.522 512S253.774 979.478 512 979.478 979.478 770.226 979.478 512 768 44.522 512 44.522z" p-id="3132"></path>
            <path d="M801.391 554.296c0 160.278-129.113 289.391-289.391 289.391S222.609 714.574 222.609 554.296H801.39zM616.626 349.496a2.6 2.6 0 1 0 115.757 0 2.6 2.6 0 1 0-115.757 0zM289.391 349.496a2.6 2.6 0 1 0 115.757 0 2.6 2.6 0 1 0-115.757 0z" p-id="3133"></path>
        </symbol>
        <!--铃铛viewBox="50 -50 200 200"-->
        <symbol id="svg-bell">
            <circle fill="#CFE500" cx="50" cy="50" r="50"/>
            <path fill="#FFFFFF" d="M74.8,33.7c-1.2-3.4-3.1-6.4-5.7-8.7c0.5-1.7,0.4-3.5-0.3-5.1c-0.8-1.6-2.1-2.9-3.7-3.6c-1.7-0.7-3.4-0.8-5.2-0.2c-1.7,0.6-3.1,1.7-3.9,3.3c-3.5-0.3-6.9,0.3-10.2,1.8c-5.3,2.4-9.5,6.9-12,12.6l-5.7,13c-0.1,0.2-0.3,0.4-0.5,0.4l-0.1,0.1l-8.2,4.6c-0.9,0.4-1.6,1-2,2l-1.5,3.4c-0.8,1.9,0,4.2,2,5L40.9,72l22.9,10c1.9,0.8,4.2,0,4.9-2l1.4-3.4c0.4-0.9,0.4-1.9,0.1-2.8l-2.2-9.1l-0.1-0.1c-0.1-0.2-0.1-0.4,0-0.6l1.4-3.4l-2.8-1.2l-1.4,3.4c-0.4,0.9-0.4,1.8-0.1,2.8l2.2,9.1l0.1,0.1c0.1,0.2,0.1,0.4,0,0.6L66,78.8c-0.2,0.4-0.7,0.6-1,0.4l-22.9-10l-22.9-9.9c-0.4-0.2-0.5-0.7-0.4-1l1.5-3.4c0.1-0.2,0.3-0.3,0.5-0.4l0.1,0l8.1-4.6c0.9-0.4,1.6-1.1,2-2l5.7-13c2.2-5,6-9,10.5-11c2.3-1,4.7-1.5,7.2-1.6c2.6,0,5.2,0.5,7.6,1.6c2.5,1.1,4.7,2.6,6.3,4.5c1.7,1.8,2.9,4,3.7,6.3c1.6,4.8,1.3,10.2-0.9,15.3l-1.4,3.3l2.8,1.2l1.4-3.3C76.3,45.3,76.7,39.2,74.8,33.7z M63.1,21c-1.2-0.5-2.4-0.9-3.7-1.3c1.2-1.1,2.9-1.5,4.6-0.8s2.6,2.3,2.5,3.9C65.4,22.2,64.3,21.6,63.1,21z"/>
            <path fill="#FFFFFF" d="M48.8,77.6c-0.2-0.6-0.7-1.1-1.3-1.3l-14.2-6.2c-0.5-0.3-1.3-0.3-1.8,0s-1,0.8-1.2,1.3c-0.8,2.4-0.7,4.9,0.4,7.2c1,2.3,2.8,4.1,5.2,5.1c2.3,1,4.9,1.1,7.3,0.3c2.3-0.8,4.3-2.5,5.5-4.6C48.9,78.8,48.9,78.2,48.8,77.6zM42.1,81.2c-1.7,0.6-3.5,0.5-5.1-0.2s-2.9-1.9-3.6-3.6c-0.6-1.3-0.8-2.8-0.5-4.3l12.6,5.5C44.7,79.8,43.5,80.7,42.1,81.2z"/>
        </symbol>
        <!--打赏铃铛viewBox="0 0 1024 1024"-->
        <symbol id="svg-reward">
            <path d="M512 950.857143c242.358857 0 438.857143-196.498286 438.857143-438.857143S754.358857 73.142857 512 73.142857 73.142857 269.641143 73.142857 512s196.498286 438.857143 438.857143 438.857143z m0 73.142857C229.229714 1024 0 794.770286 0 512S229.229714 0 512 0s512 229.229714 512 512-229.229714 512-512 512z" fill="#333333" p-id="6406"></path>
            <path d="M475.428571 621.714286v-73.142857H365.531429A36.388571 36.388571 0 0 1 329.142857 512c0-20.187429 16.676571-36.571429 36.388572-36.571429H475.428571v-30.171428a13.750857 13.750857 0 0 0-3.181714-3.547429L322.633143 336.969143a36.534857 36.534857 0 0 1-9.069714-51.017143 36.352 36.352 0 0 1 51.017142-8.923429l145.261715 101.705143 145.261714-101.668571a36.352 36.352 0 0 1 51.017143 8.886857 36.534857 36.534857 0 0 1-9.069714 51.017143L548.571429 440.905143V475.428571h109.897142c20.114286 0 36.388571 16.237714 36.388572 36.571429 0 20.187429-16.676571 36.571429-36.388572 36.571429H548.571429v73.142857h109.897142c20.114286 0 36.388571 16.237714 36.388572 36.571428 0 20.187429-16.676571 36.571429-36.388572 36.571429H548.571429v109.641143a36.534857 36.534857 0 1 1-73.142858 0V694.857143H365.531429A36.388571 36.388571 0 0 1 329.142857 658.285714c0-20.187429 16.676571-36.571429 36.388572-36.571428H475.428571z" fill="#333333" p-id="6407"></path>
        </symbol>
        <!--点赞viewBox="0 0 200 200"-->
        <symbol id="svg-zan">
            <path class="svg-zan-st0" d="M143.6,7.2c-17.2,0-33.1,8.6-43.6,22.8C89.5,15.8,73.5,7.2,56.4,7.2C25.5,7.2,0.3,34.7,0.3,68.6
                c0,20.2,9,34.3,16.3,45.7c21.1,33,74,74.2,76.3,75.9c2.2,1.7,4.7,2.5,7.2,2.5s5-0.8,7.2-2.5s55.2-42.9,76.3-75.9
                c7.1-11.4,16.1-25.6,16.1-45.8C199.7,34.7,174.5,7.2,143.6,7.2z"/>
            <path class="svg-zan-st1" d="M143.5,21c-17.7,0-33,11.6-39.8,28.3h-0.1c-0.5,1.7-1.9,3-3.7,3c-1.7,0-3.2-1.3-3.7-3v0.1
                C89.4,32.6,74.1,21,56.3,21c-24.1,0-43.6,21.3-43.6,47.6c0,15.2,6.6,26.3,14,37.9C46.8,138,100,179.1,100,179.1s53.1-41.1,73.2-72.6
                c7.4-11.7,14-22.7,13.9-37.9C187.1,42.3,167.6,21,143.5,21z"/>
        </symbol>
        <!--评论viewBox="0 0 1024 1024"-->
        <symbol id="svg-comment">
            <path d="M576.968 463.869c0 36.586-29.651 66.235-66.235 66.235s-66.235-29.651-66.235-66.235 29.651-66.235 66.235-66.235 66.235 29.651 66.235 66.235z" p-id="2362"></path>
            <path d="M321.392 463.869c0 36.586-29.651 66.235-66.235 66.235-36.638 0-66.287-29.651-66.287-66.235s29.651-66.235 66.287-66.235c36.586 0 66.235 29.651 66.235 66.235z" p-id="2363"></path>
            <path d="M832.596 463.869c0 36.586-29.651 66.235-66.235 66.235s-66.235-29.651-66.235-66.235 29.652-66.235 66.235-66.235c36.586 0 66.235 29.651 66.235 66.235z" p-id="2364"></path>
            <path d="M510.732 987.594c-16.499 0-32.764-5.574-45.799-15.697l-180.657-140.589h-182.265c-41.131 0-74.592-33.457-74.592-74.58v-583.041c0-41.123 33.462-74.58 74.592-74.58h817.465c41.116 0 74.566 33.456 74.566 74.58v583.041c0 41.123-33.452 74.58-74.566 74.58h-182.265l-180.663 140.573c-13.051 10.138-29.315 15.713-45.819 15.713zM102.013 152.097c-11.914 0-21.605 9.686-21.605 21.591v583.041c0 11.905 9.692 21.591 21.605 21.591h191.359c5.894 0 11.619 1.965 16.271 5.585l187.813 146.159c3.82 2.966 8.416 4.544 13.276 4.544 4.859 0 9.455-1.575 13.293-4.557l187.825-146.144c4.654-3.619 10.377-5.585 16.27-5.585h191.361c11.898 0 21.578-9.686 21.578-21.591v-583.042c0-11.905-9.681-21.591-21.578-21.591h-817.465z" p-id="2365"></path>
        </symbol>
        <!--红包viewBox="0 0 1024 1024"-->
        <symbol id="svg-redBag">
            <path d="M854.55872 0H165.18656C56.16128 0 32 30.56128 32 146.14528v57.216C104.22272 240.96256 195.328 288.79872 296.96 321.152 325.27872 231.936 409.88672 167.19872 509.85472 167.19872c99.84 0 184.35584 64.57344 212.736 153.56928 102.528-33.664 192.32256-84.224 265.11872-124.09344v-50.56C987.74528 30.56128 963.54816 0 854.55872 0z" fill="#F42341" p-id="3516"></path>
            <path d="M509.85472 606.04928c-118.49728 0-215.13728-91.008-222.30016-205.824C195.52256 371.072 108.544 330.43456 32 294.784v604.44672C32 1014.784 56.16128 1024 165.18656 1024H854.528c109.02016 0 133.18144-9.216 133.18144-124.8V289.05472C909.98272 326.97344 824.09472 369.47456 732.16 399.616c-6.81472 115.10272-103.58272 206.43328-222.30528 206.43328z" fill="#F42341" p-id="3517"></path>
            <path d="M566.05184 238.94528l-45.21984 100.63872c-3.7376 8.47872-6.49728 14.976-8.25344 19.456h-0.79872L457.11872 238.91456H390.4l74.752 134.016H408.47872v38.17984h69.12v32.96256h-69.12v38.17472h69.12V537.6h63.32928V482.27328h66.90816v-38.17984H540.928V411.136h66.90816v-38.17472H552.3456l76.95872-134.016h-63.25248z" fill="#EA9518" p-id="3518"></path>
        </symbol>
        <!--问号 viewbox="0 0 1024 1024" -->
        <symbol id="svg-question">
           <path d="M512 113.406976c-219.789312 0-398.601216 178.816-398.601216 398.61248 0 219.773952 178.811904 398.573568 398.601216 398.573568s398.601216-178.799616 398.601216-398.573568C910.601216 292.224 731.789312 113.406976 512 113.406976zM552.2176 803.094528l-80.04608 0 0-80.04608 80.04608 0L552.2176 803.094528zM679.120896 446.205952c-11.713536 21.086208-34.623488 46.728192-68.722688 76.92288-22.908928 20.303872-37.874688 35.275776-44.904448 44.904448-7.027712 9.632768-12.237824 20.694016-15.618048 33.188864-3.386368 12.494848-5.339136 32.799744-5.85728 60.913664L476.4672 662.135808c-0.262144-9.371648-0.390144-16.400384-0.390144-21.086208 0-27.588608 3.904512-51.406848 11.713536-71.455744 5.723136-15.09376 14.96576-30.321664 27.722752-45.683712 9.371648-11.190272 26.222592-27.529216 50.566144-49.00352 24.337408-21.476352 40.15104-38.590464 47.44192-51.347456 7.284736-12.750848 10.933248-26.68032 10.933248-41.780224 0-27.332608-10.677248-51.347456-32.018432-72.042496-21.348352-20.69504-47.509504-31.041536-78.485504-31.041536-29.937664 0-54.928384 9.370624-74.970112 28.11392-20.047872 18.742272-33.188864 48.026624-39.437312 87.855104l-72.237056-8.590336c6.504448-53.359616 25.832448-94.230528 57.985024-122.606592 32.146432-28.36992 74.641408-42.560512 127.488-42.560512 55.964672 0 100.606976 15.227904 133.931008 45.683712 33.317888 30.456832 49.980416 67.295232 49.980416 110.502912C696.691712 402.082816 690.835456 425.120768 679.120896 446.205952z" p-id="2548">
            </path>
        </symbol>
    
    </defs>
</svg>