<?xml version="1.0" encoding="utf-8"?>
<!-- Generator: Adobe Illustrator 21.0.0, SVG Export Plug-In . SVG Version: 6.00 Build 0)  -->
<svg version="1.1" id="图层_1" xmlns="http://www.w3.org/2000/svg" xmlns:xlink="http://www.w3.org/1999/xlink" x="0px" y="0px"
	 viewBox="0 0 113.7 165.3" style="enable-background:new 0 0 113.7 165.3;" xml:space="preserve">
<style type="text/css">
	.st0{fill:#666666;}
</style>
<path class="st0" d="M113.6,122.4c-0.5-20-14.1-35.2-34-36.6c-14.9-1-29.9-0.3-44.8-0.2c-1.9,0-3.9,0.3-5.8,0.8
	c-17.3,4.2-28.5,18-28.8,36.1c-0.2,11-0.1,22.1,0,33.1c0,7.4,2.5,9.8,10,9.8c15.5,0,31,0,46.5,0c15.9,0,31.8,0,47.6,0
	c6.3,0,9.4-2.9,9.4-9C113.7,144.9,113.9,133.6,113.6,122.4L113.6,122.4z M92.8,127.3c-5.8,6.4-12.2,12.3-18.3,18.4
	c-1.6,1.6-3.1,1.6-4.7,0c-6.1-6.1-12.4-12-18.3-18.4c-5.1-5.5-5-13.2-0.4-18.7c4.7-5.6,12.4-6.7,18.8-2.8c0.7,0.4,1.3,0.9,2.2,1.5
	c5.6-4.3,11.4-5.3,17.4-1.8C97.3,110.1,99,120.5,92.8,127.3L92.8,127.3z M40.5,70.9c12,8.3,28.3,6.2,37.8-4.7C88,55.2,88,39,78,27.9
	c-1.7-1.9-2.1-3.4-1.3-5.8c2-6.3-0.6-13.2-6.1-17.4C63.4-1,52.5-1.6,44.7,3.3c-7.2,4.5-9.9,11.6-7.7,20c0.3,1.2-0.3,3-1.1,3.9
	c-5.2,5.7-7.8,12.3-8.1,20.2C28.2,57.2,32.3,65.2,40.5,70.9z"/>
</svg>
