<?xml version="1.0" encoding="utf-8"?>
<!-- Generator: Adobe Illustrator 21.0.0, SVG Export Plug-In . SVG Version: 6.00 Build 0)  -->
<svg version="1.1" id="图层_1" xmlns="http://www.w3.org/2000/svg" xmlns:xlink="http://www.w3.org/1999/xlink" x="0px" y="0px"
	 viewBox="0 0 46.5 44.1" style="enable-background:new 0 0 46.5 44.1;" xml:space="preserve">
<g>
	<g id="XMLID_6_">
		<path d="M24,3C16.3,3,10.2,2,9.8,2l0.3-2c0.1,0,14,2.1,26.1,0l0.3,2C32.3,2.7,27.9,3,24,3z"/>
	</g>
	<path d="M22.1,44.2c-6.7,0-14.1-1.4-21.4-5.7L0,38.1L9.1,5.3h27.3l10.2,32.8l-0.7,0.4C45.7,38.6,35.3,44.2,22.1,44.2z M2.3,37.1
		c18.3,10.3,37.8,1.9,41.8,0L34.9,7.3H10.6L2.3,37.1z"/>
</g>
</svg>
