<?xml version="1.0" encoding="utf-8"?>
<!-- Generator: Adobe Illustrator 21.0.0, SVG Export Plug-In . SVG Version: 6.00 Build 0)  -->
<svg version="1.1" id="图层_1" xmlns="http://www.w3.org/2000/svg" xmlns:xlink="http://www.w3.org/1999/xlink" x="0px" y="0px"
	 viewBox="0 0 20.8 54.4" style="enable-background:new 0 0 20.8 54.4;" xml:space="preserve">
<style type="text/css">
	.st0{fill:#020202;}
</style>
<path class="st0" d="M20.8,31c0-1.1-0.6-2-1.6-2.7V5.2c0.6-1.8,0.6-3.4-0.5-4.4c-1-1-2.8-1-5,0C11.8,1.6,9.8,3.1,7.9,5
	c-2.6,2.7-4.6,6.1-4.7,8.5l0,0l0,0.4L2.9,27.6C1.2,28.4,0,29.5,0,31c0,0.9,0.4,1.7,1.2,2.3c-0.2,0.4-0.3,0.8-0.3,1.2v16.9
	c0,1.6,1.3,2.9,2.9,2.9h13.6c1.6,0,2.9-1.3,2.9-2.9V34.6c0-0.5-0.2-1.1-0.4-1.5C20.4,32.5,20.8,31.8,20.8,31z M5.5,12.2
	C6,10.6,7.3,8.6,9.3,6.4c1.7-1.7,3.5-3.1,5.2-3.9c0.9-0.4,1.6-0.5,2-0.5c0.4,0,0.6,0.1,0.7,0.2c0.4,0.4,0.3,1.5-0.3,3
	c-0.5,1.1-1.3,2.4-2.4,3.8c-0.3,0.4-0.7,0.8-1.1,1.3c-3.6,3.7-7,5-7.9,4.2c0,0,0,0,0,0C5.1,14.2,5.1,13.3,5.5,12.2z M5,26.9
	l0.2-10.3c0.3,0.1,0.7,0.2,1,0.2c2.5,0,5.9-2.2,8.6-5c0.8-0.9,1.6-1.8,2.3-2.8v18.4v0.8c-0.5,0.2-1.4,0.4-2.4,0.6
	c-1.3,0.3-3,0.5-4.7,0.5c-1.4,0-2.7-0.3-3.7-0.6c-0.6-0.2-1.1-0.3-1.4-0.5L5,26.9z M3.3,29.6l0.2,0.1c0.1,0.1,3.3,1.5,6.6,1.5
	c3.4,0,6.6-0.9,7.9-1.3c0.5,0.4,0.8,0.8,0.8,1.1c0,0.2-0.2,0.5-0.5,0.8c-0.8,0.8-2.7,1.5-5.4,1.9c-0.8,0.1-1.6,0.1-2.5,0.1
	s-1.7-0.1-2.5-0.1c-2.5-0.3-4.4-1-5.3-1.7C2.2,31.6,2,31.3,2,31C2,30.6,2.5,30.1,3.3,29.6z M18.3,34.6v16.9c0,0.5-0.4,0.9-0.9,0.9
	H3.8c-0.5,0-0.9-0.4-0.9-0.9V34.6c0,0,0-0.1,0-0.1c2,0.9,4.7,1.4,7.4,1.4c2.9,0,5.9-0.5,7.9-1.6C18.3,34.3,18.3,34.4,18.3,34.6z"/>
</svg>
