<?xml version="1.0" encoding="utf-8"?>
<!-- Generator: Adobe Illustrator 21.0.0, SVG Export Plug-In . SVG Version: 6.00 Build 0)  -->
<svg version="1.1" id="图层_1" xmlns="http://www.w3.org/2000/svg" xmlns:xlink="http://www.w3.org/1999/xlink" x="0px" y="0px"
	 viewBox="0 0 66.5 41.4" style="enable-background:new 0 0 66.5 41.4;" xml:space="preserve">
<path d="M66,32.4c-3.8-2.3-7.3-10.9-8.3-13.4c-0.1-0.3-0.2-0.6-0.1-0.9l1.5-17.1c0-0.6-0.4-1-0.9-1.1c-0.6-0.1-1,0.4-1.1,0.9
	l-1.4,15.9c0,0.6-0.4,1-1,1.2c-14.9,5.2-17.3,13.1-17.7,16c0,0.1-0.1,0.2-0.3,0.2h-7.2c-0.1,0-0.2-0.1-0.2-0.2
	C29,31.2,26.7,23.2,11.5,18c-0.4-0.1-0.7-0.5-0.7-0.9L9.4,0.9c0-0.6-0.5-1-1.1-0.9c-0.6,0-1,0.5-0.9,1.1L8.9,18c0,0.4,0,0.8-0.2,1.2
	c-1,2.6-4.5,11-8.2,13.2C0.1,32.6-0.1,33,0,33.5l1.3,6c0.1,0.5,0.5,0.8,1,0.8c0,0,0.1,0,0.1,0l8.8-0.8c0.1,0,0.1,0,0.2-0.1
	c1.4,0.9,3,1.6,4.8,1.9c0.6,0.1,1.2,0.1,1.7,0.1c3.5,0,7.1-1.7,10.5-5.1c0.1-0.1,0.2-0.1,0.3-0.1h8.9c0.1,0,0.2,0,0.3,0.1
	c3.5,3.4,7,5.1,10.6,5.1c0.6,0,1.2,0,1.7-0.1c1.8-0.3,3.4-1,4.8-1.9c0.1,0,0.1,0.1,0.2,0.1l8.8,0.8c0,0,0.1,0,0.1,0
	c0.5,0,0.9-0.3,1-0.8l1.3-6C66.5,33,66.3,32.6,66,32.4z M3.1,38.1l-1-4.3c0,0,0-0.1,0-0.1c0.7-0.5,1.3-1.1,1.9-1.9
	c0-0.1,0.1-0.1,0.2,0c0.9,1.5,2.5,3.8,4.7,5.8c0,0,0,0.1,0,0.1l-5.7,0.5C3.2,38.2,3.1,38.1,3.1,38.1z M16.5,39.3
	c-5.8-0.9-9.8-7.2-10.9-9.3c-0.1-0.1,0-0.2,0-0.3c2.4-3.5,4.2-8,4.9-9.8c0-0.1,0.2-0.2,0.3-0.1c14.7,5.1,16.4,12.8,16.6,14.7
	c0,0,0,0.1,0,0.1C23.7,38.3,20,39.9,16.5,39.3z M50,39.3c-3.5,0.6-7.2-1-10.9-4.7c0,0,0,0,0,0c0.2-1.8,1.8-9.6,16.7-14.7
	c0.1,0,0.2,0,0.2,0.1c0.7,1.8,2.6,6.4,5,9.9c0,0.1,0,0.1,0,0.2C59.8,32,55.8,38.4,50,39.3z M63.2,38.2l-5.8-0.5c0,0,0,0,0-0.1
	c2.2-2,3.9-4.4,4.8-5.8c0,0,0.1,0,0.1,0c0.6,0.7,1.3,1.4,1.9,1.9c0,0,0.1,0.1,0.1,0.1l-1,4.3C63.3,38.1,63.3,38.2,63.2,38.2z"/>
</svg>
