<?xml version="1.0" encoding="utf-8"?>
<!-- Generator: Adobe Illustrator 21.0.0, SVG Export Plug-In . SVG Version: 6.00 Build 0)  -->
<svg version="1.1" id="图层_1" xmlns="http://www.w3.org/2000/svg" xmlns:xlink="http://www.w3.org/1999/xlink" x="0px" y="0px"
	 viewBox="0 0 20.8 54.4" style="enable-background:new 0 0 20.8 54.4;" xml:space="preserve">
<style type="text/css">
	.st0{fill:#FF6064;}
</style>
<path class="st0" d="M20.8,31c0-1.1-0.6-2-1.6-2.7V5.2c0.6-1.8,0.6-3.4-0.5-4.4c-1-1-2.8-1-5,0C11.8,1.6,9.8,3.1,7.9,5
	c-2.6,2.7-4.6,6.1-4.7,8.5l0,0v0.4L2.9,27.6C1.2,28.4,0,29.5,0,31c0,0.9,0.4,1.7,1.2,2.3c-0.2,0.4-0.3,0.8-0.3,1.2v16.9
	c0,1.6,1.3,2.9,2.9,2.9h13.6c1.6,0,2.9-1.3,2.9-2.9V34.6c0-0.5-0.2-1.1-0.4-1.5C20.4,32.5,20.8,31.8,20.8,31z"/>
</svg>
