<?xml version="1.0" encoding="utf-8"?>
<!-- Generator: Adobe Illustrator 22.0.1, SVG Export Plug-In . SVG Version: 6.00 Build 0)  -->
<svg version="1.1" id="图层_1" xmlns="http://www.w3.org/2000/svg" xmlns:xlink="http://www.w3.org/1999/xlink" x="0px" y="0px"
	 viewBox="0 0 47.7 47.7" style="enable-background:new 0 0 47.7 47.7;" xml:space="preserve">
<style type="text/css">
	.st0{fill:#00C2E3;}
</style>
<g>
	<path class="st0" d="M42.5,0H32c-0.9,0-1.6,0.7-1.6,1.6s0.7,1.6,1.6,1.6h9.7c1.5,0,2.8,1.2,2.8,2.8v35.9c0,1.5-1.2,2.8-2.8,2.8H5.9
		c-1.5,0-2.8-1.2-2.8-2.8V5.9c0-1.5,1.2-2.8,2.8-2.8h8.4c0.9,0,1.6-0.7,1.6-1.6S15.2,0,14.3,0H5.2C2.3,0,0,2.3,0,5.2v37.2
		c0,2.9,2.3,5.2,5.2,5.2h37.2c2.9,0,5.2-2.3,5.2-5.2V5.2C47.7,2.3,45.3,0,42.5,0L42.5,0z"/>
	<path class="st0" d="M39.8,11.9c0-1.5-1.2-2.6-2.6-2.6c-1.5,0-2.6,1.2-2.6,2.6c0,0.9,0.4,1.6,1,2.1c-1.2,5.3-6,9.4-11.7,9.4
		c-5.7,0-10.5-4-11.7-9.4c0.6-0.5,1-1.2,1-2.1c0-1.5-1.2-2.6-2.6-2.6S8,10.5,8,11.9c0,1,0.5,1.8,1.3,2.3c0.1,0.1,0.1,0.1,0.2,0.1
		c1.1,6.9,7.2,12.2,14.4,12.2c7.2,0,13.2-5.3,14.4-12.2c0.1,0,0.2-0.1,0.2-0.2C39.3,13.7,39.8,12.9,39.8,11.9L39.8,11.9z"/>
</g>
</svg>
