<?xml version="1.0" encoding="utf-8"?>
<!-- Generator: Adobe Illustrator 22.0.1, SVG Export Plug-In . SVG Version: 6.00 Build 0)  -->
<svg version="1.1" id="图层_1" xmlns="http://www.w3.org/2000/svg" xmlns:xlink="http://www.w3.org/1999/xlink" x="0px" y="0px"
	 viewBox="0 0 38.8 33.8" style="enable-background:new 0 0 38.8 33.8;" xml:space="preserve">
<style type="text/css">
	.st0{fill:#1A1A1A;}
</style>
<g>
	<g>
		<path class="st0" d="M20.3,20.8h-14c-0.7,0-1.2-0.6-1.2-1.2s0.6-1.2,1.2-1.2h14c0.7,0,1.2,0.6,1.2,1.2S21,20.8,20.3,20.8z"/>
	</g>
	<g>
		<path class="st0" d="M20.3,25.9h-14c-0.7,0-1.2-0.6-1.2-1.2s0.6-1.2,1.2-1.2h14c0.7,0,1.2,0.6,1.2,1.2S21,25.9,20.3,25.9z"/>
	</g>
	<g>
		<path class="st0" d="M35.9,33.8h-33c-1.6,0-2.9-1.3-2.9-2.9v-28C0,1.3,1.3,0,2.9,0h33c1.6,0,2.9,1.3,2.9,2.9v28
			C38.8,32.5,37.5,33.8,35.9,33.8z M2.9,2.5c-0.2,0-0.4,0.2-0.4,0.4v28c0,0.2,0.2,0.4,0.4,0.4h33c0.2,0,0.4-0.2,0.4-0.4v-28
			c0-0.2-0.2-0.4-0.4-0.4H2.9z"/>
	</g>
	<g>
		<path class="st0" d="M32,15.7h-6.4c-1,0-1.9-0.9-1.9-1.9V7.4c0-1,0.9-1.9,1.9-1.9H32c1,0,1.9,0.9,1.9,1.9v6.4
			C33.8,14.9,33,15.7,32,15.7z M26.1,13.2h5.2V8h-5.2V13.2z"/>
	</g>
</g>
</svg>
