<?xml version="1.0" encoding="utf-8"?>
<!-- Generator: Adobe Illustrator 21.0.0, SVG Export Plug-In . SVG Version: 6.00 Build 0)  -->
<svg version="1.1" id="图层_1" xmlns="http://www.w3.org/2000/svg" xmlns:xlink="http://www.w3.org/1999/xlink" x="0px" y="0px"
	 viewBox="0 0 174.5 128.2" style="enable-background:new 0 0 174.5 128.2;" xml:space="preserve">
<style type="text/css">
	.st0{fill:#1A1A1A;}
</style>
<path class="st0" d="M151.8,6.3c0-0.2-0.1-0.3-0.1-0.5c-0.2-2.7-1.6-4.9-4.1-5.5c-0.2-0.1-0.5-0.1-0.6-0.1c-0.3-0.1-0.6-0.1-0.9-0.1
	H24.7c-0.2,0-0.4,0.1-0.7,0.1c-0.2,0-0.4,0-0.6,0.1c-2.5,0.6-4.2,2.7-4.2,5.4c0,0.2-0.1,0.4-0.1,0.6L0,121.6
	c-0.1,0.3-0.1,0.5-0.1,0.8c0,0.1,0,0.2,0,0.3c0,0.1,0,0.3,0,0.4c0,0.5,0.1,1,0.3,1.4c0.1,0.3,0.3,0.5,0.4,0.8c0.2,0.3,0.4,0.7,0.7,1
	c0.2,0.2,0.4,0.4,0.6,0.6c0.3,0.3,0.6,0.5,1,0.7c0.3,0.1,0.6,0.3,1,0.4c0.2,0.1,0.3,0.2,0.5,0.2s0.3,0.1,0.5,0.1s0.5,0,0.7,0
	l72.8,0.1V90.3c0-4.2,3.5-4.5,6.3-4.5h5.1c2.8,0,6.3,0.2,6.3,4.4l0.1,38.2l69.6-0.1c2.6,0.1,2.6,0.1,4-0.1c2.9-0.5,4.8-2.3,4.7-5.2
	c0-0.1,0-0.3,0-0.4s0-0.2,0-0.3c0-0.1,0-0.2,0-0.3L151.8,6.3z M29,10.1h113.2l2.5,12.6H26.8L29,10.1z"/>
</svg>
