<?xml version="1.0" encoding="utf-8"?>
<!-- Generator: Adobe Illustrator 21.0.0, SVG Export Plug-In . SVG Version: 6.00 Build 0)  -->
<svg version="1.1" id="图层_1" xmlns="http://www.w3.org/2000/svg" xmlns:xlink="http://www.w3.org/1999/xlink" x="0px" y="0px"
	 viewBox="0 0 215.2 200" style="enable-background:new 0 0 215.2 200;" xml:space="preserve">
<style type="text/css">
	.st0{fill:#1A1A1A;}
</style>
<path class="st0" d="M213.4,183.9c0-0.4-3.5-37.7-9.1-75.9c-3.5-22.6-6.9-41.2-10.8-55.5c-6.5-25.2-12.6-31.2-16.1-33.8
	c-8.2-5.2-25.2-13-32.5-16.5c0-0.4,0-0.4,0-0.4H144c-1.3-0.9-2.6-1.3-2.6-1.3L140.1,0l-1.7,0.4c0,0-21.3,3.9-31.7,3.9
	S75.1,0.4,75.1,0.4L73.8,0l-1.3,0.4c0,0-1.3,0.4-2.6,1.3H69v0.4c-7.4,3.5-24.3,11.3-32.5,16.5c-6.1,4.4-16.1,17.8-27,89
	c-6.1,38.6-9.1,75.9-9.1,75.9l-0.4,3l2.6,1.3c0.4,0,9.5,4.8,20.4,4.8c3.5,0,6.9-0.4,10-1.3l2.6-0.9l0.4-3
	c4.3-30.4,11.3-75.1,16.9-97.6c0.9,8.2,0.9,20-0.4,36.4c-1.7,23-5.6,48.2-9.5,62.9l-0.9,3.9l3.9,1.3c0.4,0.4,16.1,5.6,61.6,5.6
	s60.7-5.6,61.6-5.6l3.9-1.3l-0.9-3.9c-3.9-14.8-7.8-39.9-9.5-62.9c-1.3-16.5-1.3-28.2-0.4-36.4c5.6,22.6,12.6,67.7,16.9,98.5l0.4,3
	l2.6,0.9c3,0.9,6.5,1.3,10,1.3c10.8,0,20-4.8,20.4-4.8l2.6-1.3L213.4,183.9z M106.7,13.5c8.7-0.1,22.2-2.2,29.1-3.5
	c-0.4,10.4-2.2,28.6-11.7,38.6c-4.3,4.8-10.4,7.4-17.4,7.4c-7.4,0-13-2.2-17.4-7.4C79.8,38.6,78,20.4,77.6,10
	C84.5,11.3,98.4,13.5,106.7,13.5z"/>
</svg>
