<?xml version="1.0" encoding="utf-8"?>
<!-- Generator: Adobe Illustrator 21.0.0, SVG Export Plug-In . SVG Version: 6.00 Build 0)  -->
<svg version="1.1" id="图层_1" xmlns="http://www.w3.org/2000/svg" xmlns:xlink="http://www.w3.org/1999/xlink" x="0px" y="0px"
	 viewBox="0 0 36.3 51.8" style="enable-background:new 0 0 36.3 51.8;" xml:space="preserve">
<style type="text/css">
	.st0{fill:#1A1A1A;}
	.st1{fill:#FFFFFF;}
</style>
<path class="st0" d="M29.6,27.3c-0.4,0-0.8-0.3-1-0.7c-0.2-0.5,0.1-1.1,0.7-1.3l6.8-2.1c0.1,0,0.2,0,0.3,0
	c-0.3-5.1-3.3-9.5-7.6-12.3c0.1-0.2,0.2-0.5,0.2-0.8V1.8c0-1-0.8-1.8-1.8-1.8h-16c-1,0-1.8,0.8-1.8,1.8v8.1C3.8,12.6,0,18,0,24.2
	c0,0.4,0,0.8,0.1,1.2h0.1h8c0.6,0,1,0.4,1,1s-0.4,1-1,1H0.3c0.9,4,3.4,7.5,7,9.9v13c0,0.9,0.7,1.6,1.6,1.6h19.9
	c0.9,0,1.6-0.7,1.6-1.6v-14c3.4-2.8,5.5-6.6,5.9-11l-6.4,2C29.8,27.2,29.7,27.3,29.6,27.3z"/>
<path class="st1" d="M26.3,19.8c-0.4-0.4-1-0.5-1.4-0.1l-4.8,4.1c-0.3-0.1-0.5-0.1-0.8-0.1c-0.4,0-0.8,0.1-1.1,0.2l-7.4-5.4
	c-0.4-0.3-1.1-0.2-1.4,0.2c-0.3,0.4-0.2,1.1,0.2,1.4l7.1,5.2c-0.1,0.3-0.2,0.6-0.2,1c0,1.4,1.3,2.6,2.8,2.6s2.8-1.2,2.8-2.6
	c0-0.4-0.1-0.9-0.3-1.2l4.5-3.8C26.7,20.8,26.7,20.2,26.3,19.8z"/>
<path class="st1" d="M9.2,26.3c0-0.6-0.4-1-1-1h-8H0.1c0.1,0.7,0.2,1.3,0.3,2h7.8C8.7,27.3,9.2,26.9,9.2,26.3z"/>
<g id="XMLID_57_">
	<path class="st1" d="M20.2,14.8L20.2,14.8c-0.6,0-1-0.5-1-1l0.1-6c0-0.6,0.4-1,1-1s1,0.5,1,1l-0.1,6C21.2,14.4,20.7,14.8,20.2,14.8
		z"/>
</g>
<path class="st1" d="M36.3,23.2c-0.1,0-0.2,0-0.3,0l-6.8,2.1c-0.5,0.2-0.8,0.7-0.7,1.3c0.1,0.4,0.5,0.7,1,0.7c0.1,0,0.2,0,0.3,0
	l6.4-2c0-0.4,0.1-0.7,0.1-1.1C36.3,23.8,36.3,23.5,36.3,23.2z"/>
<g id="XMLID_55_">
	<path class="st1" d="M20.3,41.5c-0.5,0-0.9-0.4-1-0.8l-0.9-6c-0.1-0.5,0.3-1.1,0.8-1.1c0.5-0.1,1.1,0.3,1.1,0.8l0.9,6
		c0.1,0.5-0.3,1.1-0.8,1.1H20.3z"/>
</g>
</svg>
