<?xml version="1.0" encoding="utf-8"?>
<!-- Generator: Adobe Illustrator 21.0.0, SVG Export Plug-In . SVG Version: 6.00 Build 0)  -->
<svg version="1.1" id="图层_1" xmlns="http://www.w3.org/2000/svg" xmlns:xlink="http://www.w3.org/1999/xlink" x="0px" y="0px"
	 viewBox="0 0 180 166.6" style="enable-background:new 0 0 180 166.6;" xml:space="preserve">
<path d="M63.1,83.5C39.6,83.7,0.1,83.9,0,121l0,45.6h180V0L94.3,0v58c0,0.8-0.2,21.9-16.5,24.9C74.5,83.5,69.3,83.5,63.1,83.5
	L63.1,83.5z M10,156.5v-6.8h160.1v6.8H10L10,156.5z M10.1,139.7v-18.8c0-25.1,23.9-27.3,53-27.5c6.7,0,12.3,0,16.5-0.8
	c10.9-2,17.3-9.3,20.9-17.3h28.9v-10h-25.9c0.6-2.8,0.8-5.4,0.8-7.6v-3h25.1v-10h-25.1V31.9h25.1v-10h-25.1V9.7h65.8v130H10.1
	L10.1,139.7z"/>
</svg>
