<?xml version="1.0" encoding="utf-8"?>
<!-- Generator: Adobe Illustrator 21.0.0, SVG Export Plug-In . SVG Version: 6.00 Build 0)  -->
<svg version="1.1" id="图层_1" xmlns="http://www.w3.org/2000/svg" xmlns:xlink="http://www.w3.org/1999/xlink" x="0px" y="0px"
	 viewBox="0 0 147.6 200" style="enable-background:new 0 0 147.6 200;" xml:space="preserve">
<style type="text/css">
	.st0{fill:#1A1A1A;}
	.st1{fill:#FFFFFF;}
	.st2{fill:#FCFCFC;}
</style>
<path class="st0" d="M142.8,42.8c0,0-9.1-14.7-14.3-19s-19-9.5-19-9.5L90.5,0H57.1l-19,14.4c0,0-12.3,4.8-19,9.5S4.8,39.6,4.8,42.9
	c0,3.3-4.8,115.7-4.8,119c0,3.3,3.5,4.8,4.9,4.8s19,0,19,0v21.4v2.4v2.4c0,3.8,3.3,7.1,7.1,7.1h85.8c3.8,0,7.1-3.3,7.1-7.1v-2.4
	v-2.4v-21.4c0,0,16.6,0,19,0c2.3,0,4.6-1.6,4.6-4.9S142.8,42.8,142.8,42.8z"/>
<path class="st1" d="M23.8,85.8c0,5.7,0,80.9,0,80.9h9.5c0-28.5,0-77.8,0-80.9C33.3,81,23.8,80.1,23.8,85.8z"/>
<path class="st1" d="M76.3,114.3c-2.9,0-4.8,1.9-4.8,4.8s1.9,4.8,4.8,4.8c2.8,0,4.8-1.9,4.8-4.8S79.1,114.3,76.3,114.3z"/>
<path class="st1" d="M76.3,161.8c-2.9,0-4.8,1.9-4.8,4.8s1.9,4.8,4.8,4.8c2.8,0,4.8-1.9,4.8-4.8S79.1,161.8,76.3,161.8z"/>
<path class="st1" d="M76.3,138c-2.9,0-4.8,1.9-4.8,4.8s1.9,4.8,4.8,4.8c2.8,0,4.8-1.9,4.8-4.8S79.1,138,76.3,138z"/>
<path class="st2" d="M114.4,85.8c0,3.4,0,52.6,0,81h9.5c0,0,0-76.2,0-81S114.4,80.6,114.4,85.8z"/>
<path class="st1" d="M109.6,23.8l-0.4-9.8l-9.1-6.9L90.5,0l0,0l-1.8,9.5L76.3,42.8h-4.8L59.1,9.5L57.2,0l-9.5,7.2l-9.5,7.2l0,0v10.4
	l0,0V38l9.5,4.8L38.2,57l28.5,28.8l-9.5,19v85.7v9.4h9.5v-9.5v-85.7l42.9-47.6v-4.8l-9.5-9.5l9.5-9.5V23.8z M47.7,57l9.5-14.3
	l-9.5-9.5V19l4.8-4.7L66.7,57l4.8,19L47.7,57z M100.1,33.2L90.6,38v4.8l9.5,14.3L76.4,81V57l19-42.9l-1-1.4c1.9,1.4,3.8,2.9,5.7,4.3
	V33.2z"/>
</svg>
